<svg width="108" height="110" viewBox="0 0 108 110" fill="none" xmlns="http://www.w3.org/2000/svg">
<circle cx="54" cy="56" r="54" fill="#B3B3B3"/>
<mask id="mask0_1734_7772" style="mask-type:luminance" maskUnits="userSpaceOnUse" x="0" y="2" width="108" height="108">
<path d="M54.0005 110C83.8235 110 108 85.8234 108 56C108 26.1766 83.8235 2 54.0005 2C24.1774 2 0.000976562 26.1766 0.000976562 56C0.000976562 85.8234 24.1774 110 54.0005 110Z" fill="white"/>
</mask>
<g mask="url(#mask0_1734_7772)">
<path d="M155.385 124.688C145.179 145.262 120.204 153.686 99.6032 143.453C88.8843 138.134 81.4594 128.792 78.2734 118.181C80.0014 119.45 81.8374 120.611 83.8084 121.61C104.139 132.14 129.492 124.094 139.968 103.709C142.992 97.8233 144.477 91.5323 144.585 85.3493C144.639 81.0293 150.228 79.3553 152.631 82.9193C160.704 94.9343 162.297 110.81 155.385 124.688Z" fill="#F4F4F4"/>
<path d="M30.1608 43.2285V137.188C30.1608 143.047 34.9127 147.799 40.7717 147.799H115.075C132.571 147.799 142.561 127.819 132.058 113.833L87.6162 54.5685L69.3104 30.1605C67.5554 27.8115 65.5304 25.9755 63.3165 24.5985C49.8436 16.1475 30.1338 25.2195 30.1338 43.2015L30.1608 43.2285Z" fill="#F4F4F4"/>
<path d="M56.2131 23.7893L54.4311 23.2223C54.4311 22.9523 54.2151 16.2023 45.0892 16.2023C44.5492 16.2023 44.1172 15.7703 44.1172 15.2303C44.1172 14.6903 44.5492 14.2583 45.0892 14.2583C51.7311 14.2583 54.4581 17.4173 55.5921 19.9823C55.6731 19.3883 55.7001 18.7403 55.5921 18.0383C55.2141 15.8243 53.6751 13.7723 51.0291 11.8823C50.5971 11.5583 50.4891 10.9643 50.7861 10.5053C51.1101 10.0733 51.7041 9.96531 52.1631 10.2623C55.2681 12.4493 57.0771 14.9603 57.5361 17.7143C58.1031 21.1433 56.2941 23.6813 56.2131 23.7623V23.7893Z" fill="#F4F4F4"/>
<path d="M50.704 49.0884C50.704 51.9504 49.732 53.3814 47.788 53.3814C45.8441 53.3814 44.8721 51.9504 44.8721 49.0884C44.8721 46.7124 46.1681 44.7954 47.788 44.7954C49.408 44.7954 50.704 46.7124 50.704 49.0884Z" fill="#B3B3B3"/>
<path d="M42.8759 49.0884C42.8759 51.9504 41.9039 53.3814 39.9599 53.3814C38.0159 53.3814 37.0439 51.9504 37.0439 49.0884C37.0439 46.7124 38.3399 44.7954 39.9599 44.7954C41.5799 44.7954 42.8759 46.7124 42.8759 49.0884Z" fill="#B3B3B3"/>
<path d="M50.7051 43.1752C50.3811 43.1752 50.0841 43.0132 49.8951 42.7162C49.8681 42.6622 49.0041 41.4202 47.3031 41.4202C45.6021 41.4202 44.7381 42.6622 44.7111 42.7162C44.5221 42.9862 44.2251 43.1482 43.9011 43.1482C43.5771 43.1482 43.2531 42.9862 43.0911 42.7162C43.0641 42.6622 42.2002 41.4202 40.4992 41.4202C38.7982 41.4202 37.9342 42.6622 37.9072 42.7162C37.6102 43.1482 36.9892 43.2832 36.5572 42.9862C36.0982 42.6892 35.9902 42.0952 36.2872 41.6362C36.3412 41.5552 37.7452 39.4492 40.5262 39.4492C42.1192 39.4492 43.2531 40.1242 43.9281 40.7452C44.6301 40.1512 45.7641 39.4492 47.3301 39.4492C50.1111 39.4492 51.5151 41.5552 51.5691 41.6362C51.8661 42.0952 51.7311 42.6892 51.2721 42.9862C51.1101 43.0942 50.9211 43.1482 50.7321 43.1482L50.7051 43.1752Z" fill="#B3B3B3"/>
<path d="M63.5303 24.6255V73.7385C63.5303 80.4345 68.9572 85.8885 75.6802 85.8885C82.4031 85.8885 87.83 80.4615 87.83 73.7385V54.5955L69.5242 30.1875C67.7692 27.8385 65.7443 26.0025 63.5303 24.6255Z" fill="#B3B3B3"/>
<path d="M30.1586 55.353H19.4667C18.8457 55.353 18.2517 55.515 17.7657 55.839C17.1717 56.19 16.7127 56.757 16.4427 57.378C16.2267 57.918 16.1457 58.512 16.2537 59.133C17.0907 64.182 19.5477 68.691 23.0576 72.093C27.2426 76.143 32.9395 78.627 39.2305 78.627C52.0823 78.627 62.5042 68.205 62.5042 55.353H30.1856H30.1586Z" fill="#F4F4F4"/>
<path d="M26.9993 58.646C26.7023 62.075 25.3253 65.288 23.0573 67.907C21.0593 65.612 19.7633 62.831 19.2773 59.807C19.2233 59.402 19.3853 59.132 19.4933 58.997C19.6013 58.862 19.8713 58.646 20.2763 58.646H26.9993Z" fill="#B3B3B3"/>
</g>
<rect x="77" y="1" width="26" height="26" rx="13" fill="white"/>
<rect x="77" y="1" width="26" height="26" rx="13" stroke="#B3B3B3" stroke-width="2"/>
<mask id="mask1_1734_7772" style="mask-type:alpha" maskUnits="userSpaceOnUse" x="82" y="6" width="16" height="16">
<rect x="82" y="6" width="16" height="16" fill="#D9D9D9"/>
</mask>
<g mask="url(#mask1_1734_7772)">
<path fill-rule="evenodd" clip-rule="evenodd" d="M89.9997 8C90.3679 8 90.6663 8.29848 90.6663 8.66667V19.3333C90.6663 19.7015 90.3679 20 89.9997 20C89.6315 20 89.333 19.7015 89.333 19.3333V8.66667C89.333 8.29848 89.6315 8 89.9997 8Z" fill="#B3B3B3"/>
<path fill-rule="evenodd" clip-rule="evenodd" d="M96 14.0002C96 14.3684 95.7015 14.6668 95.3333 14.6668L84.6667 14.6668C84.2985 14.6668 84 14.3684 84 14.0002C84 13.632 84.2985 13.3335 84.6667 13.3335L95.3333 13.3335C95.7015 13.3335 96 13.632 96 14.0002Z" fill="#B3B3B3"/>
</g>
</svg>
