<svg width="24" height="24" viewBox="0 0 24 24" fill="none" xmlns="http://www.w3.org/2000/svg">
<mask id="mask0_1733_60" style="mask-type:alpha" maskUnits="userSpaceOnUse" x="0" y="0" width="24" height="24">
<rect width="24" height="24" fill="#D9D9D9"/>
</mask>
<g mask="url(#mask0_1733_60)">
<path fill-rule="evenodd" clip-rule="evenodd" d="M16 10C16 12.7614 13.7614 15 11 15C8.23858 15 6 12.7614 6 10C6 7.23858 8.23858 5 11 5C13.7614 5 16 7.23858 16 10ZM15.1922 15.6064C14.0236 16.4816 12.5723 17 11 17C7.13401 17 4 13.866 4 10C4 6.13401 7.13401 3 11 3C14.866 3 18 6.13401 18 10C18 11.5723 17.4816 13.0236 16.6064 14.1922L21.2071 18.7929C21.5977 19.1835 21.5977 19.8167 21.2071 20.2072C20.8166 20.5977 20.1834 20.5977 19.7929 20.2072L15.1922 15.6064Z" fill="#B3B3B3"/>
</g>
</svg>
