<svg width="282" height="413" viewBox="0 0 282 413" fill="none" xmlns="http://www.w3.org/2000/svg">
<g clip-path="url(#clip0_1839_12227)">
<path d="M417.946 343.663C387.266 405.399 312.272 430.608 250.46 399.96C218.262 383.996 195.993 356.018 186.386 324.147C191.557 327.962 197.09 331.406 202.965 334.448C264.043 366.065 340.133 341.863 371.587 280.753C380.695 263.067 385.17 244.245 385.454 225.659C385.66 212.736 402.415 207.65 409.642 218.371C433.889 254.38 438.639 302.02 417.946 343.663Z" fill="black"/>
<path d="M42.8334 373.861H76.2758V413.01H18.5571V398.111C18.5571 384.729 29.4369 373.861 42.8334 373.861Z" fill="#FFF9E1"/>
<path d="M41.9131 99.3592V381.159C41.9131 398.737 56.1812 413 73.7886 413H296.888C349.407 413 379.402 353.103 347.879 311.127L214.452 133.411L159.495 60.2005C154.217 53.1768 148.116 47.6596 141.515 43.551C101.022 18.205 41.9229 45.4292 41.9229 99.3592H41.9131Z" fill="#FFF9E1"/>
<path d="M120.177 41.086L114.859 39.3643C114.85 38.5132 114.223 18.3127 86.8422 18.3127C85.2166 18.3127 83.8945 16.9921 83.8945 15.3682C83.8945 13.7444 85.2166 12.4237 86.8422 12.4237C106.761 12.4237 114.977 21.9126 118.375 29.6211C118.63 27.8603 118.669 25.8842 118.306 23.7615C117.19 17.1486 112.578 10.9466 104.606 5.33155C103.274 4.39245 102.961 2.56315 103.891 1.23276C104.832 -0.0976385 106.663 -0.410673 107.995 0.518648C117.347 7.10215 122.772 14.6345 124.133 22.9006C125.827 33.221 120.412 40.7534 120.187 41.0762L120.177 41.086Z" fill="#FFF9E1"/>
<path d="M103.637 116.928C103.637 125.537 100.729 129.841 94.9119 129.841C89.095 129.841 86.1865 125.537 86.1865 116.928C86.1865 109.797 90.0938 104.016 94.9119 104.016C99.7299 104.016 103.637 109.797 103.637 116.928Z" fill="#0B0C10"/>
<path d="M80.105 116.928C80.105 125.537 77.1966 129.841 71.3797 129.841C65.5628 129.841 62.6543 125.537 62.6543 116.928C62.6543 109.797 66.5616 104.016 71.3797 104.016C76.1977 104.016 80.105 109.797 80.105 116.928Z" fill="#0B0C10"/>
<path d="M103.647 99.1635C102.687 99.1635 101.747 98.6939 101.179 97.8233C101.081 97.6863 98.486 93.9299 93.3938 93.9299C88.3015 93.9299 85.7064 97.6863 85.5987 97.8526C85.0503 98.6646 84.1396 99.1732 83.1309 99.1537C82.1418 99.1537 81.2213 98.6548 80.6827 97.8331C80.5848 97.6961 77.9897 93.9397 72.8975 93.9397C67.8052 93.9397 65.2101 97.6961 65.1024 97.8624C64.2015 99.1928 62.38 99.5645 61.0384 98.6743C59.6968 97.7841 59.3149 95.994 60.1864 94.644C60.3627 94.3799 64.554 88.0801 72.8975 88.0801C77.6567 88.0801 81.0646 90.1246 83.1407 91.9343C85.2266 90.1246 88.6345 88.0801 93.384 88.0801C101.727 88.0801 105.919 94.3799 106.095 94.644C106.976 96.0038 106.594 97.8233 105.233 98.7037C104.744 99.0265 104.185 99.1732 103.637 99.1732L103.647 99.1635Z" fill="#0B0C10"/>
<path d="M142.083 43.5508V190.824C142.083 210.926 158.418 227.243 178.542 227.243C198.666 227.243 215.02 210.926 215.02 190.824V133.401L160.063 60.1905C154.785 53.1668 148.684 47.6496 142.083 43.541V43.5508Z" fill="#0B0C10"/>
<path d="M41.9132 135.71H9.8027C7.92249 135.71 6.17937 136.238 4.69087 137.138C2.91837 138.224 1.51801 139.858 0.724791 141.775C0.0588817 143.379 -0.176145 145.179 0.127431 147.038C2.60501 162.201 9.97897 175.72 20.565 185.923C33.1291 198.043 50.2371 205.497 69.0882 205.497C107.662 205.497 138.95 174.262 138.95 135.71H41.9132Z" fill="#FFF9E1"/>
<path d="M32.4241 145.59C31.4938 155.911 27.4102 165.536 20.6238 173.372C14.6502 166.466 10.7429 158.151 9.26417 149.092C9.0781 147.899 9.61671 147.058 9.94966 146.666C10.2924 146.265 11.0562 145.59 12.2706 145.59H32.4241Z" fill="#0B0C10"/>
</g>
<defs>
<clipPath id="clip0_1839_12227">
<rect width="431" height="413" fill="white"/>
</clipPath>
</defs>
</svg>
