<svg width="256" height="54" viewBox="0 0 256 54" fill="none" xmlns="http://www.w3.org/2000/svg">
<g clip-path="url(#clip0_1642_7155)">
<path d="M22.4054 52.7196C19.8922 53.453 14.4814 53.6737 11.1284 53.6737C4.57404 53.6706 -0.074396 51.8371 -9.85578e-05 46.0477C0.0774292 37.3248 0.839786 8.14797 0.38108 2.20943C2.3645 0.963297 6.85788 0.00927734 10.366 0.00927734C18.5194 0.00927734 21.7206 3.16034 22.2536 10.4911C22.3311 11.4451 22.0243 15.5502 21.7206 17.309C21.3394 19.3631 22.0243 19.8759 24.0077 19.8759H28.3525C28.3525 12.1785 28.3525 4.77316 28.1231 2.20943C30.1033 0.963297 34.5967 0.00927734 38.1048 0.00927734C46.2582 0.00927734 49.4594 3.16034 49.9924 10.4911C50.1442 13.7167 48.8489 33.8754 48.8489 40.0346C48.8489 45.7525 49.6112 50.0036 49.9149 52.7165C47.3985 53.4499 42.75 53.6706 38.8639 53.6706C32.3096 53.6706 27.6612 51.8371 27.6612 46.0477C27.6612 43.3348 27.8905 37.0296 28.2717 33.9531C28.5011 32.2657 27.9681 31.6069 26.3658 31.6069H21.7174C21.488 35.0532 21.3362 38.0582 21.3362 40.0377C21.3362 45.7556 22.0986 50.0067 22.4022 52.7196H22.4054Z" fill="white"/>
<path d="M93.2399 8.1821C93.2399 12.5078 91.7927 15.1461 86.9924 15.1461L77.3919 15.0716L77.0883 20.7895C82.3472 20.7895 88.6722 20.7895 91.7184 20.5688C92.2514 22.1071 92.4808 25.1152 92.4808 27.2407C92.4808 31.3458 91.0336 33.8381 86.2333 33.8381L76.4034 33.7635L76.3259 36.5479C76.2484 38.8941 77.0107 39.9941 79.8308 39.9941C84.3274 39.9941 91.3372 39.4814 94.0055 39.1147C94.5385 40.7275 94.7678 44.0992 94.7678 46.2994C94.7678 51.3585 91.7959 53.9968 85.4709 53.9968H69.8491C61.0077 53.9968 56.1331 51.4299 56.1331 43.4404L56.285 15.0716L55.0671 15.1461C54.0011 13.9 53.2388 10.9665 53.2388 8.69485C53.2388 3.34364 55.7552 0.922852 61.7733 0.922852C64.897 0.922852 85.093 1.28954 92.484 1.14349C93.017 2.75631 93.2463 5.98195 93.2463 8.1821H93.2399Z" fill="white"/>
<path d="M97.9983 42.9276C97.9983 27.6074 97.8465 7.07885 97.4653 3.04835C99.6006 1.72764 103.79 0.702148 108.287 0.702148C112.477 0.702148 116.899 1.14342 118.65 4.2199C121.163 2.09433 125.127 0.702148 130.615 0.702148C143.342 0.702148 149.131 9.57111 149.131 23.869V27.0946C149.131 44.9071 137.473 53.9998 123.146 53.9998H109.353C101.503 53.9998 97.9983 50.6996 97.9983 42.9307V42.9276ZM126.955 31.7124C127.184 28.4868 127.336 25.1866 127.336 22.2562C127.336 17.7844 126.422 15.8795 123.602 15.8795C121.848 15.8795 120.552 16.3922 119.868 16.9795C119.638 23.2848 119.638 34.1332 119.257 40.0718H121.315C125.127 40.0718 126.648 35.7461 126.955 31.7156V31.7124Z" fill="white"/>
<path d="M153.169 42.9276C153.169 27.6074 153.017 7.07885 152.636 3.04835C154.771 1.72764 158.961 0.702148 163.458 0.702148C167.648 0.702148 172.07 1.14342 173.821 4.2199C176.334 2.09433 180.298 0.702148 185.786 0.702148C198.513 0.702148 204.302 9.57111 204.302 23.869V27.0946C204.302 44.9071 192.644 53.9998 178.317 53.9998H164.524C156.674 53.9998 153.169 50.6996 153.169 42.9307V42.9276ZM182.126 31.7124C182.355 28.4868 182.507 25.1866 182.507 22.2562C182.507 17.7844 181.593 15.8795 178.773 15.8795C177.019 15.8795 175.723 16.3922 175.039 16.9795C174.809 23.2848 174.809 34.1332 174.428 40.0718H176.486C180.298 40.0718 181.819 35.7461 182.126 31.7156V31.7124Z" fill="white"/>
<path d="M249.717 0.00941367C255.739 0.00941367 256.727 2.13498 255.587 6.89887C253.91 14.009 246.442 28.9656 241.412 36.2218L240.346 36.5885L240.194 40.0347C240.194 44.2859 240.957 49.8577 241.26 52.5706C238.747 53.2294 234.099 53.6707 230.746 53.6707C224.191 53.6707 220.076 51.8372 220.076 46.0479L220.153 36.4455C217.944 35.1994 216.571 33.3659 215.427 31.0943C212.304 24.8636 208.111 12.3278 205.064 0.89196C208.188 0.304631 212.152 -0.0620601 215.96 0.0125212C223.199 0.158576 226.171 1.69992 227.086 6.09712C228.307 12.0357 229.828 18.1203 230.516 21.8586C230.746 23.0302 232.193 23.0302 232.422 21.8586C233.184 18.1917 235.394 8.95607 237.148 0.745905C241.415 0.233158 245.453 0.0125212 249.72 0.0125212L249.717 0.00941367Z" fill="white"/>
</g>
<defs>
<clipPath id="clip0_1642_7155">
<rect width="256" height="54" fill="white"/>
</clipPath>
</defs>
</svg>
