<svg width="148" height="148" viewBox="0 0 148 148" fill="none" xmlns="http://www.w3.org/2000/svg">
<mask id="mask0_2002_13749" style="mask-type:alpha" maskUnits="userSpaceOnUse" x="0" y="0" width="148" height="148">
<circle cx="74" cy="74" r="74" fill="#D9D9D9"/>
</mask>
<g mask="url(#mask0_2002_13749)">
<circle cx="39.0947" cy="33.5088" r="148" fill="#1F5FFF"/>
<path d="M187.732 160.84C176.104 184.215 147.679 193.76 124.251 182.156C112.047 176.111 103.607 165.518 99.9658 153.45C101.926 154.895 104.023 156.198 106.25 157.35C129.399 169.322 158.239 160.158 170.161 137.019C173.613 130.323 175.309 123.196 175.417 116.159C175.495 111.266 181.845 109.34 184.585 113.399C193.775 127.034 195.575 145.072 187.732 160.84Z" fill="black"/>
<path d="M45.208 68.3374V175.037C45.208 181.693 50.6159 187.094 57.2895 187.094H141.849C161.755 187.094 173.124 164.414 161.176 148.521L110.604 81.2309L89.7742 53.5105C87.7736 50.851 85.4612 48.762 82.9595 47.2063C67.6117 37.6094 45.2117 47.9175 45.2117 68.3374H45.208Z" fill="#FFF9E1"/>
<path d="M74.8719 46.2724L72.8565 45.6205C72.8527 45.2982 72.6152 37.6496 62.2373 37.6496C61.6212 37.6496 61.1201 37.1495 61.1201 36.5347C61.1201 35.9198 61.6212 35.4198 62.2373 35.4198C69.7869 35.4198 72.901 39.0126 74.1889 41.9313C74.2854 41.2646 74.3003 40.5164 74.163 39.7127C73.7398 37.2088 71.9916 34.8605 68.9703 32.7344C68.4655 32.3788 68.3468 31.6862 68.6994 31.1825C69.0557 30.6787 69.7498 30.5602 70.2546 30.9121C73.7992 33.4048 75.8555 36.2569 76.3714 39.3867C77.0135 43.2944 74.961 46.1464 74.8756 46.2687L74.8719 46.2724Z" fill="#FFF9E1"/>
<path d="M68.6025 74.9898C68.6025 78.2493 67.5001 79.879 65.2954 79.879C63.0906 79.879 61.9883 78.2493 61.9883 74.9898C61.9883 72.2896 63.4692 70.1006 65.2954 70.1006C67.1215 70.1006 68.6025 72.2896 68.6025 74.9898Z" fill="#0B0C10"/>
<path d="M59.6816 74.9898C59.6816 78.2493 58.5792 79.879 56.3745 79.879C54.1698 79.879 53.0674 78.2493 53.0674 74.9898C53.0674 72.2896 54.5483 70.1006 56.3745 70.1006C58.2006 70.1006 59.6816 72.2896 59.6816 74.9898Z" fill="#0B0C10"/>
<path d="M68.6058 68.264C68.242 68.264 67.8857 68.0862 67.6704 67.7565C67.6333 67.7047 66.6497 66.2823 64.7196 66.2823C62.7895 66.2823 61.806 67.7047 61.7651 67.7676C61.5573 68.0751 61.2121 68.2677 60.8298 68.2603C60.4549 68.2603 60.106 68.0714 59.9019 67.7602C59.8647 67.7084 58.8811 66.2861 56.9511 66.2861C55.021 66.2861 54.0374 67.7084 53.9966 67.7713C53.6551 68.2751 52.9647 68.4158 52.4562 68.0788C51.9477 67.7417 51.803 67.0639 52.1333 66.5527C52.2001 66.4527 53.7887 64.0674 56.9511 64.0674C58.755 64.0674 60.0466 64.8415 60.8335 65.5267C61.6241 64.8415 62.9157 64.0674 64.7159 64.0674C67.8783 64.0674 69.4669 66.4527 69.5337 66.5527C69.8677 67.0676 69.723 67.7565 69.207 68.0899C69.0215 68.2121 68.8099 68.2677 68.602 68.2677L68.6058 68.264Z" fill="#0B0C10"/>
<path d="M83.1748 47.2059V102.969C83.1748 110.581 89.3659 116.759 96.9934 116.759C104.621 116.759 110.819 110.581 110.819 102.969V81.2267L89.9895 53.5063C87.9889 50.8468 85.6765 48.7578 83.1748 47.2021V47.2059Z" fill="#0B0C10"/>
<path d="M45.2067 82.1016H33.0361C32.3234 82.1016 31.6627 82.3016 31.0986 82.6423C30.4268 83.0535 29.896 83.672 29.5953 84.398C29.3429 85.0055 29.2539 85.687 29.3689 86.3907C30.308 92.1319 33.1029 97.2507 37.1152 101.114C41.8773 105.703 48.3616 108.526 55.5066 108.526C70.1269 108.526 81.9857 96.6989 81.9857 82.1016H45.2067Z" fill="#FFF9E1"/>
<path d="M41.6119 85.8418C41.2593 89.7495 39.7115 93.3942 37.1393 96.361C34.8752 93.746 33.3942 90.5977 32.8338 87.1678C32.7633 86.7159 32.9674 86.3974 33.0936 86.2492C33.2235 86.0974 33.513 85.8418 33.9733 85.8418H41.6119Z" fill="#0B0C10"/>
</g>
</svg>
