<svg width="24" height="24" viewBox="0 0 24 24" fill="none" xmlns="http://www.w3.org/2000/svg">
<g clip-path="url(#clip0_1323_14750)">
<mask id="mask0_1323_14750" style="mask-type:luminance" maskUnits="userSpaceOnUse" x="0" y="0" width="24" height="24">
<path d="M24 0H0V24H24V0Z" fill="white"/>
</mask>
<g mask="url(#mask0_1323_14750)">
<path d="M12.7801 16.5193C12.5801 16.7593 12.2901 16.8993 11.9901 16.8993C11.9401 16.8993 11.8901 16.8993 11.8501 16.8993C11.4901 16.8493 11.1901 16.6093 11.0601 16.2793L8.99011 11.0693L7.92011 13.7393C7.77011 14.1193 7.40011 14.3693 6.99011 14.3693H3.61011C3.61011 14.3693 3.64011 14.4093 3.66011 14.4293L10.5501 21.3193C11.3301 22.0993 12.6001 22.0993 13.3801 21.3193L20.3301 14.3693H14.4701L12.7801 16.5293V16.5193Z" fill="#E4E4E4"/>
<path d="M20.45 5.75957C18.11 3.40957 14.3 3.40957 11.96 5.75957C10.79 4.57957 9.25003 3.98957 7.72003 3.99957C6.24003 3.99957 4.77003 4.53957 3.61003 5.61957C1.75003 7.36957 1.35003 10.0896 2.29003 12.3596H6.31003L8.06003 7.98957C8.21003 7.60957 8.58003 7.35957 8.99003 7.35957C9.40003 7.35957 9.77003 7.60957 9.92003 7.98957L12.28 13.9196L13.2 12.7396C13.39 12.4996 13.68 12.3596 13.99 12.3596H21.72C22.05 11.5996 22.21 10.7996 22.2 9.99957C22.21 8.45957 21.62 6.92957 20.45 5.75957Z" fill="#E4E4E4"/>
<path d="M20.3301 14.3593L20.4501 14.2393L20.3301 14.3593Z" fill="white"/>
<path d="M13.2 12.7394L12.28 13.9194L9.92004 7.98937C9.77004 7.60937 9.40004 7.35938 8.99004 7.35938C8.58004 7.35938 8.21004 7.60937 8.06004 7.98937L6.31004 12.3594H2.29004C2.59004 13.0894 3.03004 13.7694 3.61004 14.3594H6.99004C7.40004 14.3594 7.77004 14.1094 7.92004 13.7294L8.99004 11.0594L11.06 16.2694C11.19 16.5994 11.49 16.8394 11.85 16.8894C11.89 16.8894 11.94 16.8894 11.99 16.8894C12.29 16.8894 12.58 16.7494 12.78 16.5094L14.47 14.3494H20.33L20.45 14.2294C21.01 13.6694 21.43 13.0294 21.72 12.3494H13.99C13.68 12.3494 13.39 12.4894 13.2 12.7294V12.7394Z" fill="white"/>
</g>
</g>
<defs>
<clipPath id="clip0_1323_14750">
<rect width="24" height="24" fill="white"/>
</clipPath>
</defs>
</svg>
