<svg width="24" height="24" viewBox="0 0 24 24" fill="none" xmlns="http://www.w3.org/2000/svg">
<mask id="mask0_1323_15132" style="mask-type:luminance" maskUnits="userSpaceOnUse" x="0" y="0" width="24" height="24">
<path d="M24 0H0V24H24V0Z" fill="white"/>
</mask>
<g mask="url(#mask0_1323_15132)">
<path d="M20.0101 13.5302C19.8301 10.0902 17.8401 7.1802 16.7401 5.8202C16.3701 5.3602 15.6801 5.3402 15.2601 5.7502L13.8701 7.1502C13.5501 7.4602 13.0201 7.2402 13.0201 6.7902V2.6902C13.0201 1.9202 12.1701 1.4302 11.5001 1.8302C3.12008 6.8302 4.02008 14.0002 4.02008 14.0002C4.02008 18.4202 7.60008 22.0002 12.0201 22.0002C16.4401 22.0002 20.0201 18.4202 20.0201 14.0002C20.0201 13.8402 20.0201 13.6902 20.0101 13.5302ZM12.0001 18.6602C10.4401 18.6602 9.17008 17.3902 9.17008 15.8302C9.17008 14.2702 10.4401 11.0002 12.0001 11.0002C13.5601 11.0002 14.8301 14.2702 14.8301 15.8302C14.8301 17.3902 13.5601 18.6602 12.0001 18.6602Z" fill="white"/>
<path d="M14.8299 15.83C14.8299 17.39 13.5599 18.66 11.9999 18.66C10.4399 18.66 9.16992 17.39 9.16992 15.83C9.16992 14.27 10.4399 11 11.9999 11C13.5599 11 14.8299 14.27 14.8299 15.83Z" fill="#1F5FFF"/>
</g>
</svg>
