<svg width="24" height="24" viewBox="0 0 24 24" fill="none" xmlns="http://www.w3.org/2000/svg">
<g clip-path="url(#clip0_1323_14736)">
<mask id="mask0_1323_14736" style="mask-type:luminance" maskUnits="userSpaceOnUse" x="0" y="0" width="24" height="24">
<path d="M24 0H0V24H24V0Z" fill="white"/>
</mask>
<g mask="url(#mask0_1323_14736)">
<path d="M19.99 10C19.99 14.42 14.99 22 11.99 22C8.98999 22 3.98999 14.41 3.98999 10C3.98999 5.59 7.56999 2 11.99 2C16.41 2 19.99 5.58 19.99 10Z" fill="#E4E4E4"/>
<path d="M11.99 13C13.923 13 15.49 11.433 15.49 9.5C15.49 7.567 13.923 6 11.99 6C10.057 6 8.48999 7.567 8.48999 9.5C8.48999 11.433 10.057 13 11.99 13Z" fill="white"/>
</g>
</g>
<defs>
<clipPath id="clip0_1323_14736">
<rect width="24" height="24" fill="white"/>
</clipPath>
</defs>
</svg>
