<svg width="24" height="24" viewBox="0 0 24 24" fill="none" xmlns="http://www.w3.org/2000/svg">
<g clip-path="url(#clip0_1323_15148)">
<mask id="mask0_1323_15148" style="mask-type:luminance" maskUnits="userSpaceOnUse" x="0" y="0" width="24" height="24">
<path d="M24 0H0V24H24V0Z" fill="white"/>
</mask>
<g mask="url(#mask0_1323_15148)">
<path d="M8.97993 11.8303L6.07993 15.5303C4.01993 18.1603 5.88993 22.0003 9.22993 22.0003H15.3099C18.7299 22.0003 20.5699 17.9903 18.3399 15.3903L15.1699 11.7003C13.5299 9.79028 10.5499 9.85028 8.98993 11.8303H8.97993Z" fill="white"/>
<path d="M11.99 9C13.6468 9 14.99 7.65685 14.99 6C14.99 4.34315 13.6468 3 11.99 3C10.3331 3 8.98999 4.34315 8.98999 6C8.98999 7.65685 10.3331 9 11.99 9Z" fill="white"/>
<path d="M4.98999 13C6.64684 13 7.98999 11.6569 7.98999 10C7.98999 8.34315 6.64684 7 4.98999 7C3.33314 7 1.98999 8.34315 1.98999 10C1.98999 11.6569 3.33314 13 4.98999 13Z" fill="white"/>
<path d="M18.99 13C20.6468 13 21.99 11.6569 21.99 10C21.99 8.34315 20.6468 7 18.99 7C17.3331 7 15.99 8.34315 15.99 10C15.99 11.6569 17.3331 13 18.99 13Z" fill="white"/>
</g>
</g>
<defs>
<clipPath id="clip0_1323_15148">
<rect width="24" height="24" fill="white"/>
</clipPath>
</defs>
</svg>
