<svg width="360" height="440" viewBox="0 0 360 440" fill="none" xmlns="http://www.w3.org/2000/svg">
<g clip-path="url(#clip0_1721_9825)">
<rect width="360" height="440" fill="#A5C6FF"/>
<path d="M360 360.84H0V440.29H360V360.84Z" fill="#204CD3"/>
<path d="M360 348.69H0V360.84H360V348.69Z" fill="#618CF7"/>
<path d="M360 348.69H0V351.68H360V348.69Z" fill="#81A6F8"/>
<path d="M180.83 431.87C266.528 431.87 336 420.843 336 407.24C336 393.637 266.528 382.61 180.83 382.61C95.1321 382.61 25.6602 393.637 25.6602 407.24C25.6602 420.843 95.1321 431.87 180.83 431.87Z" fill="#2D62F6"/>
<path d="M180.83 428.87C266.528 428.87 336 417.843 336 404.24C336 390.637 266.528 379.61 180.83 379.61C95.1321 379.61 25.6602 390.637 25.6602 404.24C25.6602 417.843 95.1321 428.87 180.83 428.87Z" fill="#618CF7"/>
<path d="M470.87 320.24H325.53V237.33C325.53 230.48 331.08 224.92 337.94 224.92H470.88" fill="#336DDF"/>
<path d="M470.87 320.24H325.53V250.6C325.53 244.84 331.08 240.18 337.94 240.18H470.88" fill="#4178F5"/>
<path d="M470.87 377.13H325.53V339.95H470.87" fill="#234EA3"/>
<path d="M302.44 278.56H321.52C323.73 278.56 325.53 280.36 325.53 282.57V377.13H320.27C308.22 377.13 298.43 367.34 298.43 355.29V282.57C298.43 280.36 300.23 278.56 302.44 278.56Z" fill="#234EA3"/>
<path d="M470.87 348.64H337.93C331.08 348.64 325.52 343.09 325.52 336.23V320.24H470.86" fill="#336DDF"/>
<path d="M348.03 400.1H337.49C334.16 400.1 331.3 397.7 330.73 394.42L325.52 377.13H348.03V400.1Z" fill="#1D4386"/>
<path d="M51.3801 288.17H-66.9199V376.7H51.3801V288.17Z" fill="#4178F5"/>
<path d="M51.3903 370.1H-66.9097V378.64H51.3903V370.1Z" fill="#234B97"/>
<path d="M51.3903 333.87H-66.9097V336.35H51.3903V333.87Z" fill="#234B97"/>
<path d="M57.5899 392.72H45.1799V294.38H-60.7101V392.72H-73.1201V281.97H57.5899V392.72Z" fill="#234B97"/>
<path d="M60.8501 273.64H-76.3799V281.96H60.8501V273.64Z" fill="#4178F5"/>
<path d="M282.19 379.73C269.2 405.92 237.45 416.62 211.27 403.61C197.64 396.84 188.21 384.97 184.14 371.45C186.33 373.07 188.67 374.53 191.16 375.82C217.02 389.23 249.24 378.97 262.56 353.04C266.42 345.54 268.31 337.55 268.43 329.67C268.52 324.19 275.61 322.03 278.67 326.58C288.94 341.85 290.95 362.06 282.18 379.73H282.19Z" fill="black"/>
<path d="M126.97 392.54H137.53V409.15H113.09V406.42C113.09 398.76 119.31 392.54 126.97 392.54Z" fill="#FFF9E1"/>
<path d="M122.97 276.09V395.64C122.97 403.1 129.01 409.15 136.46 409.15H230.92C253.16 409.15 265.86 383.74 252.51 365.93L196.01 290.54L172.74 259.48C170.51 256.5 167.92 254.16 165.13 252.42C147.99 241.67 122.96 253.22 122.96 276.1L122.97 276.09Z" fill="#FFF9E1"/>
<path d="M156.11 251.37L153.86 250.64C153.86 250.28 153.59 241.71 142 241.71C141.31 241.71 140.75 241.15 140.75 240.46C140.75 239.77 141.31 239.21 142 239.21C150.43 239.21 153.91 243.24 155.35 246.51C155.46 245.76 155.47 244.92 155.32 244.02C154.85 241.21 152.89 238.58 149.52 236.2C148.96 235.8 148.82 235.02 149.22 234.46C149.62 233.9 150.39 233.76 150.96 234.16C154.92 236.95 157.22 240.15 157.79 243.65C158.51 248.03 156.21 251.23 156.12 251.36L156.11 251.37Z" fill="#FFF9E1"/>
<path d="M149.11 283.54C149.11 287.193 147.88 289.02 145.42 289.02C142.96 289.02 141.73 287.193 141.73 283.54C141.73 280.51 143.38 278.06 145.42 278.06C147.46 278.06 149.11 280.51 149.11 283.54Z" fill="#0B0C10"/>
<path d="M139.14 283.54C139.14 287.193 137.91 289.02 135.45 289.02C132.99 289.02 131.76 287.193 131.76 283.54C131.76 280.51 133.41 278.06 135.45 278.06C137.49 278.06 139.14 280.51 139.14 283.54Z" fill="#0B0C10"/>
<path d="M149.11 276.01C148.7 276.01 148.3 275.81 148.07 275.44C148.03 275.38 146.93 273.79 144.77 273.79C142.61 273.79 141.51 275.38 141.47 275.45C141.24 275.8 140.85 276.01 140.42 276C140 276 139.61 275.79 139.39 275.44C139.35 275.38 138.25 273.79 136.09 273.79C133.93 273.79 132.83 275.38 132.79 275.45C132.41 276.02 131.64 276.17 131.07 275.8C130.5 275.42 130.34 274.66 130.71 274.09C130.78 273.98 132.56 271.3 136.09 271.3C138.1 271.3 139.55 272.17 140.43 272.94C141.31 272.17 142.75 271.3 144.77 271.3C148.3 271.3 150.08 273.97 150.15 274.09C150.52 274.67 150.36 275.44 149.78 275.81C149.57 275.95 149.34 276.01 149.1 276.01H149.11Z" fill="#0B0C10"/>
<path d="M165.39 252.41V314.89C165.39 323.42 172.31 330.34 180.83 330.34C189.35 330.34 196.27 323.42 196.27 314.89V290.53L173 259.47C170.77 256.49 168.18 254.15 165.39 252.41Z" fill="#0B0C10"/>
<path d="M122.97 291.51H109.37C108.57 291.51 107.83 291.73 107.21 292.12C106.46 292.58 105.87 293.27 105.53 294.09C105.25 294.77 105.15 295.53 105.28 296.32C106.33 302.75 109.45 308.49 113.93 312.82C119.25 317.96 126.49 321.12 134.48 321.12C150.81 321.12 164.06 307.87 164.06 291.51H122.97Z" fill="#FFF9E1"/>
<path d="M118.95 295.7C118.56 300.08 116.83 304.16 113.95 307.49C111.42 304.56 109.77 301.03 109.14 297.19C109.06 296.68 109.29 296.33 109.43 296.16C109.57 295.99 109.9 295.7 110.41 295.7H118.94H118.95Z" fill="#0B0C10"/>
<path d="M160.41 331.29C160.41 333.36 159.7 335.45 158.3 337.13C158.12 337.35 157.94 337.54 157.74 337.74L147.78 347.72C146.48 349.02 144.38 349.02 143.09 347.72L133.11 337.74C132.91 337.54 132.73 337.34 132.55 337.13C129.56 333.55 129.75 328.2 133.11 324.84C134.9 323.06 137.22 322.17 139.56 322.17C141.65 322.17 143.74 322.88 145.43 324.31C149.01 321.29 154.37 321.47 157.74 324.84C159.52 326.62 160.41 328.95 160.41 331.29Z" fill="#FF4E45"/>
</g>
<defs>
<clipPath id="clip0_1721_9825">
<rect width="360" height="440" fill="white"/>
</clipPath>
</defs>
</svg>
