<svg width="24" height="25" viewBox="0 0 24 25" fill="none" xmlns="http://www.w3.org/2000/svg">
<mask id="mask0_2339_16124" style="mask-type:alpha" maskUnits="userSpaceOnUse" x="0" y="0" width="24" height="25">
<rect y="0.5" width="24" height="24" fill="#D9D9D9"/>
</mask>
<g mask="url(#mask0_2339_16124)">
<path fill-rule="evenodd" clip-rule="evenodd" d="M12 3.5C12.5523 3.5 13 3.94772 13 4.5V20.5C13 21.0523 12.5523 21.5 12 21.5C11.4477 21.5 11 21.0523 11 20.5V4.5C11 3.94772 11.4477 3.5 12 3.5Z" fill="#4D4D4D"/>
<path fill-rule="evenodd" clip-rule="evenodd" d="M21 12.5C21 13.0523 20.5523 13.5 20 13.5L4 13.5C3.44772 13.5 3 13.0523 3 12.5C3 11.9477 3.44772 11.5 4 11.5L20 11.5C20.5523 11.5 21 11.9477 21 12.5Z" fill="#4D4D4D"/>
</g>
</svg>
