<svg width="16" height="16" viewBox="0 0 16 16" fill="none" xmlns="http://www.w3.org/2000/svg">
<mask id="mask0_2063_14179" style="mask-type:alpha" maskUnits="userSpaceOnUse" x="0" y="0" width="16" height="16">
<rect width="16" height="16" fill="#D9D9D9"/>
</mask>
<g mask="url(#mask0_2063_14179)">
<path d="M1.33301 5.33333C1.33301 4.59695 2.12895 4 3.11079 4H4.88856C5.8704 4 6.66634 4.59695 6.66634 5.33333V10.6667C6.66634 11.403 5.8704 12 4.88856 12H3.11079C2.12895 12 1.33301 11.403 1.33301 10.6667V5.33333Z" fill="#1A1A1A"/>
<path fill-rule="evenodd" clip-rule="evenodd" d="M11.9997 5.33333H2.66634L2.66634 10.6667H11.9997V5.33333ZM2.66634 4C1.92996 4 1.33301 4.59695 1.33301 5.33333V10.6667C1.33301 11.403 1.92996 12 2.66634 12H11.9997C12.7361 12 13.333 11.403 13.333 10.6667V5.33333C13.333 4.59695 12.7361 4 11.9997 4H2.66634Z" fill="#1A1A1A"/>
<path d="M13.333 6.6665H13.9997C14.3679 6.6665 14.6663 6.96498 14.6663 7.33317V8.6665C14.6663 9.03469 14.3679 9.33317 13.9997 9.33317H13.333V6.6665Z" fill="#1A1A1A"/>
</g>
</svg>
