<svg width="16" height="16" viewBox="0 0 16 16" fill="none" xmlns="http://www.w3.org/2000/svg">
<mask id="mask0_1421_11645" style="mask-type:alpha" maskUnits="userSpaceOnUse" x="0" y="0" width="16" height="16">
<rect width="16" height="16" fill="#D9D9D9"/>
</mask>
<g mask="url(#mask0_1421_11645)">
<rect x="2.66699" y="1.3335" width="10.6667" height="13.3333" rx="2" fill="#B3B3B3"/>
<path fill-rule="evenodd" clip-rule="evenodd" d="M7.03553 3.40388C7.26138 3.29095 7.53166 3.31532 7.73367 3.46683L10.4003 5.46683C10.5621 5.58816 10.6601 5.77636 10.6667 5.97846C10.6732 6.18057 10.5877 6.37474 10.4342 6.50634L8.6914 8.00017L10.4342 9.494C10.5877 9.62559 10.6732 9.81977 10.6667 10.0219C10.6601 10.224 10.5621 10.4122 10.4003 10.5335L7.73367 12.5335C7.53166 12.685 7.26138 12.7094 7.03553 12.5965C6.80967 12.4835 6.667 12.2527 6.667 12.0002V9.73536L5.76753 10.5063C5.48798 10.746 5.06711 10.7136 4.8275 10.434C4.58789 10.1545 4.62026 9.73361 4.89981 9.494L6.64261 8.00017L4.89981 6.50634C4.62026 6.26672 4.58789 5.84586 4.8275 5.56631C5.06711 5.28676 5.48798 5.25438 5.76753 5.494L6.667 6.26497V4.00017C6.667 3.74765 6.80967 3.51681 7.03553 3.40388ZM8.00034 9.16393L8.93548 9.96548L8.00034 10.6668V9.16393ZM8.00034 6.8364V5.3335L8.93548 6.03485L8.00034 6.8364Z" fill="#F4F4F4"/>
</g>
</svg>
