<svg width="24" height="24" viewBox="0 0 24 24" fill="none" xmlns="http://www.w3.org/2000/svg">
<circle cx="12" cy="12" r="12" fill="#F4F4F4"/>
<path d="M11.8835 6.836C12.3875 6.836 12.8402 6.90133 13.2415 7.032C13.6428 7.15333 13.9835 7.33067 14.2635 7.564C14.5435 7.788 14.7582 8.05867 14.9075 8.376C15.0568 8.69333 15.1315 9.04333 15.1315 9.426V9.58C15.1315 9.804 15.1035 10.0187 15.0475 10.224C15.0008 10.42 14.9122 10.6207 14.7815 10.826C14.6602 11.0313 14.4875 11.2507 14.2635 11.484C14.0488 11.7173 13.7782 11.9833 13.4515 12.282C13.2462 12.4687 13.0828 12.632 12.9615 12.772C12.8402 12.9027 12.7468 13.0287 12.6815 13.15C12.6162 13.262 12.5742 13.3787 12.5555 13.5C12.5368 13.612 12.5275 13.7427 12.5275 13.892C12.5275 14.1067 12.4435 14.2747 12.2755 14.396C12.1168 14.5173 11.9302 14.578 11.7155 14.578C11.4822 14.578 11.2815 14.522 11.1135 14.41C10.9455 14.2887 10.8615 14.102 10.8615 13.85C10.8615 13.6073 10.8755 13.388 10.9035 13.192C10.9315 12.996 10.9828 12.8093 11.0575 12.632C11.1415 12.4453 11.2582 12.2633 11.4075 12.086C11.5662 11.8993 11.7715 11.694 12.0235 11.47C12.3128 11.218 12.5415 11.008 12.7095 10.84C12.8868 10.6627 13.0222 10.504 13.1155 10.364C13.2088 10.224 13.2695 10.098 13.2975 9.986C13.3255 9.86467 13.3395 9.734 13.3395 9.594V9.524C13.3395 9.37467 13.3115 9.23467 13.2555 9.104C13.1995 8.97333 13.1108 8.85667 12.9895 8.754C12.8775 8.65133 12.7235 8.572 12.5275 8.516C12.3408 8.45067 12.1075 8.418 11.8275 8.418C11.4542 8.418 11.1275 8.474 10.8475 8.586C10.5675 8.698 10.3015 8.84267 10.0495 9.02C9.86285 9.15067 9.67618 9.19733 9.48952 9.16C9.31218 9.11333 9.15818 9.00133 9.02752 8.824C8.89685 8.656 8.83152 8.46933 8.83152 8.264C8.84085 8.04933 8.93885 7.872 9.12552 7.732C9.47085 7.46133 9.86752 7.24667 10.3155 7.088C10.7728 6.92 11.2955 6.836 11.8835 6.836ZM11.7015 15.516C12.0002 15.516 12.2522 15.6187 12.4575 15.824C12.6628 16.0293 12.7655 16.2813 12.7655 16.58C12.7655 16.8787 12.6628 17.1307 12.4575 17.336C12.2522 17.5413 12.0002 17.644 11.7015 17.644C11.4028 17.644 11.1508 17.5413 10.9455 17.336C10.7402 17.1307 10.6375 16.8787 10.6375 16.58C10.6375 16.2813 10.7402 16.0293 10.9455 15.824C11.1508 15.6187 11.4028 15.516 11.7015 15.516Z" fill="#808080"/>
</svg>
