<svg width="17" height="16" viewBox="0 0 17 16" fill="none" xmlns="http://www.w3.org/2000/svg">
<mask id="mask0_2125_11119" style="mask-type:alpha" maskUnits="userSpaceOnUse" x="0" y="0" width="17" height="16">
<rect x="0.5" width="16" height="16" fill="#D9D9D9"/>
</mask>
<g mask="url(#mask0_2125_11119)">
<path fill-rule="evenodd" clip-rule="evenodd" d="M8.49967 2C8.86786 2 9.16634 2.29848 9.16634 2.66667V13.3333C9.16634 13.7015 8.86786 14 8.49967 14C8.13148 14 7.83301 13.7015 7.83301 13.3333V2.66667C7.83301 2.29848 8.13148 2 8.49967 2Z" fill="#1A1A1A"/>
<path fill-rule="evenodd" clip-rule="evenodd" d="M14.5 7.99992C14.5 8.36811 14.2015 8.66659 13.8333 8.66659L3.16667 8.66659C2.79848 8.66659 2.5 8.36811 2.5 7.99992C2.5 7.63173 2.79848 7.33325 3.16667 7.33325L13.8333 7.33325C14.2015 7.33325 14.5 7.63173 14.5 7.99992Z" fill="#1A1A1A"/>
</g>
</svg>
