<svg width="24" height="24" viewBox="0 0 24 24" fill="none" xmlns="http://www.w3.org/2000/svg">
<g clip-path="url(#clip0_1323_14438)">
<mask id="mask0_1323_14438" style="mask-type:luminance" maskUnits="userSpaceOnUse" x="0" y="0" width="24" height="24">
<path d="M24 0H0V24H24V0Z" fill="white"/>
</mask>
<g mask="url(#mask0_1323_14438)">
<path d="M19.9902 10C19.9902 14.42 14.9902 22 11.9902 22C8.99023 22 3.99023 14.41 3.99023 10C3.99023 5.59 7.57023 2 11.9902 2C16.4102 2 19.9902 5.58 19.9902 10Z" fill="#1F5FFF"/>
<path d="M11.9902 13C13.9232 13 15.4902 11.433 15.4902 9.5C15.4902 7.567 13.9232 6 11.9902 6C10.0572 6 8.49023 7.567 8.49023 9.5C8.49023 11.433 10.0572 13 11.9902 13Z" fill="#EFF5FF"/>
</g>
</g>
<defs>
<clipPath id="clip0_1323_14438">
<rect width="24" height="24" fill="white"/>
</clipPath>
</defs>
</svg>
