<svg width="24" height="24" viewBox="0 0 24 24" fill="none" xmlns="http://www.w3.org/2000/svg">
<mask id="mask0_2112_14093" style="mask-type:alpha" maskUnits="userSpaceOnUse" x="0" y="0" width="24" height="24">
<rect width="24" height="24" fill="#D9D9D9"/>
</mask>
<g mask="url(#mask0_2112_14093)">
<path d="M4 6H20" stroke="#1F5FFF" stroke-width="2"/>
<path d="M4 12H20" stroke="#1F5FFF" stroke-width="2"/>
<path d="M4 18H20" stroke="#1F5FFF" stroke-width="2"/>
<path d="M18 8C19.1046 8 20 7.10457 20 6C20 4.89543 19.1046 4 18 4C16.8954 4 16 4.89543 16 6C16 7.10457 16.8954 8 18 8Z" fill="white" stroke="#1F5FFF" stroke-width="2"/>
<path d="M6 14C7.10457 14 8 13.1046 8 12C8 10.8954 7.10457 10 6 10C4.89543 10 4 10.8954 4 12C4 13.1046 4.89543 14 6 14Z" fill="white" stroke="#1F5FFF" stroke-width="2"/>
<path d="M18 20C19.1046 20 20 19.1046 20 18C20 16.8954 19.1046 16 18 16C16.8954 16 16 16.8954 16 18C16 19.1046 16.8954 20 18 20Z" fill="white" stroke="#1F5FFF" stroke-width="2"/>
</g>
</svg>
