<svg width="24" height="24" viewBox="0 0 24 24" fill="none" xmlns="http://www.w3.org/2000/svg">
<g clip-path="url(#clip0_1323_14424)">
<mask id="mask0_1323_14424" style="mask-type:luminance" maskUnits="userSpaceOnUse" x="0" y="0" width="24" height="24">
<path d="M24 0H0V24H24V0Z" fill="white"/>
</mask>
<g mask="url(#mask0_1323_14424)">
<path d="M12.7799 16.5201C12.5799 16.7601 12.2899 16.9001 11.9899 16.9001C11.9399 16.9001 11.8899 16.9001 11.8499 16.9001C11.4899 16.8501 11.1899 16.6101 11.0599 16.2801L8.98986 11.0701L7.91986 13.7401C7.76986 14.1201 7.39986 14.3701 6.98986 14.3701H3.60986C3.60986 14.3701 3.63987 14.4101 3.65987 14.4301L10.5499 21.3201C11.3299 22.1001 12.5999 22.1001 13.3799 21.3201L20.3299 14.3701H14.4699L12.7799 16.5301V16.5201Z" fill="#1F5FFF"/>
<path d="M20.4498 5.76006C18.1098 3.41006 14.2998 3.41006 11.9598 5.76006C10.7898 4.58006 9.24979 3.99006 7.71979 4.00006C6.23979 4.00006 4.76979 4.54006 3.60979 5.62006C1.74979 7.37006 1.34979 10.0901 2.28979 12.3601H6.30979L8.05979 7.99006C8.20979 7.61006 8.57979 7.36006 8.98979 7.36006C9.39979 7.36006 9.76979 7.61006 9.91979 7.99006L12.2798 13.9201L13.1998 12.7401C13.3898 12.5001 13.6798 12.3601 13.9898 12.3601H21.7198C22.0498 11.6001 22.2098 10.8001 22.1998 10.0001C22.2098 8.46006 21.6198 6.93006 20.4498 5.76006Z" fill="#1F5FFF"/>
<path d="M20.3296 14.36L20.4496 14.24L20.3296 14.36Z" fill="#F4F4F4"/>
<path d="M13.1996 12.7399L12.2796 13.9199L9.91955 7.98986C9.76955 7.60986 9.39955 7.35986 8.98955 7.35986C8.57955 7.35986 8.20955 7.60986 8.05955 7.98986L6.30955 12.3599H2.28955C2.58955 13.0899 3.02955 13.7699 3.60955 14.3599H6.98955C7.39955 14.3599 7.76955 14.1099 7.91955 13.7299L8.98955 11.0599L11.0596 16.2699C11.1896 16.5999 11.4896 16.8399 11.8496 16.8899C11.8896 16.8899 11.9396 16.8899 11.9896 16.8899C12.2896 16.8899 12.5796 16.7499 12.7796 16.5099L14.4696 14.3499H20.3296L20.4496 14.2299C21.0096 13.6699 21.4296 13.0299 21.7196 12.3499H13.9896C13.6796 12.3499 13.3896 12.4899 13.1996 12.7299V12.7399Z" fill="#F4F4F4"/>
</g>
</g>
<defs>
<clipPath id="clip0_1323_14424">
<rect width="24" height="24" fill="white"/>
</clipPath>
</defs>
</svg>
