<svg width="24" height="24" viewBox="0 0 24 24" fill="none" xmlns="http://www.w3.org/2000/svg">
<mask id="mask0_1323_14431" style="mask-type:luminance" maskUnits="userSpaceOnUse" x="0" y="0" width="24" height="24">
<path d="M24 0H0V24H24V0Z" fill="white"/>
</mask>
<g mask="url(#mask0_1323_14431)">
<path d="M20.0098 13.53C19.8298 10.09 17.8398 7.17996 16.7398 5.81996C16.3698 5.35996 15.6798 5.33996 15.2598 5.74996L13.8698 7.14996C13.5498 7.45996 13.0198 7.23996 13.0198 6.78996V2.68996C13.0198 1.91996 12.1698 1.42996 11.4998 1.82996C3.11983 6.82996 4.01984 14 4.01984 14C4.01984 18.42 7.59984 22 12.0198 22C16.4398 22 20.0198 18.42 20.0198 14C20.0198 13.84 20.0198 13.69 20.0098 13.53ZM11.9998 18.66C10.4398 18.66 9.16984 17.39 9.16984 15.83C9.16984 14.27 10.4398 11 11.9998 11C13.5598 11 14.8298 14.27 14.8298 15.83C14.8298 17.39 13.5598 18.66 11.9998 18.66Z" fill="#1F5FFF"/>
<path d="M14.8299 15.83C14.8299 17.39 13.5599 18.66 11.9999 18.66C10.4399 18.66 9.16992 17.39 9.16992 15.83C9.16992 14.27 10.4399 11 11.9999 11C13.5599 11 14.8299 14.27 14.8299 15.83Z" fill="#EFF5FF"/>
</g>
</svg>
