<svg width="96" height="96" viewBox="0 0 96 96" fill="none" xmlns="http://www.w3.org/2000/svg">
<path d="M96 48C96 74.5097 74.5097 96 48 96C21.4903 96 0 74.5097 0 48C0 21.4903 21.4903 0 48 0C74.5097 0 96 21.4903 96 48Z" fill="#1F5FFF"/>
<mask id="mask0_2062_13366" style="mask-type:alpha" maskUnits="userSpaceOnUse" x="16" y="14" width="65" height="66">
<rect x="16.1836" y="14.8359" width="64.7387" height="64.7387" fill="#D9D9D9"/>
</mask>
<g mask="url(#mask0_2062_13366)">
<path fill-rule="evenodd" clip-rule="evenodd" d="M35.0664 33.7177C35.0664 26.2689 41.1048 20.2305 48.5536 20.2305C56.0024 20.2305 62.0409 26.2689 62.0409 33.7177V55.2973H56.646V33.7177C56.646 29.2484 53.0229 25.6254 48.5536 25.6254C44.0844 25.6254 40.4613 29.2484 40.4613 33.7177V55.2973H35.0664V33.7177Z" fill="white"/>
<path d="M26.9736 47.2045C26.9736 44.2249 29.389 41.8096 32.3685 41.8096H64.7379C67.7174 41.8096 70.1328 44.2249 70.1328 47.2045V68.784C70.1328 71.7635 67.7174 74.1789 64.7379 74.1789H32.3685C29.389 74.1789 26.9736 71.7635 26.9736 68.784V47.2045Z" fill="white"/>
<path fill-rule="evenodd" clip-rule="evenodd" d="M51.2505 59.9704C52.8631 59.0376 53.948 57.2941 53.948 55.2972C53.948 52.3177 51.5326 49.9023 48.5531 49.9023C45.5736 49.9023 43.1582 52.3177 43.1582 55.2972C43.1582 57.2941 44.2431 59.0376 45.8556 59.9704V63.3896C45.8556 64.8793 47.0633 66.087 48.5531 66.087C50.0429 66.087 51.2505 64.8793 51.2505 63.3896V59.9704Z" fill="#1F5FFF"/>
</g>
</svg>
