<svg width="24" height="24" viewBox="0 0 24 24" fill="none" xmlns="http://www.w3.org/2000/svg">
<g clip-path="url(#clip0_1323_14445)">
<mask id="mask0_1323_14445" style="mask-type:luminance" maskUnits="userSpaceOnUse" x="0" y="0" width="24" height="24">
<path d="M24 0H0V24H24V0Z" fill="white"/>
</mask>
<g mask="url(#mask0_1323_14445)">
<path d="M8.98042 11.83L6.08042 15.53C4.02042 18.16 5.89042 22 9.23042 22H15.3104C18.7304 22 20.5704 17.99 18.3404 15.39L15.1704 11.7C13.5304 9.79004 10.5504 9.85004 8.99042 11.83H8.98042Z" fill="#1F5FFF"/>
<path d="M11.9902 9C13.6471 9 14.9902 7.65685 14.9902 6C14.9902 4.34315 13.6471 3 11.9902 3C10.3334 3 8.99023 4.34315 8.99023 6C8.99023 7.65685 10.3334 9 11.9902 9Z" fill="#1F5FFF"/>
<path d="M4.99023 13C6.64709 13 7.99023 11.6569 7.99023 10C7.99023 8.34315 6.64709 7 4.99023 7C3.33338 7 1.99023 8.34315 1.99023 10C1.99023 11.6569 3.33338 13 4.99023 13Z" fill="#1F5FFF"/>
<path d="M18.9902 13C20.6471 13 21.9902 11.6569 21.9902 10C21.9902 8.34315 20.6471 7 18.9902 7C17.3334 7 15.9902 8.34315 15.9902 10C15.9902 11.6569 17.3334 13 18.9902 13Z" fill="#1F5FFF"/>
</g>
</g>
<defs>
<clipPath id="clip0_1323_14445">
<rect width="24" height="24" fill="white"/>
</clipPath>
</defs>
</svg>
