<svg width="32" height="32" viewBox="0 0 32 32" fill="none" xmlns="http://www.w3.org/2000/svg">
<circle cx="16" cy="16" r="16" fill="#B3B3B3"/>
<mask id="mask0_1974_16314" style="mask-type:luminance" maskUnits="userSpaceOnUse" x="0" y="0" width="32" height="32">
<path d="M16 32C24.8366 32 32 24.8366 32 16C32 7.16344 24.8366 0 16 0C7.16344 0 0 7.16344 0 16C0 24.8366 7.16344 32 16 32Z" fill="white"/>
</mask>
<g mask="url(#mask0_1974_16314)">
<path d="M46.0404 36.3521C43.0164 42.4481 35.6164 44.9441 29.5124 41.9121C26.3364 40.3361 24.1364 37.5681 23.1924 34.4241C23.7044 34.8001 24.2484 35.1441 24.8324 35.4401C30.8564 38.5601 38.3684 36.1761 41.4724 30.1361C42.3684 28.3921 42.8084 26.5281 42.8404 24.6961C42.8564 23.4161 44.5124 22.9201 45.2244 23.9761C47.6164 27.5361 48.0884 32.2401 46.0404 36.3521Z" fill="#E4E4E4"/>
<path d="M8.93622 12.2156V40.0556C8.93622 41.7916 10.3442 43.1996 12.0802 43.1996H34.0962C39.2802 43.1996 42.2402 37.2796 39.1282 33.1356L25.9602 15.5756L20.5362 8.34362C20.0162 7.64761 19.4162 7.10361 18.7602 6.69561C14.7682 4.19161 8.92822 6.87962 8.92822 12.2076L8.93622 12.2156Z" fill="#E4E4E4"/>
<path d="M16.6558 6.45609L16.1278 6.28809C16.1278 6.20809 16.0638 4.20809 13.3598 4.20809C13.1998 4.20809 13.0718 4.08009 13.0718 3.92009C13.0718 3.76009 13.1998 3.63209 13.3598 3.63209C15.3278 3.63209 16.1358 4.56809 16.4718 5.32809C16.4958 5.15209 16.5038 4.96009 16.4718 4.75209C16.3598 4.09609 15.9038 3.48809 15.1198 2.92809C14.9918 2.83209 14.9598 2.65609 15.0478 2.52009C15.1438 2.39209 15.3198 2.36009 15.4558 2.44809C16.3758 3.09609 16.9118 3.84009 17.0478 4.65609C17.2158 5.67209 16.6798 6.42409 16.6558 6.44809V6.45609Z" fill="#E4E4E4"/>
<path d="M15.0234 13.9522C15.0234 14.8002 14.7354 15.2242 14.1594 15.2242C13.5834 15.2242 13.2954 14.8002 13.2954 13.9522C13.2954 13.2482 13.6794 12.6802 14.1594 12.6802C14.6394 12.6802 15.0234 13.2482 15.0234 13.9522Z" fill="#B3B3B3"/>
<path d="M12.7036 13.9522C12.7036 14.8002 12.4156 15.2242 11.8396 15.2242C11.2636 15.2242 10.9756 14.8002 10.9756 13.9522C10.9756 13.2482 11.3596 12.6802 11.8396 12.6802C12.3196 12.6802 12.7036 13.2482 12.7036 13.9522Z" fill="#B3B3B3"/>
<path d="M15.0234 12.2002C14.9274 12.2002 14.8394 12.1522 14.7834 12.0642C14.7754 12.0482 14.5194 11.6802 14.0154 11.6802C13.5114 11.6802 13.2554 12.0482 13.2474 12.0642C13.1914 12.1442 13.1034 12.1922 13.0074 12.1922C12.9114 12.1922 12.8154 12.1442 12.7674 12.0642C12.7594 12.0482 12.5034 11.6802 11.9994 11.6802C11.4954 11.6802 11.2394 12.0482 11.2314 12.0642C11.1434 12.1922 10.9594 12.2322 10.8314 12.1442C10.6954 12.0562 10.6634 11.8802 10.7514 11.7442C10.7674 11.7202 11.1834 11.0962 12.0074 11.0962C12.4794 11.0962 12.8154 11.2962 13.0154 11.4802C13.2234 11.3042 13.5594 11.0962 14.0234 11.0962C14.8474 11.0962 15.2634 11.7202 15.2794 11.7442C15.3674 11.8802 15.3274 12.0562 15.1914 12.1442C15.1434 12.1762 15.0874 12.1922 15.0314 12.1922L15.0234 12.2002Z" fill="#B3B3B3"/>
<path d="M18.8232 6.70361V21.2556C18.8232 23.2396 20.4312 24.8556 22.4232 24.8556C24.4152 24.8556 26.0232 23.2476 26.0232 21.2556V15.5836L20.5992 8.35161C20.0792 7.65561 19.4792 7.11161 18.8232 6.70361Z" fill="#B3B3B3"/>
<path d="M8.93587 15.8081H5.76787C5.58387 15.8081 5.40787 15.8561 5.26387 15.9521C5.08787 16.0561 4.95187 16.2241 4.87187 16.4081C4.80787 16.5681 4.78387 16.7441 4.81587 16.9281C5.06387 18.4241 5.79187 19.7601 6.83187 20.7681C8.07187 21.9681 9.75987 22.7041 11.6239 22.7041C15.4319 22.7041 18.5199 19.6161 18.5199 15.8081H8.94387H8.93587Z" fill="#E4E4E4"/>
<path d="M7.99967 16.7837C7.91167 17.7997 7.50367 18.7517 6.83167 19.5277C6.23967 18.8477 5.85567 18.0237 5.71167 17.1277C5.69567 17.0077 5.74367 16.9277 5.77567 16.8877C5.80767 16.8477 5.88767 16.7837 6.00767 16.7837H7.99967Z" fill="#B3B3B3"/>
</g>
</svg>
