<svg width="40" height="40" viewBox="0 0 40 40" fill="none" xmlns="http://www.w3.org/2000/svg">
<circle cx="20" cy="20" r="20" fill="#B3B3B3"/>
<mask id="mask0_1421_11596" style="mask-type:luminance" maskUnits="userSpaceOnUse" x="0" y="0" width="40" height="40">
<path d="M20 40C31.0457 40 40 31.0457 40 20C40 8.9543 31.0457 0 20 0C8.9543 0 0 8.9543 0 20C0 31.0457 8.9543 40 20 40Z" fill="white"/>
</mask>
<g mask="url(#mask0_1421_11596)">
<path d="M57.5502 45.4401C53.7702 53.0601 44.5202 56.1801 36.8902 52.3901C32.9202 50.4201 30.1702 46.9601 28.9902 43.0301C29.6302 43.5001 30.3102 43.9301 31.0402 44.3001C38.5702 48.2001 47.9602 45.2201 51.8402 37.6701C52.9602 35.4901 53.5102 33.1601 53.5502 30.8701C53.5702 29.2701 55.6402 28.6501 56.5302 29.9701C59.5202 34.4201 60.1102 40.3001 57.5502 45.4401Z" fill="#E4E4E4"/>
<path d="M11.1702 15.2699V50.0699C11.1702 52.2399 12.9302 53.9999 15.1002 53.9999H42.6202C49.1002 53.9999 52.8002 46.5999 48.9102 41.4199L32.4502 19.4699L25.6702 10.4299C25.0202 9.55989 24.2702 8.87988 23.4502 8.36988C18.4602 5.23988 11.1602 8.59988 11.1602 15.2599L11.1702 15.2699Z" fill="#E4E4E4"/>
<path d="M20.8198 8.07011L20.1598 7.86011C20.1598 7.76011 20.0798 5.26011 16.6998 5.26011C16.4998 5.26011 16.3398 5.10011 16.3398 4.90011C16.3398 4.70011 16.4998 4.54011 16.6998 4.54011C19.1598 4.54011 20.1698 5.71011 20.5898 6.66011C20.6198 6.44011 20.6298 6.20011 20.5898 5.94011C20.4498 5.12011 19.8798 4.36011 18.8998 3.66011C18.7398 3.54011 18.6998 3.32011 18.8098 3.15011C18.9298 2.99011 19.1498 2.95011 19.3198 3.06011C20.4698 3.87011 21.1398 4.80011 21.3098 5.82011C21.5198 7.09011 20.8498 8.03011 20.8198 8.06011V8.07011Z" fill="#E4E4E4"/>
<path d="M18.7791 17.4401C18.7791 18.5001 18.4191 19.0301 17.6991 19.0301C16.9791 19.0301 16.6191 18.5001 16.6191 17.4401C16.6191 16.5601 17.0991 15.8501 17.6991 15.8501C18.2991 15.8501 18.7791 16.5601 18.7791 17.4401Z" fill="#B3B3B3"/>
<path d="M15.8797 17.4401C15.8797 18.5001 15.5197 19.0301 14.7997 19.0301C14.0797 19.0301 13.7197 18.5001 13.7197 17.4401C13.7197 16.5601 14.1997 15.8501 14.7997 15.8501C15.3997 15.8501 15.8797 16.5601 15.8797 17.4401Z" fill="#B3B3B3"/>
<path d="M18.7795 15.2501C18.6595 15.2501 18.5495 15.1901 18.4795 15.0801C18.4695 15.0601 18.1495 14.6001 17.5195 14.6001C16.8895 14.6001 16.5695 15.0601 16.5595 15.0801C16.4895 15.1801 16.3795 15.2401 16.2595 15.2401C16.1395 15.2401 16.0195 15.1801 15.9595 15.0801C15.9495 15.0601 15.6295 14.6001 14.9995 14.6001C14.3695 14.6001 14.0495 15.0601 14.0395 15.0801C13.9295 15.2401 13.6995 15.2901 13.5395 15.1801C13.3695 15.0701 13.3295 14.8501 13.4395 14.6801C13.4595 14.6501 13.9795 13.8701 15.0095 13.8701C15.5995 13.8701 16.0195 14.1201 16.2695 14.3501C16.5295 14.1301 16.9495 13.8701 17.5295 13.8701C18.5595 13.8701 19.0795 14.6501 19.0995 14.6801C19.2095 14.8501 19.1595 15.0701 18.9895 15.1801C18.9295 15.2201 18.8595 15.2401 18.7895 15.2401L18.7795 15.2501Z" fill="#B3B3B3"/>
<path d="M23.5293 8.37988V26.5699C23.5293 29.0499 25.5393 31.0699 28.0293 31.0699C30.5193 31.0699 32.5293 29.0599 32.5293 26.5699V19.4799L25.7493 10.4399C25.0993 9.56988 24.3493 8.88988 23.5293 8.37988Z" fill="#B3B3B3"/>
<path d="M11.1696 19.7603H7.20959C6.97959 19.7603 6.75959 19.8203 6.57959 19.9403C6.35959 20.0703 6.18959 20.2803 6.08959 20.5103C6.00959 20.7103 5.97959 20.9303 6.01959 21.1603C6.32959 23.0303 7.23959 24.7003 8.53959 25.9603C10.0896 27.4603 12.1996 28.3803 14.5296 28.3803C19.2896 28.3803 23.1496 24.5203 23.1496 19.7603H11.1796H11.1696Z" fill="#E4E4E4"/>
<path d="M9.99971 20.98C9.88971 22.25 9.37971 23.44 8.53971 24.41C7.79971 23.56 7.31971 22.53 7.13971 21.41C7.11971 21.26 7.17971 21.16 7.21971 21.11C7.25971 21.06 7.35972 20.98 7.50972 20.98H9.99971Z" fill="#B3B3B3"/>
</g>
</svg>
