<svg width="108" height="110" viewBox="0 0 108 110" fill="none" xmlns="http://www.w3.org/2000/svg">
<circle cx="54" cy="56" r="54" fill="#E4E4E4"/>
<mask id="mask0_2373_15512" style="mask-type:alpha" maskUnits="userSpaceOnUse" x="0" y="2" width="108" height="108">
<path d="M108 56C108 72.92 100.2 88.04 87.96 97.94C78.72 105.5 66.84 110 54 110C41.16 110 29.4 105.5 20.16 98C7.86 88.16 0 72.98 0 56C0 26.18 24.18 2 54 2C83.82 2 108 26.18 108 56Z" fill="#FF0000"/>
</mask>
<g mask="url(#mask0_2373_15512)">
<path d="M54.0586 61.9995C63.9997 61.9995 72.0586 53.9406 72.0586 43.9995C72.0586 34.0584 63.9997 25.9995 54.0586 25.9995C44.1175 25.9995 36.0586 34.0584 36.0586 43.9995C36.0586 53.9406 44.1175 61.9995 54.0586 61.9995Z" fill="#F4F4F4"/>
<path d="M87.9592 97.9395C78.7192 105.5 66.8392 110 53.9992 110C41.1592 110 29.3992 105.5 20.1592 97.9995C25.0192 84.0195 38.3992 73.9995 54.0592 73.9995C69.7192 73.9995 83.0392 84.0195 87.9592 97.9395Z" fill="#F4F4F4"/>
</g>
<rect x="77" y="1" width="26" height="26" rx="13" fill="white"/>
<rect x="77" y="1" width="26" height="26" rx="13" stroke="#E4E4E4" stroke-width="2"/>
<mask id="mask1_2373_15512" style="mask-type:alpha" maskUnits="userSpaceOnUse" x="82" y="6" width="16" height="16">
<rect x="82" y="6" width="16" height="16" fill="#D9D9D9"/>
</mask>
<g mask="url(#mask1_2373_15512)">
<path fill-rule="evenodd" clip-rule="evenodd" d="M90.0002 8C90.3684 8 90.6668 8.29848 90.6668 8.66667V19.3333C90.6668 19.7015 90.3684 20 90.0002 20C89.632 20 89.3335 19.7015 89.3335 19.3333V8.66667C89.3335 8.29848 89.632 8 90.0002 8Z" fill="#E4E4E4"/>
<path fill-rule="evenodd" clip-rule="evenodd" d="M96 14.0002C96 14.3684 95.7015 14.6668 95.3333 14.6668L84.6667 14.6668C84.2985 14.6668 84 14.3684 84 14.0002C84 13.632 84.2985 13.3335 84.6667 13.3335L95.3333 13.3335C95.7015 13.3335 96 13.632 96 14.0002Z" fill="#E4E4E4"/>
</g>
</svg>
