<svg width="40" height="40" viewBox="0 0 40 40" fill="none" xmlns="http://www.w3.org/2000/svg">
<circle cx="20" cy="20" r="20" fill="#E4E4E4"/>
<mask id="mask0_2339_15670" style="mask-type:alpha" maskUnits="userSpaceOnUse" x="0" y="0" width="40" height="40">
<path d="M40 20C40 26.2667 37.1111 31.8667 32.5778 35.5333C29.1556 38.3333 24.7556 40 20 40C15.2444 40 10.8889 38.3333 7.46667 35.5556C2.91111 31.9111 0 26.2889 0 20C0 8.95556 8.95556 0 20 0C31.0444 0 40 8.95556 40 20Z" fill="#FF0000"/>
</mask>
<g mask="url(#mask0_2339_15670)">
<path d="M20.0216 22.222C23.7035 22.222 26.6883 19.2372 26.6883 15.5553C26.6883 11.8734 23.7035 8.88867 20.0216 8.88867C16.3397 8.88867 13.355 11.8734 13.355 15.5553C13.355 19.2372 16.3397 22.222 20.0216 22.222Z" fill="#F4F4F4"/>
<path d="M32.5774 35.5332C29.1552 38.3332 24.7552 39.9998 19.9996 39.9998C15.2441 39.9998 10.8885 38.3332 7.46631 35.5554C9.26631 30.3776 14.2219 26.6665 20.0219 26.6665C25.8219 26.6665 30.7552 30.3776 32.5774 35.5332Z" fill="#F4F4F4"/>
</g>
</svg>
