<svg width="16" height="16" viewBox="0 0 16 16" fill="none" xmlns="http://www.w3.org/2000/svg">
<circle cx="8" cy="8" r="8" fill="#FF5252"/>
<path d="M7.99844 9.94C8.21177 9.94 8.39177 10.0133 8.53844 10.16C8.6851 10.3067 8.75844 10.4867 8.75844 10.7C8.75844 10.9133 8.6851 11.0933 8.53844 11.24C8.39177 11.3867 8.21177 11.46 7.99844 11.46C7.7851 11.46 7.6051 11.3867 7.45844 11.24C7.31177 11.0933 7.23844 10.9133 7.23844 10.7C7.23844 10.4867 7.31177 10.3067 7.45844 10.16C7.6051 10.0133 7.7851 9.94 7.99844 9.94ZM7.99844 3.54C8.21177 3.54 8.38177 3.58667 8.50844 3.68C8.64177 3.77333 8.7051 3.93 8.69844 4.15L8.53844 8.72C8.53177 8.92667 8.47177 9.07 8.35844 9.15C8.25177 9.23 8.13177 9.27 7.99844 9.27C7.8651 9.27 7.74177 9.23 7.62844 9.15C7.52177 9.07 7.4651 8.92667 7.45844 8.72L7.29844 4.15C7.29177 3.93 7.35177 3.77333 7.47844 3.68C7.61177 3.58667 7.7851 3.54 7.99844 3.54Z" fill="white"/>
</svg>
