<svg width="360" height="260" viewBox="0 0 360 260" fill="none" xmlns="http://www.w3.org/2000/svg">
<g clip-path="url(#clip0_2373_16353)">
<path d="M360 0H0V230.663H360V0Z" fill="#ABC6FA"/>
<path d="M360 204.356H0V219.35H360V204.356Z" fill="#88A6F2"/>
<path d="M106.873 252.767H104.807V254.993H106.873V252.767Z" fill="#3765ED"/>
<path d="M360 237.613V260H111.076C106.99 258.403 104.81 256.727 104.81 254.993C104.81 254.62 104.913 254.247 105.113 253.88C110.566 243.853 189.136 235.903 285.26 235.903C311.92 235.903 337.226 236.513 360 237.613Z" fill="#3765ED"/>
<path d="M175.16 18.3101H49.2738C47.4328 18.3101 45.9404 19.8024 45.9404 21.6434V217.227C45.9404 219.068 47.4328 220.56 49.2738 220.56H175.16C177.001 220.56 178.494 219.068 178.494 217.227V21.6434C178.494 19.8024 177.001 18.3101 175.16 18.3101Z" fill="#698DF0"/>
<path d="M164.913 33.2336V205.637H59.5231V33.2336H164.913ZM169.58 28.5669H54.8564V210.304H169.58V28.5669Z" fill="#284FCB"/>
<path d="M108.59 44.5498H68.8633V106.1H108.59V44.5498Z" fill="#4971D6"/>
<path d="M155.573 44.5498H115.847V106.1H155.573V44.5498Z" fill="#4971D6"/>
<path d="M108.59 132.553H68.8633V194.103H108.59V132.553Z" fill="#4971D6"/>
<path d="M155.573 132.553H115.847V194.103H155.573V132.553Z" fill="#4971D6"/>
<path d="M161.63 119.433C161.63 122.633 159.036 125.227 155.836 125.227C153.906 125.227 152.2 124.287 151.15 122.837C150.453 121.883 150.043 120.703 150.043 119.433C150.043 116.233 152.636 113.64 155.836 113.64C157.106 113.64 158.283 114.05 159.24 114.747C160.69 115.8 161.63 117.507 161.63 119.433Z" fill="#BFD2EF"/>
<path d="M160.343 118.15C160.343 121.35 157.75 123.943 154.55 123.943C153.28 123.943 152.103 123.533 151.147 122.837C150.45 121.883 150.04 120.703 150.04 119.433C150.04 116.233 152.633 113.64 155.833 113.64C157.103 113.64 158.28 114.05 159.237 114.747C159.933 115.7 160.343 116.88 160.343 118.15Z" fill="#DCE8FF"/>
<path d="M155.837 118.223C155.167 118.223 154.627 118.766 154.627 119.433C154.627 120.1 155.17 120.643 155.837 120.643C156.504 120.643 157.047 120.1 157.047 119.433C157.047 118.766 156.504 118.223 155.837 118.223Z" fill="#284FCB"/>
<g filter="url(#filter0_d_2373_16353)">
<path d="M128.397 106.88L113.657 80.4765C112.93 79.1765 111.503 79.1765 110.78 80.4765L96.04 106.88" stroke="#104499" stroke-width="4" stroke-miterlimit="10"/>
<path d="M137.43 99.1665H87.0065C83.3246 99.1665 80.3398 102.151 80.3398 105.833V131.65C80.3398 135.332 83.3246 138.317 87.0065 138.317H137.43C141.112 138.317 144.097 135.332 144.097 131.65V105.833C144.097 102.151 141.112 99.1665 137.43 99.1665Z" fill="#ABC6FA"/>
<path d="M137.576 102.297C139.273 102.297 140.656 103.68 140.656 105.377V132.107C140.656 133.803 139.273 135.187 137.576 135.187H86.8596C85.163 135.187 83.7796 133.803 83.7796 132.107V105.377C83.7796 103.68 85.163 102.297 86.8596 102.297H137.576ZM137.576 100.963H86.8596C84.423 100.963 82.4463 102.94 82.4463 105.377V132.107C82.4463 134.543 84.423 136.52 86.8596 136.52H137.576C140.013 136.52 141.99 134.543 141.99 132.107V105.377C141.99 102.94 140.013 100.963 137.576 100.963Z" fill="#698DF0"/>
<path d="M94.4598 120.487C94.2498 120.487 94.0932 120.413 93.9898 120.267C93.8898 120.12 93.8398 119.947 93.8398 119.743C93.8398 119.54 93.8898 119.367 93.9898 119.22C94.0898 119.073 94.2465 119 94.4598 119H104.883C105.093 119 105.25 119.073 105.353 119.22C105.453 119.367 105.503 119.543 105.503 119.743C105.503 119.943 105.453 120.12 105.353 120.267C105.253 120.413 105.097 120.487 104.883 120.487H100.553V123.973C100.553 124.23 100.463 124.42 100.283 124.54C100.103 124.66 99.8999 124.72 99.6699 124.72C99.4399 124.72 99.2365 124.66 99.0565 124.54C98.8765 124.42 98.7865 124.233 98.7865 123.973V120.487H94.4565H94.4598ZM104.003 116.653C104.003 117.087 103.917 117.383 103.747 117.55C103.577 117.717 103.27 117.797 102.83 117.797H96.5165C96.0765 117.797 95.7698 117.713 95.5998 117.55C95.4298 117.383 95.3432 117.087 95.3432 116.653V112.793C95.3432 112.553 95.4332 112.377 95.6132 112.257C95.7932 112.137 95.9865 112.077 96.1998 112.077C96.4132 112.077 96.6198 112.137 96.7998 112.257C96.9798 112.377 97.0698 112.557 97.0698 112.793V113.717H102.28V112.793C102.28 112.553 102.37 112.377 102.55 112.257C102.73 112.137 102.923 112.077 103.137 112.077C103.35 112.077 103.557 112.137 103.737 112.257C103.917 112.377 104.007 112.557 104.007 112.793V116.653H104.003ZM102.07 116.323C102.207 116.323 102.277 116.253 102.277 116.117V115.193H97.0665V116.117C97.0665 116.253 97.1365 116.323 97.2732 116.323H102.07Z" fill="#284FCB"/>
<path d="M110.453 114.24V115.303C110.453 115.57 110.466 115.816 110.493 116.04C110.519 116.266 110.563 116.473 110.623 116.666C110.683 116.86 110.759 117.046 110.856 117.223C110.953 117.403 111.073 117.58 111.223 117.753C111.443 118.02 111.659 118.263 111.869 118.483C112.079 118.703 112.259 118.893 112.406 119.05C112.563 119.216 112.633 119.406 112.613 119.623C112.593 119.84 112.513 120.02 112.366 120.166C112.209 120.323 112.029 120.406 111.823 120.413C111.616 120.423 111.433 120.35 111.279 120.193C111.179 120.093 111.043 119.953 110.873 119.773C110.703 119.593 110.526 119.4 110.343 119.186C110.059 118.873 109.869 118.626 109.776 118.443C109.683 118.26 109.623 118.1 109.596 117.96H109.583C109.563 118.116 109.506 118.29 109.403 118.483C109.303 118.676 109.109 118.933 108.823 119.256C108.639 119.466 108.456 119.67 108.273 119.863C108.089 120.056 107.893 120.26 107.679 120.47C107.523 120.626 107.336 120.693 107.113 120.67C106.889 120.646 106.713 120.566 106.576 120.43C106.419 120.273 106.329 120.086 106.306 119.873C106.283 119.656 106.353 119.463 106.519 119.286C106.776 119.02 107.023 118.766 107.256 118.52C107.489 118.276 107.719 118.02 107.939 117.753C108.086 117.58 108.209 117.403 108.306 117.223C108.403 117.043 108.479 116.856 108.539 116.666C108.599 116.473 108.643 116.263 108.669 116.04C108.696 115.813 108.709 115.57 108.709 115.303V114.24H107.109C106.899 114.24 106.743 114.166 106.639 114.02C106.539 113.873 106.486 113.7 106.486 113.496C106.486 113.293 106.536 113.106 106.639 112.96C106.739 112.813 106.896 112.74 107.109 112.74H111.906C112.116 112.74 112.273 112.813 112.376 112.96C112.476 113.106 112.529 113.286 112.529 113.496C112.529 113.706 112.479 113.873 112.376 114.02C112.276 114.166 112.119 114.24 111.906 114.24H110.446H110.453ZM114.616 115.853H115.719V112.393C115.719 112.153 115.803 111.98 115.966 111.87C116.133 111.76 116.319 111.703 116.533 111.703C116.746 111.703 116.933 111.76 117.099 111.87C117.266 111.98 117.346 112.153 117.346 112.393V123.063C117.346 123.303 117.263 123.476 117.099 123.586C116.933 123.696 116.746 123.753 116.533 123.753C116.319 123.753 116.133 123.696 115.966 123.586C115.799 123.476 115.719 123.303 115.719 123.063V117.343H114.616V122.486C114.616 122.726 114.533 122.9 114.369 123.01C114.203 123.12 114.016 123.176 113.803 123.176C113.589 123.176 113.416 123.12 113.253 123.01C113.086 122.9 113.006 122.726 113.006 122.486V112.533C113.006 112.293 113.089 112.12 113.253 112.01C113.419 111.9 113.603 111.843 113.803 111.843C114.003 111.843 114.203 111.9 114.369 112.01C114.536 112.12 114.616 112.293 114.616 112.533V115.856V115.853Z" fill="#284FCB"/>
<path d="M129.99 117.537C130.2 117.537 130.357 117.607 130.454 117.75C130.55 117.893 130.597 118.063 130.597 118.267C130.597 118.47 130.55 118.64 130.454 118.783C130.357 118.927 130.204 118.997 129.99 118.997H125.634V120.777H123.897V118.997H119.54C119.33 118.997 119.174 118.927 119.077 118.783C118.98 118.64 118.934 118.47 118.934 118.267C118.934 118.063 118.98 117.893 119.077 117.75C119.174 117.607 119.327 117.537 119.54 117.537H129.99ZM120.93 113.593C120.72 113.593 120.564 113.523 120.467 113.38C120.37 113.237 120.324 113.067 120.324 112.863C120.324 112.66 120.37 112.49 120.467 112.347C120.564 112.203 120.717 112.133 120.93 112.133H128.597C128.807 112.133 128.964 112.203 129.06 112.347C129.157 112.49 129.204 112.66 129.204 112.863C129.204 113.067 129.157 113.237 129.06 113.38C128.964 113.523 128.81 113.593 128.597 113.593H125.66V113.69C125.66 113.91 125.744 114.1 125.907 114.263C126.074 114.423 126.36 114.583 126.777 114.74C127.65 115.07 128.437 115.343 129.134 115.553C129.327 115.617 129.454 115.743 129.52 115.933C129.584 116.123 129.58 116.307 129.507 116.49C129.434 116.683 129.31 116.823 129.14 116.91C128.97 116.997 128.774 117.01 128.554 116.943C128.25 116.85 127.914 116.74 127.54 116.613C127.167 116.483 126.804 116.357 126.444 116.227C126.13 116.117 125.874 116.01 125.67 115.91C125.467 115.81 125.304 115.713 125.18 115.627C125.057 115.54 124.964 115.453 124.904 115.37C124.844 115.287 124.8 115.203 124.774 115.123H124.76C124.734 115.207 124.69 115.29 124.63 115.38C124.57 115.467 124.48 115.56 124.354 115.657C124.23 115.753 124.064 115.853 123.857 115.953C123.65 116.053 123.39 116.16 123.077 116.27C122.717 116.4 122.354 116.527 121.98 116.657C121.607 116.787 121.27 116.897 120.967 116.987C120.747 117.05 120.55 117.04 120.38 116.953C120.21 116.867 120.087 116.72 120.014 116.52C119.94 116.337 119.934 116.147 119.994 115.947C120.054 115.75 120.184 115.617 120.387 115.553C121.087 115.343 121.87 115.07 122.744 114.74C123.157 114.583 123.447 114.427 123.614 114.263C123.78 114.103 123.86 113.913 123.86 113.69V113.593H120.924H120.93ZM120.42 122.347C120.42 121.923 120.52 121.56 120.717 121.25C120.914 120.943 121.2 120.69 121.577 120.493C121.954 120.297 122.41 120.15 122.94 120.053C123.474 119.957 124.08 119.91 124.76 119.91C125.44 119.91 126.037 119.96 126.574 120.053C127.11 120.15 127.567 120.297 127.947 120.493C128.324 120.69 128.61 120.943 128.807 121.25C129.004 121.557 129.104 121.923 129.104 122.347C129.104 122.77 129.004 123.133 128.807 123.443C128.61 123.75 128.324 124.003 127.947 124.2C127.57 124.397 127.114 124.543 126.574 124.64C126.037 124.737 125.43 124.783 124.76 124.783C124.09 124.783 123.474 124.737 122.94 124.64C122.407 124.543 121.954 124.397 121.577 124.2C121.2 124.003 120.914 123.75 120.717 123.443C120.52 123.137 120.42 122.77 120.42 122.347ZM127.357 122.347C127.357 122.017 127.157 121.76 126.757 121.573C126.357 121.39 125.694 121.297 124.764 121.297C123.834 121.297 123.17 121.39 122.77 121.573C122.37 121.757 122.17 122.013 122.17 122.347C122.17 122.68 122.37 122.933 122.77 123.12C123.17 123.303 123.834 123.397 124.764 123.397C125.694 123.397 126.357 123.303 126.757 123.12C127.157 122.937 127.357 122.68 127.357 122.347Z" fill="#284FCB"/>
</g>
<path d="M112.216 82.7502C114.009 82.7502 115.463 81.2966 115.463 79.5035C115.463 77.7104 114.009 76.2568 112.216 76.2568C110.423 76.2568 108.97 77.7104 108.97 79.5035C108.97 81.2966 110.423 82.7502 112.216 82.7502Z" fill="#ABC6FA"/>
<path d="M360 217.69H0V260H360V217.69Z" fill="#284FCB"/>
<path d="M360 235.39V260H118.213C110.836 258.094 106.286 256.037 105.113 253.88C104.913 253.514 104.81 253.14 104.81 252.767C104.81 242.227 185.6 233.68 285.26 233.68C311.92 233.68 337.226 234.29 360 235.39Z" fill="#698DF0"/>
<path d="M316.447 154.227C323.96 176.523 311.977 200.68 289.68 208.173C278.067 212.077 265.947 210.687 255.94 205.31C258.107 204.983 260.274 204.483 262.424 203.8C284.774 196.713 297.264 172.54 290.09 150.207C288.014 143.743 284.547 138.12 280.13 133.563C277.06 130.397 279.87 125.13 284.2 125.977C298.737 128.827 311.38 139.183 316.447 154.223V154.227Z" fill="black"/>
<path d="M300.037 202.033V218.48C300.037 225.503 294.343 231.2 287.317 231.2C280.29 231.2 274.597 225.5 274.597 218.48V202.033C274.597 195.01 280.293 189.313 287.317 189.313H287.32C294.343 189.313 300.037 195.01 300.037 202.033Z" fill="#E5DCB5"/>
<path d="M300.037 218.48V237.836C300.037 243.256 295.647 247.643 290.23 247.643H279.5C276.793 247.643 274.597 245.446 274.597 242.74V218.48C274.597 211.453 280.293 205.76 287.317 205.76C294.34 205.76 300.037 211.453 300.037 218.48Z" fill="#E5DCB5"/>
<path d="M314.747 203.497C314.747 211.947 311.1 219.99 304.743 225.557L289.53 238.883C283.083 244.53 274.807 247.643 266.237 247.643C246.713 247.643 230.887 231.817 230.887 212.293V198.997L256.103 176.91C262.55 171.263 270.827 168.15 279.397 168.15C298.92 168.15 314.747 183.977 314.747 203.5V203.497Z" fill="#FFF9E1"/>
<path d="M225.813 209.663V234.923C225.813 241.947 220.12 247.643 213.093 247.643C206.066 247.643 200.373 241.943 200.373 234.923V213.45C200.373 209.273 203.763 205.883 207.94 205.883H222.033C223.366 205.883 224.54 206.57 225.21 207.613C225.593 208.2 225.813 208.907 225.813 209.663Z" fill="#E5DCB5"/>
<path d="M213.09 247.644H191.366C187.183 247.644 183.8 244.26 183.8 240.08V229.767C183.8 225.59 187.183 222.2 191.366 222.2H213.09C220.116 222.2 225.81 227.897 225.81 234.92C225.81 241.944 220.116 247.64 213.09 247.64V247.644Z" fill="#E5DCB5"/>
<path d="M246.447 213.874V247.64H206.997C203.71 247.64 200.584 246.977 197.737 245.767C197.31 245.59 196.894 245.4 196.48 245.194V213.874C196.48 200.08 207.667 188.894 221.467 188.894C235.26 188.894 246.447 200.08 246.447 213.874Z" fill="#FFF9E1"/>
<path d="M224.406 191.507L222.593 190.92C222.59 190.63 222.376 183.733 213.046 183.733C212.493 183.733 212.043 183.283 212.043 182.73C212.043 182.177 212.493 181.727 213.046 181.727C219.833 181.727 222.633 184.967 223.79 187.6C223.876 187 223.89 186.323 223.766 185.6C223.383 183.34 221.813 181.223 219.096 179.31C218.643 178.99 218.536 178.363 218.853 177.91C219.173 177.457 219.8 177.347 220.253 177.667C223.44 179.913 225.29 182.483 225.753 185.307C226.33 188.83 224.486 191.403 224.406 191.51V191.507Z" fill="#FFF9E1"/>
<path d="M230.81 223.82C230.81 236.976 220.144 247.643 206.997 247.643C203.71 247.643 200.584 246.98 197.737 245.77C197.31 245.593 196.894 245.403 196.48 245.196C194.254 244.103 192.23 242.666 190.464 240.953C186.854 237.476 184.34 232.856 183.5 227.68C183.394 227.053 183.477 226.433 183.7 225.886C183.97 225.23 184.447 224.676 185.054 224.303C185.56 223.993 186.154 223.823 186.794 223.823H230.807L230.81 223.82Z" fill="#FFF9E1"/>
<path d="M194.504 227.187C194.187 230.71 192.794 233.997 190.484 236.673C188.447 234.317 187.117 231.477 186.614 228.383C186.55 227.977 186.734 227.69 186.847 227.553C186.964 227.417 187.224 227.187 187.64 227.187H194.507H194.504Z" fill="#0B0C10"/>
<path d="M244.05 246.763C236.737 246.763 230.807 240.833 230.807 233.52V190.626C241.363 190.626 257.29 216.946 257.29 231.573V233.52C257.29 240.833 251.36 246.763 244.047 246.763H244.05Z" fill="#0B0C10"/>
<path d="M218.77 217.4C218.77 220.34 217.779 221.81 215.797 221.81C213.814 221.81 212.823 220.34 212.823 217.4C212.823 214.967 214.153 212.99 215.797 212.99C217.44 212.99 218.77 214.964 218.77 217.4Z" fill="#0B0C10"/>
<path d="M210.75 217.4C210.75 220.34 209.759 221.81 207.777 221.81C205.795 221.81 204.804 220.34 204.804 217.4C204.804 214.967 206.134 212.99 207.777 212.99C209.42 212.99 210.75 214.964 210.75 217.4Z" fill="#0B0C10"/>
<path d="M218.773 211.337C218.446 211.337 218.123 211.177 217.933 210.88C217.9 210.833 217.013 209.55 215.28 209.55C213.546 209.55 212.66 210.833 212.623 210.887C212.436 211.163 212.126 211.337 211.783 211.33C211.446 211.33 211.133 211.16 210.95 210.877C210.916 210.83 210.03 209.547 208.296 209.547C206.563 209.547 205.676 210.83 205.64 210.883C205.333 211.34 204.713 211.463 204.256 211.16C203.8 210.857 203.666 210.243 203.966 209.783C204.026 209.693 205.453 207.54 208.296 207.54C209.916 207.54 211.076 208.24 211.786 208.857C212.496 208.24 213.656 207.54 215.276 207.54C218.12 207.54 219.546 209.69 219.606 209.783C219.906 210.247 219.776 210.867 219.313 211.17C219.143 211.28 218.956 211.333 218.77 211.333L218.773 211.337Z" fill="#0B0C10"/>
<path d="M277.266 209.663V234.923C277.266 241.947 271.573 247.643 264.546 247.643C257.52 247.643 251.826 241.943 251.826 234.923V213.45C251.826 209.273 255.216 205.883 259.393 205.883H273.486C274.82 205.883 275.993 206.57 276.663 207.613C277.046 208.2 277.266 208.907 277.266 209.663Z" fill="#FFF9E1"/>
<path d="M264.543 247.644H242.82C238.636 247.644 235.253 244.26 235.253 240.08V229.767C235.253 225.59 238.636 222.2 242.82 222.2H264.543C271.57 222.2 277.263 227.897 277.263 234.92C277.263 241.944 271.57 247.64 264.543 247.64V247.644Z" fill="#FFF9E1"/>
<path d="M314.747 202.033V218.48C314.747 225.503 309.053 231.2 302.027 231.2C295 231.2 289.307 225.5 289.307 218.48V202.033C289.307 195.01 295.003 189.313 302.027 189.313H302.03C309.053 189.313 314.747 195.01 314.747 202.033Z" fill="#FFF9E1"/>
<path d="M314.747 218.48V237.836C314.747 243.256 310.357 247.643 304.94 247.643H294.21C291.503 247.643 289.307 245.446 289.307 242.74V218.48C289.307 211.453 295.003 205.76 302.027 205.76C309.05 205.76 314.747 211.453 314.747 218.48Z" fill="#FFF9E1"/>
</g>
<defs>
<filter id="filter0_d_2373_16353" x="80.3398" y="77.5015" width="66.7568" height="80.8149" filterUnits="userSpaceOnUse" color-interpolation-filters="sRGB">
<feFlood flood-opacity="0" result="BackgroundImageFix"/>
<feColorMatrix in="SourceAlpha" type="matrix" values="0 0 0 0 0 0 0 0 0 0 0 0 0 0 0 0 0 0 127 0" result="hardAlpha"/>
<feOffset dx="3" dy="20"/>
<feColorMatrix type="matrix" values="0 0 0 0 0 0 0 0 0 0 0 0 0 0 0 0 0 0 0.1 0"/>
<feBlend mode="normal" in2="BackgroundImageFix" result="effect1_dropShadow_2373_16353"/>
<feBlend mode="normal" in="SourceGraphic" in2="effect1_dropShadow_2373_16353" result="shape"/>
</filter>
<clipPath id="clip0_2373_16353">
<rect width="360" height="260" fill="white"/>
</clipPath>
</defs>
</svg>
