<svg width="1920" height="440" viewBox="0 0 1920 440" fill="none" xmlns="http://www.w3.org/2000/svg">
<g clip-path="url(#clip0_1923_12478)">
<rect width="1920" height="440" fill="#A5C6FF"/>
<path fill-rule="evenodd" clip-rule="evenodd" d="M210.405 287.54C205.738 290.235 201.354 293.232 197.264 296.492C172.124 286.142 142.629 287.153 117.264 301.797C90.8009 317.076 74.9419 343.669 72.2696 371.938C66.1859 372.47 60.1191 374.308 54.4815 377.563C33.8427 389.479 26.7713 415.869 38.6871 436.508C50.603 457.147 76.9939 464.219 97.6328 452.303C99.4923 451.229 101.242 450.038 102.877 448.744C129.011 471.605 166.773 477.958 199.527 463.348C232.372 488.14 278.169 492.396 316.051 470.525C348.149 451.993 366.843 419.161 368.733 384.722C380.648 383.618 392.521 379.984 403.563 373.609C444.485 349.983 458.506 297.656 434.88 256.734C411.253 215.812 358.927 201.791 318.005 225.417C298.455 236.705 285.044 254.543 278.945 274.558C256.1 271.106 231.97 275.09 210.405 287.54Z" fill="#EFF5FF"/>
<path fill-rule="evenodd" clip-rule="evenodd" d="M1496 227C1499.62 227 1503.18 226.729 1506.66 226.206C1517.81 240.677 1535.32 250 1555 250C1575.54 250 1593.7 239.852 1604.76 224.297C1608.48 226.031 1612.63 227 1617 227C1633.02 227 1646 214.016 1646 198C1646 181.984 1633.02 169 1617 169C1615.56 169 1614.14 169.105 1612.75 169.309C1605.22 147.222 1585.38 130.835 1561.41 128.332C1550.62 102.866 1525.4 85 1496 85C1471.09 85 1449.18 97.8269 1436.51 117.236C1429.2 113.874 1421.07 112 1412.5 112C1380.74 112 1355 137.744 1355 169.5C1355 201.256 1380.74 227 1412.5 227C1427.67 227 1441.47 221.124 1451.75 211.524C1463.88 221.21 1479.27 227 1496 227Z" fill="#EFF5FF"/>
<path fill-rule="evenodd" clip-rule="evenodd" d="M1756.5 190C1765.65 190 1774.06 186.806 1780.67 181.471C1785.66 185.552 1792.05 188 1799 188C1815.02 188 1828 175.016 1828 159C1828 142.984 1815.02 130 1799 130C1795.66 130 1792.45 130.565 1789.47 131.603C1782.72 120.453 1770.48 113 1756.5 113C1738.63 113 1723.6 125.175 1719.26 141.682C1717.41 141.236 1715.49 141 1713.5 141C1699.97 141 1689 151.969 1689 165.5C1689 179.031 1699.97 190 1713.5 190C1720.99 190 1727.69 186.642 1732.18 181.35C1738.81 186.757 1747.28 190 1756.5 190Z" fill="#EFF5FF"/>
<path fill-rule="evenodd" clip-rule="evenodd" d="M672.857 206C685.933 206 697.943 201.437 707.382 193.816C714.519 199.646 723.637 203.143 733.572 203.143C756.452 203.143 775 184.595 775 161.714C775 138.834 756.452 120.286 733.572 120.286C728.801 120.286 724.218 121.092 719.953 122.576C710.319 106.647 692.831 96 672.857 96C647.329 96 625.863 113.392 619.662 136.974C617.022 136.337 614.265 136 611.429 136C592.099 136 576.429 151.67 576.429 171C576.429 190.33 592.099 206 611.429 206C622.124 206 631.699 201.203 638.119 193.643C647.59 201.368 659.682 206 672.857 206Z" fill="#EFF5FF"/>
<circle cx="1850" cy="208" r="12" fill="#EFF5FF"/>
<circle cx="1910.5" cy="177.5" r="23.5" fill="#EFF5FF"/>
<circle cx="885" cy="385" r="48" fill="#EFF5FF"/>
<path d="M966.5 368C985.557 368 1001 352.557 1001 333.5C1001 314.443 985.557 299 966.5 299C947.443 299 932 314.443 932 333.5C932 352.557 947.443 368 966.5 368Z" fill="#EFF5FF"/>
<path d="M1011.5 327C1041.04 327 1065 303.05 1065 273.5C1065 243.95 1041.05 220 1011.5 220C981.95 220 958 243.95 958 273.5C958 303.05 981.95 327 1011.5 327Z" fill="#FFD560"/>
<path d="M1086.5 380C1113.84 380 1136 357.838 1136 330.5C1136 303.162 1113.84 281 1086.5 281C1059.16 281 1037 303.162 1037 330.5C1037 357.838 1059.16 380 1086.5 380Z" fill="#EFF5FF"/>
<path d="M1147.5 343C1157.71 343 1166 334.713 1166 324.5C1166 314.287 1157.72 306 1147.5 306C1137.28 306 1129 314.287 1129 324.5C1129 334.713 1137.29 343 1147.5 343Z" fill="#EFF5FF"/>
<path d="M1034.5 480C1074 480 1106 447.996 1106 408.5C1106 369.004 1074 337 1034.5 337C995.004 337 963 369.004 963 408.5C963 447.996 995.004 480 1034.5 480Z" fill="#EFF5FF"/>
<path d="M1021 404C1045.3 404 1065 384.301 1065 360C1065 335.699 1045.3 316 1021 316C996.699 316 977 335.699 977 360C977 384.301 996.699 404 1021 404Z" fill="#EFF5FF"/>
<path d="M1129 360C1141.71 360 1152 349.706 1152 337C1152 324.294 1141.71 314 1129 314C1116.29 314 1106 324.294 1106 337C1106 349.706 1116.29 360 1129 360Z" fill="#EFF5FF"/>
<path d="M975.5 387C985.713 387 994 378.713 994 368.5C994 358.287 985.724 350 975.5 350C965.276 350 957 358.287 957 368.5C957 378.713 965.287 387 975.5 387Z" fill="#EFF5FF"/>
<circle cx="847" cy="235" r="7" fill="#EFF5FF"/>
<circle cx="788" cy="330" r="15" fill="#EFF5FF"/>
<ellipse cx="801.5" cy="322" rx="9.5" ry="10" fill="#EFF5FF"/>
<rect y="356" width="1920" height="84" fill="#009B50"/>
<path d="M788 347V357H800V347L794 353L788 347Z" fill="#009B50"/>
<path d="M800 347V357H812V347L806 353L800 347Z" fill="#009B50"/>
<path d="M812 347V357H824V347L818 353L812 347Z" fill="#009B50"/>
<path d="M824 347V357H836V347L830 353L824 347Z" fill="#009B50"/>
<path d="M1070 347V357H1082V347L1076 353L1070 347Z" fill="#009B50"/>
<path d="M1082 347V357H1094V347L1088 353L1082 347Z" fill="#009B50"/>
<path d="M864 347V357H876V347L870 353L864 347Z" fill="#009B50"/>
<path d="M876 347V357H888V347L882 353L876 347Z" fill="#009B50"/>
<path d="M1122 347V357H1134V347L1128 353L1122 347Z" fill="#009B50"/>
<path d="M1134 347V357H1146V347L1140 353L1134 347Z" fill="#009B50"/>
<ellipse cx="964.5" cy="398" rx="71.5" ry="6" fill="black" fill-opacity="0.1"/>
<path d="M1463 347V357H1475V347L1469 353L1463 347Z" fill="#009B50"/>
<path d="M1475 347V357H1487V347L1481 353L1475 347Z" fill="#009B50"/>
<path d="M1487 347V357H1499V347L1493 353L1487 347Z" fill="#009B50"/>
<path d="M1499 347V357H1511V347L1505 353L1499 347Z" fill="#009B50"/>
<path d="M1745 347V357H1757V347L1751 353L1745 347Z" fill="#009B50"/>
<path d="M1757 347V357H1769V347L1763 353L1757 347Z" fill="#009B50"/>
<path d="M1539 347V357H1551V347L1545 353L1539 347Z" fill="#009B50"/>
<path d="M1551 347V357H1563V347L1557 353L1551 347Z" fill="#009B50"/>
<path d="M1797 347V357H1809V347L1803 353L1797 347Z" fill="#009B50"/>
<path d="M1809 347V357H1821V347L1815 353L1809 347Z" fill="#009B50"/>
<path d="M410 347V357H398V347L404 353L410 347Z" fill="#009B50"/>
<path d="M398 347V357H386V347L392 353L398 347Z" fill="#009B50"/>
<path d="M386 347V357H374V347L380 353L386 347Z" fill="#009B50"/>
<path d="M374 347V357H362V347L368 353L374 347Z" fill="#009B50"/>
<path d="M128 347V357H116V347L122 353L128 347Z" fill="#009B50"/>
<path d="M116 347V357H104V347L110 353L116 347Z" fill="#009B50"/>
<path d="M334 347V357H322V347L328 353L334 347Z" fill="#009B50"/>
<path d="M322 347V357H310V347L316 353L322 347Z" fill="#009B50"/>
<path d="M76 347V357H64V347L70 353L76 347Z" fill="#009B50"/>
<path d="M64 347V357H52V347L58 353L64 347Z" fill="#009B50"/>
<path d="M997.281 322.049C1006.2 324.424 1011.5 333.548 1009.11 342.413L997.918 383.931C995.528 392.797 986.349 398.065 977.429 395.689L969.349 393.537C964.889 392.349 962.24 387.788 963.435 383.355L976.792 333.806C979.182 324.941 988.361 319.673 997.281 322.049Z" fill="#E5DCB5"/>
<path d="M932.334 322.053C941.254 324.429 946.554 333.552 944.164 342.418L932.971 383.936C930.581 392.802 921.402 398.069 912.482 395.693L904.402 393.542C899.942 392.354 897.292 387.792 898.487 383.359L911.845 333.811C914.235 324.945 923.414 319.678 932.334 322.053Z" fill="#E5DCB5"/>
<path d="M1035.85 315.1C1023.76 339.334 994.197 349.228 969.831 337.198C957.141 330.929 948.358 319.946 944.578 307.442C946.619 308.939 948.802 310.294 951.11 311.483C975.184 323.896 1005.18 314.393 1017.58 290.407C1021.16 283.465 1022.93 276.074 1023.05 268.783C1023.13 263.712 1029.73 261.716 1032.58 265.923C1042.14 280.057 1044.01 298.754 1035.85 315.108V315.1Z" fill="black"/>
<path d="M952.215 298.613H985.874C1006.27 298.613 1022.81 315.066 1022.81 335.327C1022.81 355.596 1006.26 372.041 985.874 372.041H952.215V298.605V298.613Z" fill="#FFF9E1"/>
<path d="M952.215 278.726V372.049C926.343 372.049 904.394 355.363 896.674 332.226C895.661 329.208 894.892 326.074 894.39 322.856C893.98 320.271 893.746 317.635 893.704 314.942C893.704 314.684 893.704 314.418 893.704 314.152V278.726C893.704 262.664 906.803 249.645 922.964 249.645C939.124 249.645 952.223 262.664 952.223 278.726H952.215Z" fill="#FFF9E1"/>
<path d="M925.372 252.139L923.273 251.466C923.273 251.133 923.022 243.202 912.232 243.202C911.587 243.202 911.069 242.686 911.069 242.046C911.069 241.406 911.587 240.89 912.232 240.89C920.078 240.89 923.323 244.615 924.661 247.641C924.762 246.951 924.779 246.17 924.636 245.338C924.193 242.744 922.378 240.308 919.233 238.105C918.706 237.739 918.58 237.016 918.957 236.492C919.325 235.969 920.053 235.844 920.571 236.21C924.26 238.795 926.393 241.747 926.928 244.997C927.597 249.046 925.464 252.006 925.372 252.131V252.139Z" fill="#FFF9E1"/>
<path d="M918.857 281.911C918.857 285.292 917.711 286.982 915.419 286.982C913.127 286.982 911.981 285.292 911.981 281.911C911.981 279.109 913.52 276.839 915.419 276.839C917.318 276.839 918.857 279.109 918.857 281.911Z" fill="#0B0C10"/>
<path d="M909.58 281.911C909.58 285.292 908.434 286.982 906.142 286.982C903.851 286.982 902.705 285.292 902.705 281.911C902.705 279.109 904.244 276.839 906.142 276.839C908.041 276.839 909.58 279.109 909.58 281.911Z" fill="#0B0C10"/>
<path d="M918.856 274.936C918.48 274.936 918.103 274.753 917.886 274.412C917.853 274.354 916.824 272.882 914.816 272.882C912.809 272.882 911.788 274.354 911.746 274.42C911.529 274.736 911.169 274.936 910.776 274.927C910.391 274.927 910.023 274.728 909.814 274.403C909.781 274.345 908.752 272.874 906.744 272.874C904.737 272.874 903.716 274.345 903.674 274.412C903.315 274.936 902.604 275.077 902.068 274.728C901.541 274.379 901.391 273.672 901.734 273.148C901.801 273.04 903.457 270.571 906.744 270.571C908.618 270.571 909.965 271.377 910.784 272.084C911.604 271.377 912.951 270.571 914.824 270.571C918.112 270.571 919.768 273.04 919.835 273.148C920.186 273.68 920.027 274.395 919.492 274.744C919.3 274.869 919.082 274.927 918.865 274.927L918.856 274.936Z" fill="#0B0C10"/>
<path d="M932.775 289.285C932.775 304.416 920.438 316.679 905.231 316.679C901.433 316.679 897.811 315.914 894.524 314.526C891.37 313.204 888.526 311.317 886.109 308.989C881.935 304.99 879.024 299.677 878.054 293.725C877.928 293.001 878.029 292.295 878.288 291.663C878.598 290.906 879.15 290.266 879.852 289.842C880.438 289.485 881.124 289.285 881.868 289.285H932.775Z" fill="#FFF9E1"/>
<path d="M890.785 293.159C890.417 297.208 888.811 300.991 886.134 304.067C883.784 301.357 882.244 298.089 881.659 294.539C881.584 294.074 881.793 293.741 881.927 293.583C882.06 293.425 882.362 293.159 882.847 293.159H890.793H890.785Z" fill="#0B0C10"/>
<path d="M931.217 322.056C940.137 319.68 949.316 324.948 951.706 333.814L962.899 375.332C965.289 384.197 959.989 393.321 951.069 395.696L942.99 397.848C938.53 399.036 933.94 396.402 932.745 391.969L919.387 342.421C916.997 333.555 922.297 324.432 931.217 322.056Z" fill="#FFF9E1"/>
<path d="M996.155 322.052C1005.07 319.677 1014.25 324.944 1016.64 333.81L1027.84 375.328C1030.23 384.193 1024.93 393.317 1016.01 395.692L1007.93 397.844C1003.47 399.032 998.878 396.398 997.683 391.965L984.325 342.417C981.935 333.551 987.235 324.428 996.155 322.052Z" fill="#FFF9E1"/>
<path d="M962.319 301.689C958.94 304.757 955.561 307.426 952.215 309.745C935.561 321.318 919.727 324.228 908.016 324.228C902.403 324.228 897.736 323.563 894.39 322.856C893.98 320.271 893.746 317.635 893.704 314.942C893.704 314.684 893.704 314.418 893.704 314.152C901.032 316.139 925.749 320.528 952.223 299.353C953.712 298.164 955.201 296.901 956.69 295.545C958.396 293.999 961.04 294.115 962.596 295.811C964.16 297.507 964.034 300.143 962.328 301.689H962.319Z" fill="#1649DB"/>
<path d="M948.099 315.665C939.643 315.665 932.784 308.848 932.784 300.442V251.125C944.996 251.125 963.423 281.387 963.423 298.206V300.442C963.423 308.848 956.564 315.665 948.108 315.665H948.099Z" fill="#0B0C10"/>
</g>
<defs>
<clipPath id="clip0_1923_12478">
<rect width="1920" height="440" fill="white"/>
</clipPath>
</defs>
</svg>
