<svg width="188" height="24" viewBox="0 0 188 24" fill="none" xmlns="http://www.w3.org/2000/svg">
<circle cx="12" cy="12" r="12" fill="white"/>
<path d="M11.8835 6.836C12.3875 6.836 12.8402 6.90133 13.2415 7.032C13.6428 7.15333 13.9835 7.33067 14.2635 7.564C14.5435 7.788 14.7582 8.05867 14.9075 8.376C15.0568 8.69333 15.1315 9.04333 15.1315 9.426V9.58C15.1315 9.804 15.1035 10.0187 15.0475 10.224C15.0008 10.42 14.9122 10.6207 14.7815 10.826C14.6602 11.0313 14.4875 11.2507 14.2635 11.484C14.0488 11.7173 13.7782 11.9833 13.4515 12.282C13.2462 12.4687 13.0828 12.632 12.9615 12.772C12.8402 12.9027 12.7468 13.0287 12.6815 13.15C12.6162 13.262 12.5742 13.3787 12.5555 13.5C12.5368 13.612 12.5275 13.7427 12.5275 13.892C12.5275 14.1067 12.4435 14.2747 12.2755 14.396C12.1168 14.5173 11.9302 14.578 11.7155 14.578C11.4822 14.578 11.2815 14.522 11.1135 14.41C10.9455 14.2887 10.8615 14.102 10.8615 13.85C10.8615 13.6073 10.8755 13.388 10.9035 13.192C10.9315 12.996 10.9828 12.8093 11.0575 12.632C11.1415 12.4453 11.2582 12.2633 11.4075 12.086C11.5662 11.8993 11.7715 11.694 12.0235 11.47C12.3128 11.218 12.5415 11.008 12.7095 10.84C12.8868 10.6627 13.0222 10.504 13.1155 10.364C13.2088 10.224 13.2695 10.098 13.2975 9.986C13.3255 9.86467 13.3395 9.734 13.3395 9.594V9.524C13.3395 9.37467 13.3115 9.23467 13.2555 9.104C13.1995 8.97333 13.1108 8.85667 12.9895 8.754C12.8775 8.65133 12.7235 8.572 12.5275 8.516C12.3408 8.45067 12.1075 8.418 11.8275 8.418C11.4542 8.418 11.1275 8.474 10.8475 8.586C10.5675 8.698 10.3015 8.84267 10.0495 9.02C9.86285 9.15067 9.67618 9.19733 9.48952 9.16C9.31218 9.11333 9.15818 9.00133 9.02752 8.824C8.89685 8.656 8.83152 8.46933 8.83152 8.264C8.84085 8.04933 8.93885 7.872 9.12552 7.732C9.47085 7.46133 9.86752 7.24667 10.3155 7.088C10.7728 6.92 11.2955 6.836 11.8835 6.836ZM11.7015 15.516C12.0002 15.516 12.2522 15.6187 12.4575 15.824C12.6628 16.0293 12.7655 16.2813 12.7655 16.58C12.7655 16.8787 12.6628 17.1307 12.4575 17.336C12.2522 17.5413 12.0002 17.644 11.7015 17.644C11.4028 17.644 11.1508 17.5413 10.9455 17.336C10.7402 17.1307 10.6375 16.8787 10.6375 16.58C10.6375 16.2813 10.7402 16.0293 10.9455 15.824C11.1508 15.6187 11.4028 15.516 11.7015 15.516Z" fill="#1F5FFF"/>
<rect x="32" y="2" width="156" height="20" rx="8" fill="white"/>
<path d="M40.952 9.08C40.8293 9.08 40.7387 9.03733 40.68 8.952C40.6213 8.86667 40.592 8.76533 40.592 8.648C40.592 8.52533 40.6213 8.42133 40.68 8.336C40.7387 8.25067 40.8293 8.208 40.952 8.208H43.312C43.568 8.208 43.744 8.256 43.84 8.352C43.9413 8.448 43.992 8.62133 43.992 8.872V9.536C43.992 9.824 43.96 10.072 43.896 10.28C43.832 10.4827 43.7013 10.68 43.504 10.872C43.3067 11.064 43.024 11.2667 42.656 11.48C42.288 11.6933 41.8 11.952 41.192 12.256C41.128 12.288 41.064 12.304 41 12.304C40.9413 12.2987 40.8827 12.2853 40.824 12.264C40.7707 12.2373 40.72 12.2027 40.672 12.16C40.6293 12.1173 40.5973 12.0693 40.576 12.016C40.528 11.9147 40.5093 11.8027 40.52 11.68C40.5307 11.5573 40.6027 11.464 40.736 11.4C41.0933 11.224 41.3947 11.072 41.64 10.944C41.8907 10.8107 42.0987 10.6933 42.264 10.592C42.4293 10.4853 42.56 10.392 42.656 10.312C42.752 10.2267 42.824 10.144 42.872 10.064C42.92 9.97867 42.9493 9.89333 42.96 9.808C42.9707 9.71733 42.976 9.616 42.976 9.504V9.264C42.976 9.14133 42.9147 9.08 42.792 9.08H40.952ZM45.416 10.432H43.648V9.568H45.416V8.168C45.416 8.01867 45.4667 7.90933 45.568 7.84C45.6747 7.77067 45.7947 7.736 45.928 7.736C46.056 7.736 46.1707 7.77067 46.272 7.84C46.3787 7.90933 46.432 8.01867 46.432 8.168V12.76C46.432 12.9093 46.3787 13.0187 46.272 13.088C46.1707 13.1573 46.056 13.192 45.928 13.192C45.7947 13.192 45.6747 13.1573 45.568 13.088C45.4667 13.0187 45.416 12.9093 45.416 12.76V10.432ZM42.264 15.096C42.008 15.096 41.8293 15.048 41.728 14.952C41.632 14.856 41.584 14.6827 41.584 14.432V12.92C41.584 12.7707 41.6347 12.6613 41.736 12.592C41.8427 12.5227 41.9653 12.488 42.104 12.488C42.2373 12.488 42.3547 12.5227 42.456 12.592C42.5627 12.6613 42.616 12.7707 42.616 12.92V14.04C42.616 14.1627 42.6773 14.224 42.8 14.224H46.248C46.3707 14.224 46.4613 14.2667 46.52 14.352C46.5787 14.4373 46.608 14.5413 46.608 14.664C46.608 14.7813 46.5787 14.8827 46.52 14.968C46.4613 15.0533 46.3707 15.096 46.248 15.096H42.264ZM47.8012 9.016C47.6786 9.016 47.5879 8.97333 47.5292 8.888C47.4706 8.80267 47.4412 8.70133 47.4412 8.584C47.4412 8.46133 47.4706 8.35733 47.5292 8.272C47.5879 8.18667 47.6786 8.144 47.8012 8.144H50.1932C50.4492 8.144 50.6253 8.192 50.7213 8.288C50.8226 8.384 50.8733 8.55733 50.8733 8.808V9.416C50.8733 9.69867 50.8359 9.94133 50.7613 10.144C50.6919 10.3467 50.5532 10.5413 50.3452 10.728C50.1372 10.9147 49.8466 11.1093 49.4732 11.312C49.1052 11.5147 48.6226 11.7573 48.0252 12.04C47.8972 12.0987 47.7772 12.0987 47.6652 12.04C47.5532 11.9813 47.4732 11.8987 47.4252 11.792C47.3986 11.744 47.3799 11.6907 47.3692 11.632C47.3639 11.5733 47.3666 11.5173 47.3772 11.464C47.3879 11.4053 47.4092 11.352 47.4412 11.304C47.4786 11.256 47.5319 11.216 47.6012 11.184C48.1346 10.9387 48.5506 10.736 48.8492 10.576C49.1532 10.4107 49.3799 10.2667 49.5292 10.144C49.6786 10.0213 49.7692 9.904 49.8012 9.792C49.8386 9.67467 49.8572 9.53867 49.8572 9.384V9.2C49.8572 9.07733 49.7959 9.016 49.6732 9.016H47.8012ZM53.7533 9.456C53.8813 9.456 53.9746 9.49867 54.0333 9.584C54.0919 9.66933 54.1213 9.77333 54.1213 9.896C54.1213 10.0187 54.0919 10.1253 54.0333 10.216C53.9746 10.3013 53.8813 10.344 53.7533 10.344H53.0013V11.712C53.0013 11.8613 52.9479 11.9707 52.8412 12.04C52.7399 12.1093 52.6226 12.144 52.4893 12.144C52.3559 12.144 52.2359 12.1093 52.1293 12.04C52.0279 11.9707 51.9773 11.8613 51.9773 11.712V8.168C51.9773 8.01867 52.0279 7.90933 52.1293 7.84C52.2359 7.77067 52.3559 7.736 52.4893 7.736C52.6226 7.736 52.7399 7.77067 52.8412 7.84C52.9479 7.90933 53.0013 8.01867 53.0013 8.168V9.456H53.7533ZM48.3052 13.744C48.3052 13.2267 48.5132 12.84 48.9292 12.584C49.3506 12.3227 49.9293 12.192 50.6653 12.192C51.4012 12.192 51.9772 12.3227 52.3932 12.584C52.8146 12.84 53.0252 13.2267 53.0252 13.744C53.0252 14.2667 52.8146 14.656 52.3932 14.912C51.9772 15.168 51.4012 15.296 50.6653 15.296C49.9293 15.296 49.3506 15.168 48.9292 14.912C48.5132 14.656 48.3052 14.2667 48.3052 13.744ZM52.0093 13.744C52.0093 13.5253 51.9053 13.3493 51.6972 13.216C51.4946 13.0773 51.1506 13.008 50.6653 13.008C50.4199 13.008 50.2119 13.0267 50.0412 13.064C49.8706 13.096 49.7319 13.144 49.6252 13.208C49.5186 13.272 49.4413 13.3493 49.3932 13.44C49.3452 13.5307 49.3212 13.632 49.3212 13.744C49.3212 13.856 49.3452 13.9573 49.3932 14.048C49.4413 14.1387 49.5186 14.216 49.6252 14.28C49.7319 14.344 49.8706 14.392 50.0412 14.424C50.2119 14.4613 50.4199 14.48 50.6653 14.48C51.1506 14.48 51.4946 14.4107 51.6972 14.272C51.9053 14.1387 52.0093 13.9627 52.0093 13.744ZM56.4985 9.688C57.0478 9.688 57.4772 9.8 57.7865 10.024C58.1012 10.2427 58.2585 10.5493 58.2585 10.944C58.2585 11.3387 58.1012 11.648 57.7865 11.872C57.4772 12.0907 57.0478 12.2 56.4985 12.2C55.9492 12.2 55.5172 12.0907 55.2025 11.872C54.8932 11.648 54.7385 11.3387 54.7385 10.944C54.7385 10.5493 54.8932 10.2427 55.2025 10.024C55.5172 9.8 55.9492 9.688 56.4985 9.688ZM56.4985 11.432C56.7865 11.432 56.9972 11.3867 57.1305 11.296C57.2692 11.2053 57.3385 11.088 57.3385 10.944C57.3385 10.8 57.2692 10.6827 57.1305 10.592C56.9972 10.5013 56.7865 10.456 56.4985 10.456C56.2105 10.456 55.9972 10.5013 55.8585 10.592C55.7252 10.6827 55.6585 10.8 55.6585 10.944C55.6585 11.088 55.7252 11.2053 55.8585 11.296C55.9972 11.3867 56.2105 11.432 56.4985 11.432ZM55.9865 8.536V8.192C55.9865 8.04267 56.0372 7.93333 56.1385 7.864C56.2452 7.79467 56.3652 7.76 56.4985 7.76C56.6318 7.76 56.7492 7.79467 56.8505 7.864C56.9572 7.93333 57.0105 8.04267 57.0105 8.192V8.536H58.2665C58.3892 8.536 58.4798 8.57867 58.5385 8.664C58.5972 8.74933 58.6265 8.85067 58.6265 8.968C58.6265 9.08 58.5972 9.17867 58.5385 9.264C58.4798 9.34933 58.3892 9.392 58.2665 9.392H54.6505C54.5278 9.392 54.4372 9.34933 54.3785 9.264C54.3198 9.17867 54.2905 9.08 54.2905 8.968C54.2905 8.85067 54.3198 8.74933 54.3785 8.664C54.4372 8.57867 54.5278 8.536 54.6505 8.536H55.9865ZM60.0985 10.336H60.7465C60.8745 10.336 60.9678 10.3787 61.0265 10.464C61.0852 10.5493 61.1145 10.6533 61.1145 10.776C61.1145 10.8987 61.0852 11.0053 61.0265 11.096C60.9678 11.1813 60.8745 11.224 60.7465 11.224H60.0985V14.304C60.0985 14.448 60.0478 14.5547 59.9465 14.624C59.8452 14.6933 59.7278 14.728 59.5945 14.728C59.4612 14.728 59.3438 14.6933 59.2425 14.624C59.1412 14.5547 59.0905 14.448 59.0905 14.304V8.16C59.0905 8.016 59.1412 7.90933 59.2425 7.84C59.3438 7.77067 59.4612 7.736 59.5945 7.736C59.7278 7.736 59.8452 7.77067 59.9465 7.84C60.0478 7.90933 60.0985 8.016 60.0985 8.16V10.336ZM58.4825 13.52C58.2265 13.5413 57.9438 13.56 57.6345 13.576C57.3252 13.592 56.9998 13.608 56.6585 13.624C56.3225 13.6347 55.9732 13.6427 55.6105 13.648C55.2478 13.6533 54.8825 13.656 54.5145 13.656C54.3918 13.656 54.3012 13.6133 54.2425 13.528C54.1838 13.4427 54.1545 13.3413 54.1545 13.224C54.1545 13.112 54.1838 13.0133 54.2425 12.928C54.3012 12.8427 54.3918 12.8 54.5145 12.8C54.7598 12.8 55.0052 12.8 55.2505 12.8C55.4958 12.8 55.7438 12.7973 55.9945 12.792V11.8H57.0025V12.768C57.2425 12.7573 57.4772 12.7467 57.7065 12.736C57.9412 12.72 58.1758 12.7013 58.4105 12.68C58.5332 12.6693 58.6238 12.7013 58.6825 12.776C58.7465 12.8507 58.7838 12.9467 58.7945 13.064C58.8052 13.176 58.7865 13.2773 58.7385 13.368C58.6905 13.4587 58.6052 13.5093 58.4825 13.52ZM64.9398 11.144C64.9398 11.3947 64.8891 11.568 64.7878 11.664C64.6918 11.76 64.5158 11.808 64.2598 11.808H62.1558C61.8998 11.808 61.7211 11.76 61.6198 11.664C61.5238 11.568 61.4758 11.3947 61.4758 11.144V8.856C61.4758 8.60533 61.5238 8.432 61.6198 8.336C61.7211 8.24 61.8998 8.192 62.1558 8.192H64.2598C64.5158 8.192 64.6918 8.24 64.7878 8.336C64.8891 8.432 64.9398 8.60533 64.9398 8.856V11.144ZM63.9398 9.232C63.9398 9.10933 63.8784 9.048 63.7558 9.048H62.6598C62.5371 9.048 62.4758 9.10933 62.4758 9.232V10.768C62.4758 10.8907 62.5371 10.952 62.6598 10.952H63.7558C63.8784 10.952 63.9398 10.8907 63.9398 10.768V9.232ZM67.3158 12.76C67.3158 12.9093 67.2624 13.0187 67.1558 13.088C67.0544 13.1573 66.9398 13.192 66.8118 13.192C66.6838 13.192 66.5664 13.1573 66.4598 13.088C66.3584 13.0187 66.3078 12.9093 66.3078 12.76V11.256H65.6038C65.4811 11.256 65.3904 11.2133 65.3318 11.128C65.2784 11.0427 65.2518 10.9387 65.2518 10.816C65.2518 10.6987 65.2784 10.5973 65.3318 10.512C65.3904 10.4267 65.4811 10.384 65.6038 10.384H66.3078V9.656H65.6038C65.4811 9.656 65.3904 9.61333 65.3318 9.528C65.2784 9.44267 65.2518 9.33867 65.2518 9.216C65.2518 9.09867 65.2784 8.99733 65.3318 8.912C65.3904 8.82667 65.4811 8.784 65.6038 8.784H66.3078V8.168C66.3078 8.01867 66.3584 7.90933 66.4598 7.84C66.5664 7.77067 66.6838 7.736 66.8118 7.736C66.9398 7.736 67.0544 7.77067 67.1558 7.84C67.2624 7.90933 67.3158 8.01867 67.3158 8.168V12.76ZM63.1478 15.096C62.8918 15.096 62.7131 15.048 62.6118 14.952C62.5158 14.856 62.4678 14.6827 62.4678 14.432V12.92C62.4678 12.7707 62.5184 12.6613 62.6198 12.592C62.7264 12.5227 62.8491 12.488 62.9878 12.488C63.1211 12.488 63.2384 12.5227 63.3398 12.592C63.4464 12.6613 63.4998 12.7707 63.4998 12.92V14.04C63.4998 14.1627 63.5611 14.224 63.6838 14.224H67.1318C67.2544 14.224 67.3451 14.2667 67.4038 14.352C67.4624 14.4373 67.4918 14.5413 67.4918 14.664C67.4918 14.7813 67.4624 14.8827 67.4038 14.968C67.3451 15.0533 67.2544 15.096 67.1318 15.096H63.1478ZM70.581 11.736C70.2503 11.736 69.9597 11.6933 69.709 11.608C69.4637 11.5173 69.2583 11.392 69.093 11.232C68.9277 11.072 68.8023 10.8827 68.717 10.664C68.6317 10.4453 68.589 10.2053 68.589 9.944C68.589 9.68267 68.6317 9.44267 68.717 9.224C68.8023 9.00533 68.9277 8.816 69.093 8.656C69.2583 8.496 69.4637 8.37333 69.709 8.288C69.9597 8.19733 70.2503 8.152 70.581 8.152C70.9063 8.152 71.1943 8.19733 71.445 8.288C71.6957 8.37333 71.9037 8.496 72.069 8.656C72.2343 8.816 72.3597 9.00533 72.445 9.224C72.5303 9.44267 72.573 9.68267 72.573 9.944C72.573 10.2053 72.5303 10.4453 72.445 10.664C72.3597 10.8827 72.2343 11.072 72.069 11.232C71.9037 11.392 71.6957 11.5173 71.445 11.608C71.1943 11.6933 70.9063 11.736 70.581 11.736ZM70.581 9C70.229 9 69.9703 9.088 69.805 9.264C69.6397 9.44 69.557 9.66667 69.557 9.944C69.557 10.2213 69.6397 10.448 69.805 10.624C69.9703 10.8 70.229 10.888 70.581 10.888C70.933 10.888 71.1917 10.8 71.357 10.624C71.5223 10.448 71.605 10.2213 71.605 9.944C71.605 9.66667 71.5223 9.44 71.357 9.264C71.1917 9.088 70.933 9 70.581 9ZM72.733 13.344C72.4663 13.3707 72.1703 13.3947 71.845 13.416C71.5197 13.432 71.1757 13.4453 70.813 13.456C70.4557 13.4667 70.085 13.4773 69.701 13.488C69.317 13.4933 68.933 13.496 68.549 13.496C68.4263 13.496 68.3357 13.4533 68.277 13.368C68.2183 13.2827 68.189 13.1787 68.189 13.056C68.189 12.9387 68.2183 12.8373 68.277 12.752C68.3357 12.6667 68.4263 12.624 68.549 12.624C69.2317 12.624 69.917 12.616 70.605 12.6C71.2983 12.584 71.9837 12.5467 72.661 12.488C72.7837 12.4773 72.8743 12.5093 72.933 12.584C72.997 12.6587 73.0343 12.7547 73.045 12.872C73.0557 12.9893 73.037 13.096 72.989 13.192C72.941 13.2827 72.8557 13.3333 72.733 13.344ZM73.357 8.168C73.357 8.01867 73.4077 7.90933 73.509 7.84C73.6157 7.77067 73.7357 7.736 73.869 7.736C73.997 7.736 74.1117 7.77067 74.213 7.84C74.3197 7.90933 74.373 8.01867 74.373 8.168V14.296C74.373 14.4453 74.3197 14.5547 74.213 14.624C74.1117 14.6933 73.997 14.728 73.869 14.728C73.7357 14.728 73.6157 14.6933 73.509 14.624C73.4077 14.5547 73.357 14.4453 73.357 14.296V8.168ZM79.4543 9.656C79.4543 9.816 79.4649 9.96267 79.4863 10.096C79.5076 10.2293 79.5423 10.3573 79.5903 10.48C79.6383 10.6027 79.6996 10.7227 79.7743 10.84C79.8543 10.952 79.9503 11.0693 80.0623 11.192C80.2063 11.3467 80.3503 11.4987 80.4943 11.648C80.6436 11.7973 80.7796 11.9253 80.9023 12.032C81.0036 12.1227 81.0436 12.232 81.0223 12.36C81.0009 12.4827 80.9503 12.5867 80.8703 12.672C80.8329 12.7093 80.7876 12.7413 80.7343 12.768C80.6809 12.7947 80.6249 12.8133 80.5663 12.824C80.5129 12.8293 80.4569 12.824 80.3983 12.808C80.3449 12.792 80.2943 12.7627 80.2463 12.72C80.1396 12.624 80.0223 12.5147 79.8943 12.392C79.7716 12.264 79.6463 12.1307 79.5183 11.992C79.3049 11.768 79.1583 11.6 79.0783 11.488C79.0036 11.376 78.9583 11.28 78.9423 11.2H78.9343C78.9236 11.248 78.9076 11.296 78.8863 11.344C78.8649 11.392 78.8303 11.448 78.7823 11.512C78.7396 11.576 78.6836 11.648 78.6143 11.728C78.5449 11.808 78.4569 11.904 78.3503 12.016C78.2223 12.1547 78.0889 12.2907 77.9503 12.424C77.8169 12.5573 77.6703 12.6987 77.5103 12.848C77.4089 12.9387 77.2943 12.968 77.1663 12.936C77.0436 12.8987 76.9449 12.84 76.8703 12.76C76.7903 12.6693 76.7476 12.5627 76.7423 12.44C76.7369 12.3173 76.7823 12.2107 76.8783 12.12C77.2089 11.816 77.5183 11.5067 77.8063 11.192C77.9183 11.0693 78.0116 10.952 78.0863 10.84C78.1663 10.7227 78.2303 10.6027 78.2783 10.48C78.3263 10.3573 78.3609 10.2293 78.3823 10.096C78.4036 9.96267 78.4143 9.816 78.4143 9.656V8.552C78.4143 8.39733 78.4649 8.28533 78.5663 8.216C78.6729 8.14667 78.7956 8.112 78.9343 8.112C79.0729 8.112 79.1929 8.14667 79.2943 8.216C79.4009 8.28533 79.4543 8.39733 79.4543 8.552V9.656ZM83.2783 10.096C83.4063 10.096 83.4996 10.1387 83.5583 10.224C83.6169 10.3093 83.6463 10.4133 83.6463 10.536C83.6463 10.6587 83.6169 10.7653 83.5583 10.856C83.4996 10.9413 83.4063 10.984 83.2783 10.984H82.5263V14.296C82.5263 14.4453 82.4729 14.5547 82.3663 14.624C82.2649 14.6933 82.1476 14.728 82.0143 14.728C81.8809 14.728 81.7609 14.6933 81.6543 14.624C81.5529 14.5547 81.5023 14.4453 81.5023 14.296V8.168C81.5023 8.01867 81.5529 7.90933 81.6543 7.84C81.7609 7.77067 81.8809 7.736 82.0143 7.736C82.1476 7.736 82.2649 7.77067 82.3663 7.84C82.4729 7.90933 82.5263 8.01867 82.5263 8.168V10.096H83.2783ZM87.0875 10.688C86.6982 10.688 86.3488 10.6613 86.0395 10.608C85.7302 10.5547 85.4662 10.472 85.2475 10.36C85.0342 10.2427 84.8688 10.096 84.7515 9.92C84.6395 9.744 84.5835 9.53333 84.5835 9.288C84.5835 9.04267 84.6395 8.832 84.7515 8.656C84.8688 8.48 85.0342 8.336 85.2475 8.224C85.4662 8.10667 85.7302 8.02133 86.0395 7.968C86.3488 7.91467 86.6982 7.888 87.0875 7.888C87.4768 7.888 87.8262 7.91467 88.1355 7.968C88.4448 8.02133 88.7062 8.10667 88.9195 8.224C89.1382 8.336 89.3035 8.48 89.4155 8.656C89.5328 8.832 89.5915 9.04267 89.5915 9.288C89.5915 9.53333 89.5328 9.744 89.4155 9.92C89.3035 10.096 89.1382 10.2427 88.9195 10.36C88.7062 10.472 88.4448 10.5547 88.1355 10.608C87.8262 10.6613 87.4768 10.688 87.0875 10.688ZM87.0875 8.704C86.5542 8.704 86.1728 8.75467 85.9435 8.856C85.7142 8.95733 85.5995 9.10133 85.5995 9.288C85.5995 9.47467 85.7142 9.61867 85.9435 9.72C86.1728 9.82133 86.5542 9.872 87.0875 9.872C87.6208 9.872 88.0022 9.82133 88.2315 9.72C88.4608 9.61867 88.5755 9.47467 88.5755 9.288C88.5755 9.10133 88.4608 8.95733 88.2315 8.856C88.0022 8.75467 87.6208 8.704 87.0875 8.704ZM84.0555 12.144C83.9328 12.144 83.8422 12.104 83.7835 12.024C83.7302 11.9387 83.7035 11.8373 83.7035 11.72C83.7035 11.608 83.7302 11.512 83.7835 11.432C83.8422 11.3467 83.9328 11.304 84.0555 11.304H85.5195V10.144H86.4955V11.304H87.6795V10.144H88.6555V11.304H90.1195C90.2422 11.304 90.3302 11.3467 90.3835 11.432C90.4422 11.512 90.4715 11.608 90.4715 11.72C90.4715 11.8373 90.4422 11.9387 90.3835 12.024C90.3302 12.104 90.2422 12.144 90.1195 12.144H84.0555ZM84.5675 13.928C84.5675 13.6827 84.6235 13.472 84.7355 13.296C84.8528 13.12 85.0208 12.976 85.2395 12.864C85.4582 12.7467 85.7222 12.6613 86.0315 12.608C86.3408 12.5547 86.6928 12.528 87.0875 12.528C87.4768 12.528 87.8262 12.5547 88.1355 12.608C88.4502 12.6613 88.7168 12.7467 88.9355 12.864C89.1542 12.976 89.3195 13.12 89.4315 13.296C89.5488 13.472 89.6075 13.6827 89.6075 13.928C89.6075 14.1733 89.5488 14.384 89.4315 14.56C89.3195 14.736 89.1542 14.88 88.9355 14.992C88.7168 15.1093 88.4502 15.1947 88.1355 15.248C87.8262 15.3013 87.4768 15.328 87.0875 15.328C86.6928 15.328 86.3408 15.3013 86.0315 15.248C85.7222 15.1947 85.4582 15.1093 85.2395 14.992C85.0208 14.88 84.8528 14.736 84.7355 14.56C84.6235 14.384 84.5675 14.1733 84.5675 13.928ZM88.5915 13.928C88.5915 13.7413 88.4742 13.5973 88.2395 13.496C88.0102 13.3893 87.6262 13.336 87.0875 13.336C86.5488 13.336 86.1622 13.3893 85.9275 13.496C85.6982 13.5973 85.5835 13.7413 85.5835 13.928C85.5835 14.1147 85.6982 14.2587 85.9275 14.36C86.1622 14.4667 86.5488 14.52 87.0875 14.52C87.6262 14.52 88.0102 14.4667 88.2395 14.36C88.4742 14.2587 88.5915 14.1147 88.5915 13.928ZM92.0167 9.184H93.5047V8.472C93.5047 8.328 93.5554 8.22133 93.6567 8.152C93.7634 8.08267 93.8807 8.048 94.0087 8.048C94.1367 8.048 94.2514 8.08267 94.3527 8.152C94.4594 8.22133 94.5127 8.328 94.5127 8.472V10.92C94.5127 11.1707 94.4621 11.344 94.3607 11.44C94.2647 11.536 94.0887 11.584 93.8327 11.584H91.6887C91.4327 11.584 91.2541 11.536 91.1527 11.44C91.0567 11.344 91.0087 11.1707 91.0087 10.92V8.472C91.0087 8.328 91.0594 8.22133 91.1607 8.152C91.2674 8.08267 91.3847 8.048 91.5127 8.048C91.6407 8.048 91.7554 8.08267 91.8567 8.152C91.9634 8.22133 92.0167 8.328 92.0167 8.472V9.184ZM93.3207 10.76C93.4434 10.76 93.5047 10.6987 93.5047 10.576V10.008H92.0167V10.576C92.0167 10.6987 92.0781 10.76 92.2007 10.76H93.3207ZM96.8407 11.36C96.8407 11.5093 96.7874 11.6187 96.6807 11.688C96.5794 11.7573 96.4647 11.792 96.3367 11.792C96.2034 11.792 96.0834 11.7573 95.9767 11.688C95.8754 11.6187 95.8247 11.5093 95.8247 11.36V10.248H94.0567V9.384H95.8247V8.168C95.8247 8.01867 95.8754 7.90933 95.9767 7.84C96.0834 7.77067 96.2034 7.736 96.3367 7.736C96.4647 7.736 96.5794 7.77067 96.6807 7.84C96.7874 7.90933 96.8407 8.01867 96.8407 8.168V11.36ZM96.8407 14.488C96.8407 14.7387 96.7901 14.912 96.6887 15.008C96.5927 15.104 96.4167 15.152 96.1607 15.152H92.6727C92.4167 15.152 92.2381 15.104 92.1367 15.008C92.0407 14.912 91.9927 14.7387 91.9927 14.488V12.504C91.9927 12.3653 92.0434 12.2613 92.1447 12.192C92.2514 12.1227 92.3661 12.088 92.4887 12.088C92.6167 12.088 92.7314 12.1227 92.8327 12.192C92.9394 12.2613 92.9927 12.3653 92.9927 12.504V13H95.8407V12.504C95.8407 12.3653 95.8914 12.2613 95.9927 12.192C96.0994 12.1227 96.2141 12.088 96.3367 12.088C96.4647 12.088 96.5794 12.1227 96.6807 12.192C96.7874 12.2613 96.8407 12.3653 96.8407 12.504V14.488ZM95.6567 14.328C95.7794 14.328 95.8407 14.2667 95.8407 14.144V13.808H92.9927V14.144C92.9927 14.2667 93.0541 14.328 93.1767 14.328H95.6567ZM98.506 9.136C98.506 8.90133 98.562 8.70133 98.674 8.536C98.7913 8.36533 98.9567 8.22667 99.17 8.12C99.3887 8.01333 99.6527 7.936 99.962 7.888C100.271 7.83467 100.621 7.808 101.01 7.808C101.399 7.808 101.749 7.83467 102.058 7.888C102.367 7.936 102.629 8.01333 102.842 8.12C103.061 8.22667 103.226 8.36533 103.338 8.536C103.455 8.70133 103.514 8.90133 103.514 9.136C103.514 9.37067 103.455 9.57333 103.338 9.744C103.226 9.90933 103.061 10.0453 102.842 10.152C102.629 10.2587 102.367 10.3387 102.058 10.392C101.749 10.44 101.399 10.464 101.01 10.464C100.621 10.464 100.271 10.44 99.962 10.392C99.6527 10.3387 99.3887 10.2587 99.17 10.152C98.9567 10.0453 98.7913 9.90933 98.674 9.744C98.562 9.57333 98.506 9.37067 98.506 9.136ZM102.498 9.136C102.498 8.97067 102.383 8.84267 102.154 8.752C101.925 8.656 101.543 8.608 101.01 8.608C100.477 8.608 100.095 8.656 99.866 8.752C99.6367 8.84267 99.522 8.97067 99.522 9.136C99.522 9.30133 99.6367 9.432 99.866 9.528C100.095 9.61867 100.477 9.664 101.01 9.664C101.543 9.664 101.925 9.61867 102.154 9.528C102.383 9.432 102.498 9.30133 102.498 9.136ZM97.978 11.672C97.8553 11.672 97.7647 11.632 97.706 11.552C97.6527 11.472 97.626 11.3707 97.626 11.248C97.626 11.136 97.6527 11.04 97.706 10.96C97.7647 10.88 97.8553 10.84 97.978 10.84H104.042C104.165 10.84 104.253 10.88 104.306 10.96C104.365 11.04 104.394 11.136 104.394 11.248C104.394 11.3707 104.365 11.472 104.306 11.552C104.253 11.632 104.165 11.672 104.042 11.672H97.978ZM102.842 12.152C103.098 12.152 103.274 12.2 103.37 12.296C103.471 12.392 103.522 12.5653 103.522 12.816V13.4C103.522 13.6507 103.471 13.824 103.37 13.92C103.274 14.016 103.098 14.064 102.842 14.064H99.594C99.514 14.064 99.474 14.104 99.474 14.184V14.328C99.474 14.408 99.514 14.448 99.594 14.448H103.354C103.466 14.448 103.549 14.488 103.602 14.568C103.655 14.648 103.682 14.7387 103.682 14.84C103.682 14.9467 103.655 15.0373 103.602 15.112C103.549 15.192 103.466 15.232 103.354 15.232H99.162C98.906 15.232 98.7273 15.184 98.626 15.088C98.53 14.992 98.482 14.8187 98.482 14.568V13.976C98.482 13.7253 98.53 13.552 98.626 13.456C98.7273 13.36 98.906 13.312 99.162 13.312H102.41C102.49 13.312 102.53 13.272 102.53 13.192V13.056C102.53 12.976 102.49 12.936 102.41 12.936H98.794C98.682 12.936 98.5993 12.8987 98.546 12.824C98.4927 12.744 98.466 12.6507 98.466 12.544C98.466 12.4427 98.4927 12.352 98.546 12.272C98.5993 12.192 98.682 12.152 98.794 12.152H102.842ZM107.811 11.936C107.555 11.936 107.377 11.888 107.275 11.792C107.179 11.696 107.131 11.5227 107.131 11.272V8.504C107.131 8.36 107.185 8.25333 107.291 8.184C107.398 8.10933 107.515 8.072 107.643 8.072C107.771 8.072 107.889 8.10933 107.995 8.184C108.102 8.25333 108.155 8.36 108.155 8.504V9.28H111.147V8.504C111.147 8.36 111.201 8.25333 111.307 8.184C111.414 8.10933 111.531 8.072 111.659 8.072C111.787 8.072 111.905 8.10933 112.011 8.184C112.118 8.25333 112.171 8.36 112.171 8.504V11.272C112.171 11.5227 112.121 11.696 112.019 11.792C111.923 11.888 111.747 11.936 111.491 11.936H107.811ZM110.963 11.08C111.086 11.08 111.147 11.0187 111.147 10.896V10.136H108.155V10.896C108.155 11.0187 108.217 11.08 108.339 11.08H110.963ZM106.627 14.072C106.505 14.072 106.414 14.0293 106.355 13.944C106.297 13.8587 106.267 13.7573 106.267 13.64C106.267 13.5227 106.297 13.4213 106.355 13.336C106.414 13.2507 106.505 13.208 106.627 13.208H109.139V11.448H110.163V13.208H112.675C112.798 13.208 112.889 13.2507 112.947 13.336C113.006 13.4213 113.035 13.5227 113.035 13.64C113.035 13.7573 113.006 13.8587 112.947 13.944C112.889 14.0293 112.798 14.072 112.675 14.072H106.627ZM114.357 9.128C114.234 9.128 114.143 9.08533 114.085 9C114.026 8.91467 113.997 8.81067 113.997 8.688C113.997 8.56533 114.026 8.46133 114.085 8.376C114.143 8.29067 114.234 8.248 114.357 8.248H118.453C118.709 8.248 118.885 8.296 118.981 8.392C119.082 8.488 119.133 8.66133 119.133 8.912V9.632C119.133 10.1227 119.114 10.5573 119.077 10.936C119.045 11.3147 118.991 11.672 118.917 12.008C118.885 12.152 118.807 12.2507 118.685 12.304C118.567 12.3573 118.434 12.3707 118.285 12.344C118.162 12.3173 118.061 12.264 117.981 12.184C117.906 12.104 117.882 11.992 117.909 11.848C117.978 11.512 118.029 11.1627 118.061 10.8C118.093 10.4373 118.109 10.04 118.109 9.608V9.312C118.109 9.18933 118.047 9.128 117.925 9.128H114.357ZM119.637 13.208C119.759 13.208 119.85 13.2507 119.909 13.336C119.967 13.4213 119.997 13.5227 119.997 13.64C119.997 13.7573 119.967 13.8587 119.909 13.944C119.85 14.0293 119.759 14.072 119.637 14.072H113.589C113.466 14.072 113.375 14.0293 113.317 13.944C113.258 13.8587 113.229 13.7573 113.229 13.64C113.229 13.5227 113.258 13.4213 113.317 13.336C113.375 13.2507 113.466 13.208 113.589 13.208H115.589V11.056C115.589 10.9067 115.639 10.7973 115.741 10.728C115.847 10.6587 115.967 10.624 116.101 10.624C116.234 10.624 116.351 10.6587 116.453 10.728C116.559 10.7973 116.613 10.9067 116.613 11.056V13.208H119.637ZM121.55 10.144C121.72 10 121.843 9.84 121.918 9.664C121.992 9.48267 122.03 9.28 122.03 9.056V8.424C122.03 8.26933 122.08 8.15733 122.182 8.088C122.288 8.01867 122.411 7.984 122.55 7.984C122.688 7.984 122.808 8.01867 122.91 8.088C123.016 8.15733 123.07 8.26933 123.07 8.424V9.024C123.07 9.248 123.107 9.45067 123.182 9.632C123.256 9.808 123.379 9.968 123.55 10.112C123.726 10.256 123.891 10.3867 124.046 10.504C124.2 10.616 124.339 10.7173 124.462 10.808C124.574 10.888 124.632 10.9867 124.638 11.104C124.643 11.216 124.608 11.3227 124.534 11.424C124.502 11.4667 124.462 11.5067 124.414 11.544C124.371 11.576 124.323 11.6 124.27 11.616C124.216 11.632 124.158 11.6373 124.094 11.632C124.035 11.6267 123.974 11.6027 123.91 11.56C123.808 11.4907 123.688 11.4053 123.55 11.304C123.416 11.1973 123.27 11.08 123.11 10.952C122.918 10.7973 122.784 10.6773 122.71 10.592C122.635 10.5013 122.587 10.4187 122.566 10.344H122.558C122.536 10.4347 122.483 10.5307 122.398 10.632C122.318 10.728 122.182 10.8533 121.99 11.008C121.68 11.2533 121.371 11.4853 121.062 11.704C120.944 11.7893 120.827 11.8107 120.71 11.768C120.592 11.72 120.504 11.6507 120.446 11.56C120.376 11.464 120.342 11.3547 120.342 11.232C120.342 11.1093 120.403 11.0053 120.526 10.92C120.707 10.792 120.878 10.6667 121.038 10.544C121.203 10.4213 121.374 10.288 121.55 10.144ZM126.318 11.52C126.318 11.6693 126.264 11.7787 126.158 11.848C126.056 11.9173 125.939 11.952 125.806 11.952C125.672 11.952 125.552 11.9173 125.446 11.848C125.344 11.7787 125.294 11.6693 125.294 11.52V8.168C125.294 8.01867 125.344 7.90933 125.446 7.84C125.552 7.77067 125.672 7.736 125.806 7.736C125.939 7.736 126.056 7.77067 126.158 7.84C126.264 7.90933 126.318 8.01867 126.318 8.168V11.52ZM122.31 14.312V13.104H121.734C121.611 13.104 121.52 13.064 121.462 12.984C121.403 12.904 121.374 12.808 121.374 12.696C121.374 12.5787 121.403 12.48 121.462 12.4C121.52 12.32 121.611 12.28 121.734 12.28H126.086C126.208 12.28 126.299 12.32 126.358 12.4C126.416 12.48 126.446 12.5787 126.446 12.696C126.446 12.808 126.416 12.904 126.358 12.984C126.299 13.064 126.208 13.104 126.086 13.104H125.51V14.312H126.166C126.288 14.312 126.379 14.352 126.438 14.432C126.496 14.512 126.526 14.6107 126.526 14.728C126.526 14.84 126.496 14.936 126.438 15.016C126.379 15.096 126.288 15.136 126.166 15.136H121.654C121.531 15.136 121.44 15.096 121.382 15.016C121.323 14.936 121.294 14.84 121.294 14.728C121.294 14.6107 121.323 14.512 121.382 14.432C121.44 14.352 121.531 14.312 121.654 14.312H122.31ZM123.302 14.312H124.518V13.104H123.302V14.312ZM128.615 9.144C128.492 9.144 128.431 9.20533 128.431 9.328V11.84C128.431 11.9627 128.492 12.024 128.615 12.024C129.068 12.024 129.5 12.0133 129.911 11.992C130.327 11.9653 130.73 11.9253 131.119 11.872C131.242 11.856 131.338 11.8853 131.407 11.96C131.482 12.0347 131.524 12.1307 131.535 12.248C131.546 12.3707 131.53 12.48 131.487 12.576C131.444 12.6667 131.364 12.72 131.247 12.736C131.082 12.7573 130.898 12.7787 130.695 12.8C130.498 12.816 130.271 12.832 130.015 12.848C129.759 12.864 129.471 12.8773 129.151 12.888C128.836 12.8933 128.482 12.896 128.087 12.896C127.831 12.896 127.652 12.848 127.551 12.752C127.455 12.656 127.407 12.4827 127.407 12.232V8.936C127.407 8.68533 127.455 8.512 127.551 8.416C127.652 8.32 127.831 8.272 128.087 8.272H130.615C130.738 8.272 130.828 8.31467 130.887 8.4C130.946 8.48533 130.975 8.58933 130.975 8.712C130.975 8.82933 130.946 8.93067 130.887 9.016C130.828 9.10133 130.738 9.144 130.615 9.144H128.615ZM133.687 10.096C133.815 10.096 133.908 10.1387 133.967 10.224C134.026 10.3093 134.055 10.4133 134.055 10.536C134.055 10.6587 134.026 10.7653 133.967 10.856C133.908 10.9413 133.815 10.984 133.687 10.984H132.935V14.296C132.935 14.4453 132.882 14.5547 132.775 14.624C132.674 14.6933 132.556 14.728 132.423 14.728C132.29 14.728 132.17 14.6933 132.063 14.624C131.962 14.5547 131.911 14.4453 131.911 14.296V8.168C131.911 8.01867 131.962 7.90933 132.063 7.84C132.17 7.77067 132.29 7.736 132.423 7.736C132.556 7.736 132.674 7.77067 132.775 7.84C132.882 7.90933 132.935 8.01867 132.935 8.168V10.096H133.687ZM137.912 11.144C137.912 11.3947 137.862 11.568 137.76 11.664C137.664 11.76 137.488 11.808 137.232 11.808H135.128C134.872 11.808 134.694 11.76 134.592 11.664C134.496 11.568 134.448 11.3947 134.448 11.144V8.856C134.448 8.60533 134.496 8.432 134.592 8.336C134.694 8.24 134.872 8.192 135.128 8.192H137.232C137.488 8.192 137.664 8.24 137.76 8.336C137.862 8.432 137.912 8.60533 137.912 8.856V11.144ZM136.912 9.232C136.912 9.10933 136.851 9.048 136.728 9.048H135.632C135.51 9.048 135.448 9.10933 135.448 9.232V10.768C135.448 10.8907 135.51 10.952 135.632 10.952H136.728C136.851 10.952 136.912 10.8907 136.912 10.768V9.232ZM140.288 12.76C140.288 12.9093 140.235 13.0187 140.128 13.088C140.027 13.1573 139.912 13.192 139.784 13.192C139.656 13.192 139.539 13.1573 139.432 13.088C139.331 13.0187 139.28 12.9093 139.28 12.76V11.256H138.576C138.454 11.256 138.363 11.2133 138.304 11.128C138.251 11.0427 138.224 10.9387 138.224 10.816C138.224 10.6987 138.251 10.5973 138.304 10.512C138.363 10.4267 138.454 10.384 138.576 10.384H139.28V9.656H138.576C138.454 9.656 138.363 9.61333 138.304 9.528C138.251 9.44267 138.224 9.33867 138.224 9.216C138.224 9.09867 138.251 8.99733 138.304 8.912C138.363 8.82667 138.454 8.784 138.576 8.784H139.28V8.168C139.28 8.01867 139.331 7.90933 139.432 7.84C139.539 7.77067 139.656 7.736 139.784 7.736C139.912 7.736 140.027 7.77067 140.128 7.84C140.235 7.90933 140.288 8.01867 140.288 8.168V12.76ZM136.12 15.096C135.864 15.096 135.686 15.048 135.584 14.952C135.488 14.856 135.44 14.6827 135.44 14.432V12.92C135.44 12.7707 135.491 12.6613 135.592 12.592C135.699 12.5227 135.822 12.488 135.96 12.488C136.094 12.488 136.211 12.5227 136.312 12.592C136.419 12.6613 136.472 12.7707 136.472 12.92V14.04C136.472 14.1627 136.534 14.224 136.656 14.224H140.104C140.227 14.224 140.318 14.2667 140.376 14.352C140.435 14.4373 140.464 14.5413 140.464 14.664C140.464 14.7813 140.435 14.8827 140.376 14.968C140.318 15.0533 140.227 15.096 140.104 15.096H136.12ZM146.289 8.232C146.417 8.232 146.511 8.27467 146.569 8.36C146.628 8.44533 146.657 8.54667 146.657 8.664C146.657 8.78133 146.628 8.88267 146.569 8.968C146.511 9.05333 146.417 9.096 146.289 9.096H144.313C144.191 9.096 144.129 9.15733 144.129 9.28V10.16H145.977C146.1 10.16 146.188 10.2027 146.241 10.288C146.3 10.368 146.329 10.4667 146.329 10.584C146.329 10.7013 146.3 10.8027 146.241 10.888C146.188 10.968 146.1 11.008 145.977 11.008H144.129V11.912C144.129 12.0347 144.191 12.096 144.313 12.096C144.777 12.096 145.215 12.0853 145.625 12.064C146.041 12.0373 146.444 11.9973 146.833 11.944C146.956 11.928 147.052 11.9573 147.121 12.032C147.196 12.1013 147.239 12.1973 147.249 12.32C147.26 12.4373 147.244 12.544 147.201 12.64C147.159 12.7307 147.079 12.784 146.961 12.8C146.796 12.8213 146.612 12.8427 146.409 12.864C146.212 12.88 145.985 12.896 145.729 12.912C145.473 12.928 145.185 12.9413 144.865 12.952C144.551 12.9573 144.196 12.96 143.801 12.96C143.545 12.96 143.367 12.912 143.265 12.816C143.169 12.72 143.121 12.5467 143.121 12.296V8.896C143.121 8.64533 143.169 8.472 143.265 8.376C143.367 8.28 143.545 8.232 143.801 8.232H146.289ZM147.913 10.96H147.065C146.937 10.96 146.844 10.9173 146.785 10.832C146.727 10.7467 146.697 10.6427 146.697 10.52C146.697 10.3973 146.727 10.2933 146.785 10.208C146.844 10.1227 146.937 10.08 147.065 10.08H147.913V8.168C147.913 8.01867 147.964 7.90933 148.065 7.84C148.172 7.77067 148.292 7.736 148.425 7.736C148.553 7.736 148.668 7.77067 148.769 7.84C148.876 7.90933 148.929 8.01867 148.929 8.168V14.296C148.929 14.4453 148.876 14.5547 148.769 14.624C148.668 14.6933 148.553 14.728 148.425 14.728C148.292 14.728 148.172 14.6933 148.065 14.624C147.964 14.5547 147.913 14.4453 147.913 14.296V10.96ZM152.619 9.584V9.984C152.619 10.1493 152.627 10.2933 152.643 10.416C152.664 10.5387 152.696 10.6533 152.739 10.76C152.781 10.8613 152.84 10.9627 152.915 11.064C152.989 11.16 153.083 11.264 153.195 11.376C153.355 11.536 153.507 11.6827 153.651 11.816C153.795 11.9493 153.931 12.072 154.059 12.184C154.155 12.2693 154.192 12.376 154.171 12.504C154.155 12.6267 154.107 12.728 154.027 12.808C153.947 12.888 153.848 12.9387 153.731 12.96C153.613 12.9813 153.507 12.9493 153.411 12.864C153.304 12.7733 153.189 12.6693 153.067 12.552C152.944 12.4293 152.811 12.296 152.667 12.152C152.56 12.0507 152.472 11.9627 152.403 11.888C152.339 11.8133 152.285 11.752 152.243 11.704C152.205 11.6507 152.176 11.6053 152.155 11.568C152.133 11.5253 152.12 11.4853 152.115 11.448H152.107C152.096 11.496 152.08 11.5413 152.059 11.584C152.043 11.6267 152.013 11.6773 151.971 11.736C151.933 11.7893 151.88 11.8533 151.811 11.928C151.747 11.9973 151.661 12.0827 151.555 12.184C151.411 12.3227 151.267 12.4587 151.123 12.592C150.984 12.7253 150.837 12.856 150.683 12.984C150.576 13.0693 150.461 13.096 150.339 13.064C150.216 13.0267 150.117 12.9653 150.043 12.88C149.968 12.7893 149.928 12.6853 149.923 12.568C149.917 12.4453 149.965 12.3413 150.067 12.256C150.237 12.112 150.397 11.9707 150.547 11.832C150.701 11.688 150.859 11.536 151.019 11.376C151.131 11.264 151.224 11.16 151.299 11.064C151.373 10.9627 151.432 10.8613 151.475 10.76C151.517 10.6533 151.547 10.5387 151.563 10.416C151.584 10.2933 151.595 10.1493 151.595 9.984V9.584H150.347C150.224 9.584 150.133 9.54133 150.075 9.456C150.016 9.37067 149.987 9.26933 149.987 9.152C149.987 9.02933 150.016 8.92533 150.075 8.84C150.133 8.75467 150.224 8.712 150.347 8.712H151.595V8.144C151.595 7.99467 151.645 7.88533 151.747 7.816C151.853 7.74667 151.973 7.712 152.107 7.712C152.24 7.712 152.357 7.74667 152.459 7.816C152.565 7.88533 152.619 7.99467 152.619 8.144V8.712H153.803C153.925 8.712 154.016 8.75467 154.075 8.84C154.133 8.92533 154.163 9.02933 154.163 9.152C154.163 9.26933 154.133 9.37067 154.075 9.456C154.016 9.54133 153.925 9.584 153.803 9.584H152.619ZM155.843 14.296C155.843 14.4453 155.789 14.5547 155.683 14.624C155.581 14.6933 155.461 14.728 155.323 14.728C155.189 14.728 155.069 14.6933 154.963 14.624C154.861 14.5547 154.811 14.4453 154.811 14.296V8.168C154.811 8.01867 154.861 7.90933 154.963 7.84C155.069 7.77067 155.189 7.736 155.323 7.736C155.461 7.736 155.581 7.77067 155.683 7.84C155.789 7.90933 155.843 8.01867 155.843 8.168V14.296ZM158.86 9.968C159.132 9.968 159.377 10.008 159.596 10.088C159.82 10.1627 160.007 10.2693 160.156 10.408C160.311 10.5467 160.428 10.7173 160.508 10.92C160.593 11.1173 160.636 11.336 160.636 11.576C160.636 11.816 160.593 12.0373 160.508 12.24C160.428 12.4373 160.311 12.6053 160.156 12.744C160.007 12.8827 159.82 12.992 159.596 13.072C159.377 13.1467 159.132 13.184 158.86 13.184C158.588 13.184 158.34 13.1467 158.116 13.072C157.897 12.992 157.711 12.8827 157.556 12.744C157.407 12.6053 157.289 12.4373 157.204 12.24C157.124 12.0373 157.084 11.816 157.084 11.576C157.084 11.336 157.124 11.1173 157.204 10.92C157.289 10.7173 157.407 10.5467 157.556 10.408C157.711 10.2693 157.897 10.1627 158.116 10.088C158.34 10.008 158.588 9.968 158.86 9.968ZM158.348 8.704V8.152C158.348 8.00267 158.399 7.89333 158.5 7.824C158.607 7.75467 158.727 7.72 158.86 7.72C158.993 7.72 159.111 7.75467 159.212 7.824C159.319 7.89333 159.372 8.00267 159.372 8.152V8.704H160.628C160.751 8.704 160.841 8.74667 160.9 8.832C160.959 8.91733 160.988 9.01867 160.988 9.136C160.988 9.25333 160.959 9.35467 160.9 9.44C160.841 9.52533 160.751 9.568 160.628 9.568H156.996C156.873 9.568 156.783 9.52533 156.724 9.44C156.665 9.35467 156.636 9.25333 156.636 9.136C156.636 9.01867 156.665 8.91733 156.724 8.832C156.783 8.74667 156.873 8.704 156.996 8.704H158.348ZM158.86 12.368C159.116 12.368 159.321 12.2987 159.476 12.16C159.631 12.016 159.708 11.8213 159.708 11.576C159.708 11.3307 159.631 11.1387 159.476 11C159.321 10.856 159.116 10.784 158.86 10.784C158.604 10.784 158.399 10.856 158.244 11C158.089 11.1387 158.012 11.3307 158.012 11.576C158.012 11.8213 158.089 12.016 158.244 12.16C158.399 12.2987 158.604 12.368 158.86 12.368ZM162.46 10.176H163.212C163.34 10.176 163.433 10.2187 163.492 10.304C163.551 10.3893 163.58 10.4933 163.58 10.616C163.58 10.7387 163.551 10.8453 163.492 10.936C163.433 11.0213 163.34 11.064 163.212 11.064H162.46V14.296C162.46 14.4453 162.407 14.5547 162.3 14.624C162.199 14.6933 162.084 14.728 161.956 14.728C161.823 14.728 161.703 14.6933 161.596 14.624C161.495 14.5547 161.444 14.4453 161.444 14.296V8.168C161.444 8.01867 161.495 7.90933 161.596 7.84C161.703 7.77067 161.823 7.736 161.956 7.736C162.084 7.736 162.199 7.77067 162.3 7.84C162.407 7.90933 162.46 8.01867 162.46 8.168V10.176ZM164.957 8.592C164.957 8.44267 165.008 8.33333 165.109 8.264C165.216 8.19467 165.336 8.16 165.469 8.16C165.603 8.16 165.72 8.19467 165.821 8.264C165.928 8.33333 165.981 8.44267 165.981 8.592V9.736C165.981 10.056 166.016 10.3307 166.085 10.56C166.155 10.7893 166.275 11.008 166.445 11.216C166.568 11.3707 166.691 11.5173 166.813 11.656C166.941 11.7947 167.051 11.9147 167.141 12.016C167.232 12.112 167.267 12.224 167.245 12.352C167.229 12.48 167.179 12.5813 167.093 12.656C167.003 12.736 166.896 12.7787 166.773 12.784C166.651 12.784 166.544 12.7387 166.453 12.648C166.389 12.5787 166.307 12.488 166.205 12.376C166.104 12.264 166.005 12.1493 165.909 12.032C165.829 11.936 165.763 11.8507 165.709 11.776C165.656 11.7013 165.613 11.6373 165.581 11.584C165.549 11.5253 165.525 11.4747 165.509 11.432C165.493 11.3893 165.483 11.3467 165.477 11.304H165.469C165.453 11.3947 165.416 11.496 165.357 11.608C165.304 11.72 165.195 11.8747 165.029 12.072C164.933 12.1893 164.829 12.3093 164.717 12.432C164.611 12.5547 164.499 12.6773 164.381 12.8C164.291 12.8907 164.181 12.9333 164.053 12.928C163.925 12.9173 163.821 12.872 163.741 12.792C163.651 12.7013 163.597 12.5947 163.581 12.472C163.565 12.344 163.603 12.2293 163.693 12.128C163.837 11.9733 163.976 11.8213 164.109 11.672C164.243 11.5227 164.371 11.3707 164.493 11.216C164.664 11.008 164.784 10.7893 164.853 10.56C164.923 10.3307 164.957 10.056 164.957 9.736V8.592ZM169.053 8.136C169.053 7.99733 169.101 7.896 169.197 7.832C169.293 7.768 169.403 7.736 169.525 7.736C169.648 7.736 169.757 7.768 169.853 7.832C169.949 7.896 169.997 7.99733 169.997 8.136V14.328C169.997 14.4667 169.949 14.568 169.853 14.632C169.757 14.696 169.648 14.728 169.525 14.728C169.403 14.728 169.293 14.696 169.197 14.632C169.101 14.568 169.053 14.4667 169.053 14.328V8.136ZM167.597 8.216C167.597 8.07733 167.645 7.976 167.741 7.912C167.837 7.848 167.947 7.816 168.069 7.816C168.187 7.816 168.293 7.848 168.389 7.912C168.485 7.976 168.533 8.07733 168.533 8.216V13.992C168.533 14.1307 168.485 14.232 168.389 14.296C168.293 14.36 168.187 14.392 168.069 14.392C167.947 14.392 167.837 14.36 167.741 14.296C167.645 14.232 167.597 14.1307 167.597 13.992V10.704H167.005C166.883 10.704 166.792 10.6613 166.733 10.576C166.675 10.4907 166.645 10.3867 166.645 10.264C166.645 10.1413 166.675 10.0373 166.733 9.952C166.792 9.86667 166.883 9.824 167.005 9.824H167.597V8.216ZM171.454 9.968C171.454 9.65867 171.513 9.384 171.63 9.144C171.748 8.89867 171.913 8.69333 172.126 8.528C172.345 8.35733 172.609 8.22933 172.918 8.144C173.233 8.05867 173.588 8.016 173.982 8.016C174.372 8.016 174.724 8.05867 175.038 8.144C175.353 8.22933 175.617 8.35733 175.83 8.528C176.049 8.69333 176.217 8.89867 176.334 9.144C176.452 9.384 176.51 9.65867 176.51 9.968C176.51 10.2827 176.452 10.56 176.334 10.8C176.217 11.04 176.049 11.2453 175.83 11.416C175.617 11.5813 175.353 11.7067 175.038 11.792C174.724 11.8773 174.372 11.92 173.982 11.92C173.588 11.92 173.233 11.8773 172.918 11.792C172.609 11.7067 172.345 11.5813 172.126 11.416C171.913 11.2453 171.748 11.04 171.63 10.8C171.513 10.56 171.454 10.2827 171.454 9.968ZM175.486 9.968C175.486 9.81333 175.457 9.66933 175.398 9.536C175.345 9.40267 175.257 9.288 175.134 9.192C175.012 9.096 174.854 9.02133 174.662 8.968C174.476 8.90933 174.249 8.88 173.982 8.88C173.716 8.88 173.486 8.90933 173.294 8.968C173.108 9.02133 172.953 9.096 172.83 9.192C172.708 9.288 172.617 9.40267 172.558 9.536C172.505 9.66933 172.478 9.81333 172.478 9.968C172.478 10.1227 172.505 10.2667 172.558 10.4C172.617 10.5333 172.708 10.648 172.83 10.744C172.953 10.84 173.108 10.9173 173.294 10.976C173.486 11.0293 173.716 11.056 173.982 11.056C174.249 11.056 174.476 11.0293 174.662 10.976C174.854 10.9173 175.012 10.84 175.134 10.744C175.257 10.648 175.345 10.5333 175.398 10.4C175.457 10.2667 175.486 10.1227 175.486 9.968ZM170.958 14.072C170.836 14.072 170.745 14.0293 170.686 13.944C170.628 13.8587 170.598 13.7573 170.598 13.64C170.598 13.528 170.628 13.4293 170.686 13.344C170.745 13.2587 170.836 13.216 170.958 13.216H172.27V12.472C172.27 12.3227 172.321 12.2133 172.422 12.144C172.524 12.0747 172.644 12.04 172.782 12.04C172.921 12.04 173.041 12.0747 173.142 12.144C173.244 12.2133 173.294 12.3227 173.294 12.472V13.216H174.67V12.472C174.67 12.3227 174.721 12.2133 174.822 12.144C174.924 12.0747 175.044 12.04 175.182 12.04C175.321 12.04 175.441 12.0747 175.542 12.144C175.644 12.2133 175.694 12.3227 175.694 12.472V13.216H177.006C177.129 13.216 177.22 13.2587 177.278 13.344C177.337 13.4293 177.366 13.528 177.366 13.64C177.366 13.7573 177.337 13.8587 177.278 13.944C177.22 14.0293 177.129 14.072 177.006 14.072H170.958ZM178.584 13.152C178.754 13.152 178.898 13.2107 179.016 13.328C179.133 13.4453 179.192 13.5893 179.192 13.76C179.192 13.9307 179.133 14.0747 179.016 14.192C178.898 14.3093 178.754 14.368 178.584 14.368C178.413 14.368 178.269 14.3093 178.152 14.192C178.034 14.0747 177.976 13.9307 177.976 13.76C177.976 13.5893 178.034 13.4453 178.152 13.328C178.269 13.2107 178.413 13.152 178.584 13.152ZM178.584 8.032C178.754 8.032 178.89 8.06933 178.992 8.144C179.098 8.21867 179.149 8.344 179.144 8.52L179.016 12.176C179.01 12.3413 178.962 12.456 178.872 12.52C178.786 12.584 178.69 12.616 178.584 12.616C178.477 12.616 178.378 12.584 178.288 12.52C178.202 12.456 178.157 12.3413 178.152 12.176L178.024 8.52C178.018 8.344 178.066 8.21867 178.168 8.144C178.274 8.06933 178.413 8.032 178.584 8.032Z" fill="#1F5FFF"/>
<path d="M29 12L32 10H33V14H32L29 12Z" fill="white"/>
</svg>
