<svg width="32" height="32" viewBox="0 0 32 32" fill="none" xmlns="http://www.w3.org/2000/svg">
<mask id="mask0_1949_18264" style="mask-type:alpha" maskUnits="userSpaceOnUse" x="0" y="0" width="32" height="32">
<rect width="32" height="32" fill="#D9D9D9"/>
</mask>
<g mask="url(#mask0_1949_18264)">
<path d="M22.6991 18.6532C22.2401 18.8368 21.876 19.1909 21.6082 19.6065C20.4217 21.4475 18.3534 22.6666 16.0003 22.6666C13.6473 22.6666 11.5789 21.4475 10.3925 19.6065C10.1247 19.1909 9.76054 18.8368 9.30155 18.6532L3.50514 16.3346C2.99893 16.1322 2.66699 15.6419 2.66699 15.0967V12.1394C2.66699 11.3505 3.34808 10.7342 4.133 10.8127L10.0759 11.4069C10.7047 11.4698 11.3142 11.2164 11.805 10.8185C12.9507 9.88973 14.4105 9.33325 16.0003 9.33325C17.5901 9.33325 19.0499 9.88973 20.1956 10.8185C20.6865 11.2164 21.296 11.4698 21.9247 11.4069L27.8677 10.8127C28.6526 10.7342 29.3337 11.3505 29.3337 12.1394V15.0967C29.3337 15.6419 29.0017 16.1322 28.4955 16.3346L22.6991 18.6532Z" fill="#1F5FFF"/>
<path d="M20 16C20 18.2091 18.2091 20 16 20C13.7909 20 12 18.2091 12 16C12 13.7909 13.7909 12 16 12C18.2091 12 20 13.7909 20 16Z" fill="white"/>
</g>
<circle cx="26.6673" cy="19.3333" r="5.33333" fill="#EFF5FF"/>
<path d="M26.6222 16.9089C26.8549 16.9089 27.0639 16.9441 27.2493 17.0144C27.4346 17.0798 27.5919 17.1752 27.7212 17.3008C27.8505 17.4214 27.9496 17.5671 28.0185 17.738C28.0875 17.9088 28.122 18.0972 28.122 18.3032V18.3861C28.122 18.5067 28.1091 18.6222 28.0832 18.7328C28.0616 18.8383 28.0207 18.9463 27.9604 19.0568C27.9043 19.1674 27.8246 19.2854 27.7212 19.4111C27.622 19.5367 27.4971 19.6799 27.3462 19.8406C27.2514 19.9411 27.176 20.029 27.12 20.1044C27.0639 20.1748 27.0208 20.2426 26.9907 20.3079C26.9605 20.3682 26.9411 20.431 26.9325 20.4963C26.9239 20.5566 26.9196 20.6269 26.9196 20.7073C26.9196 20.8229 26.8808 20.9133 26.8032 20.9786C26.7299 21.044 26.6437 21.0766 26.5446 21.0766C26.4369 21.0766 26.3442 21.0465 26.2666 20.9862C26.1891 20.9209 26.1503 20.8204 26.1503 20.6847C26.1503 20.5541 26.1567 20.436 26.1697 20.3305C26.1826 20.225 26.2063 20.1245 26.2408 20.029C26.2796 19.9286 26.3334 19.8306 26.4024 19.7351C26.4757 19.6346 26.5705 19.5241 26.6868 19.4035C26.8204 19.2679 26.926 19.1548 27.0036 19.0644C27.0855 18.9689 27.148 18.8835 27.1911 18.8081C27.2342 18.7328 27.2622 18.6649 27.2751 18.6046C27.288 18.5393 27.2945 18.469 27.2945 18.3936V18.3559C27.2945 18.2756 27.2816 18.2002 27.2557 18.1298C27.2299 18.0595 27.1889 17.9967 27.1329 17.9414C27.0812 17.8862 27.0101 17.8435 26.9196 17.8133C26.8334 17.7781 26.7256 17.7606 26.5963 17.7606C26.4239 17.7606 26.2731 17.7907 26.1438 17.851C26.0145 17.9113 25.8917 17.9892 25.7753 18.0846C25.6891 18.155 25.6029 18.1801 25.5167 18.16C25.4348 18.1349 25.3637 18.0746 25.3034 17.9791C25.2431 17.8887 25.2129 17.7882 25.2129 17.6777C25.2172 17.5621 25.2625 17.4666 25.3486 17.3913C25.5081 17.2456 25.6913 17.13 25.8981 17.0446C26.1093 16.9542 26.3507 16.9089 26.6222 16.9089ZM26.5381 21.5816C26.6761 21.5816 26.7924 21.6368 26.8872 21.7474C26.982 21.8579 27.0295 21.9936 27.0295 22.1543C27.0295 22.3151 26.982 22.4508 26.8872 22.5613C26.7924 22.6718 26.6761 22.7271 26.5381 22.7271C26.4002 22.7271 26.2839 22.6718 26.1891 22.5613C26.0942 22.4508 26.0468 22.3151 26.0468 22.1543C26.0468 21.9936 26.0942 21.8579 26.1891 21.7474C26.2839 21.6368 26.4002 21.5816 26.5381 21.5816Z" fill="#1F5FFF"/>
</svg>
