<svg width="360" height="280" viewBox="0 0 360 280" fill="none" xmlns="http://www.w3.org/2000/svg">
<g clip-path="url(#clip0_1903_12405)">
<rect width="360" height="280" fill="#2D3C7C"/>
<circle cx="129" cy="266" r="59" fill="#36588F"/>
<path d="M228.878 245.799C252.269 245.799 271.225 226.843 271.225 203.452C271.225 180.06 252.269 161.104 228.878 161.104C205.486 161.104 186.53 180.06 186.53 203.452C186.53 226.843 205.486 245.799 228.878 245.799Z" fill="#36588F"/>
<path d="M284.162 194.596C320.655 194.596 350.256 165.296 350.256 129.144C350.256 92.9925 320.669 63.6919 284.162 63.6919C247.656 63.6919 218.069 92.9925 218.069 129.144C218.069 165.296 247.656 194.596 284.162 194.596Z" fill="#FFE9A9"/>
<path d="M376.063 260.298C409.512 260.298 436.629 233.181 436.629 199.731C436.629 166.282 409.512 139.165 376.063 139.165C342.613 139.165 315.496 166.282 315.496 199.731C315.496 233.181 342.613 260.298 376.063 260.298Z" fill="#36588F"/>
<path d="M312 383C360.61 383 400 343.61 400 295C400 246.39 360.61 207 312 207C263.39 207 224 246.39 224 295C224 343.61 263.39 383 312 383Z" fill="#36588F"/>
<path d="M296.227 289.662C326.06 289.662 350.242 265.479 350.242 235.646C350.242 205.813 326.06 181.63 296.227 181.63C266.394 181.63 242.211 205.813 242.211 235.646C242.211 265.479 266.394 289.662 296.227 289.662Z" fill="#36588F"/>
<path d="M239.454 268.618C252.051 268.618 262.273 258.396 262.273 245.8C262.273 233.203 252.064 222.981 239.454 222.981C226.844 222.981 216.636 233.203 216.636 245.8C216.636 258.396 226.858 268.618 239.454 268.618Z" fill="#36588F"/>
<circle cx="82.5" cy="82.5" r="8.5" fill="#36588F"/>
<circle cx="9.20833" cy="198.791" r="18.2083" fill="#36588F"/>
<circle cx="25.875" cy="188.875" r="11.875" fill="#36588F"/>
<rect y="240" width="360" height="40" fill="#00763D"/>
<path fill-rule="evenodd" clip-rule="evenodd" d="M14 241V231L20 237L26 231L32 237L38 231V241H26H14Z" fill="#00763D"/>
<path fill-rule="evenodd" clip-rule="evenodd" d="M38 241V231L44 237L50 231L56 237L62 231V241H50H38Z" fill="#00763D"/>
<path fill-rule="evenodd" clip-rule="evenodd" d="M296 241V231L302 237L308 231L314 237L320 231V241H308H296Z" fill="#00763D"/>
<path fill-rule="evenodd" clip-rule="evenodd" d="M90 241V231L96 237L102 231L108 237L114 231V241H102H90Z" fill="#00763D"/>
<path fill-rule="evenodd" clip-rule="evenodd" d="M348 241V231L354 237L360 231L366 237L372 231V241H360H348Z" fill="#00763D"/>
</g>
<path d="M271.539 214.143C260.122 237.162 232.213 246.562 209.21 235.134C197.227 229.182 188.94 218.75 185.365 206.867C187.289 208.289 189.348 209.573 191.535 210.708C214.265 222.496 242.581 213.472 254.287 190.687C257.676 184.092 259.342 177.075 259.447 170.145C259.524 165.326 265.759 163.43 268.449 167.427C277.472 180.853 279.24 198.616 271.539 214.143Z" fill="black"/>
<path d="M131.942 225.403H144.387V240H122.907V234.445C122.907 229.455 126.956 225.403 131.942 225.403Z" fill="#FFF9E1"/>
<path d="M131.599 123.052V228.124C131.599 234.678 136.909 239.996 143.462 239.996H226.487C246.032 239.996 257.195 217.663 245.464 202.012L195.809 135.749L175.357 108.452C173.393 105.833 171.122 103.776 168.666 102.244C153.596 92.7933 131.603 102.944 131.603 123.052H131.599Z" fill="#FFF9E1"/>
<path d="M160.725 101.325L158.746 100.683C158.742 100.366 158.509 92.8337 148.32 92.8337C147.715 92.8337 147.223 92.3413 147.223 91.7358C147.223 91.1303 147.715 90.6379 148.32 90.6379C155.732 90.6379 158.79 94.176 160.054 97.0501C160.149 96.3936 160.164 95.6568 160.029 94.8653C159.613 92.3997 157.897 90.0872 154.93 87.9936C154.435 87.6434 154.318 86.9613 154.664 86.4653C155.014 85.9692 155.696 85.8525 156.191 86.199C159.672 88.6537 161.691 91.4623 162.197 94.5443C162.828 98.3924 160.812 101.201 160.729 101.321L160.725 101.325Z" fill="#FFF9E1"/>
<path d="M154.569 129.603C154.569 132.813 153.487 134.418 151.322 134.418C149.158 134.418 148.075 132.813 148.075 129.603C148.075 126.944 149.529 124.789 151.322 124.789C153.115 124.789 154.569 126.944 154.569 129.603Z" fill="#0B0C10"/>
<path d="M145.812 129.603C145.812 132.813 144.73 134.418 142.565 134.418C140.4 134.418 139.318 132.813 139.318 129.603C139.318 126.944 140.772 124.789 142.565 124.789C144.358 124.789 145.812 126.944 145.812 129.603Z" fill="#0B0C10"/>
<path d="M154.573 122.98C154.216 122.98 153.866 122.805 153.655 122.48C153.618 122.429 152.653 121.028 150.758 121.028C148.863 121.028 147.897 122.429 147.857 122.491C147.653 122.794 147.314 122.983 146.938 122.976C146.57 122.976 146.228 122.79 146.027 122.484C145.991 122.433 145.025 121.032 143.13 121.032C141.235 121.032 140.269 122.433 140.229 122.495C139.894 122.991 139.216 123.129 138.717 122.797C138.217 122.465 138.075 121.798 138.4 121.295C138.465 121.196 140.025 118.847 143.13 118.847C144.901 118.847 146.169 119.609 146.942 120.284C147.718 119.609 148.987 118.847 150.754 118.847C153.859 118.847 155.419 121.196 155.484 121.295C155.812 121.802 155.67 122.48 155.164 122.808C154.981 122.929 154.774 122.983 154.57 122.983L154.573 122.98Z" fill="#0B0C10"/>
<path d="M168.877 102.243V157.155C168.877 164.651 174.956 170.735 182.445 170.735C189.935 170.735 196.021 164.651 196.021 157.155V135.745L175.568 108.448C173.604 105.829 171.334 103.772 168.877 102.24V102.243Z" fill="#0B0C10"/>
<path d="M131.599 136.606H119.649C118.95 136.606 118.301 136.803 117.747 137.139C117.087 137.544 116.566 138.153 116.271 138.868C116.023 139.466 115.936 140.137 116.049 140.83C116.971 146.484 119.715 151.524 123.654 155.329C128.33 159.848 134.697 162.627 141.712 162.627C156.067 162.627 167.711 150.981 167.711 136.606H131.599Z" fill="#FFF9E1"/>
<path d="M128.068 140.291C127.721 144.139 126.202 147.728 123.676 150.649C121.453 148.074 119.999 144.974 119.449 141.596C119.38 141.151 119.58 140.838 119.704 140.692C119.831 140.542 120.116 140.291 120.568 140.291H128.068Z" fill="#0B0C10"/>
<defs>
<clipPath id="clip0_1903_12405">
<rect width="360" height="280" fill="white"/>
</clipPath>
</defs>
</svg>
