<svg width="1920" height="440" viewBox="0 0 1920 440" fill="none" xmlns="http://www.w3.org/2000/svg">
<g clip-path="url(#clip0_1923_12480)">
<rect width="1920" height="440" fill="#A5C6FF"/>
<path d="M-5.57 394.54C23.9386 394.54 47.86 370.618 47.86 341.11C47.86 311.601 23.9386 287.68 -5.57 287.68C-35.0786 287.68 -59 311.601 -59 341.11C-59 370.618 -35.0786 394.54 -5.57 394.54Z" fill="#449858"/>
<path d="M103.37 502.88C165.469 502.88 215.81 452.539 215.81 390.44C215.81 328.341 165.469 278 103.37 278C41.2713 278 -9.06982 328.341 -9.06982 390.44C-9.06982 452.539 41.2713 502.88 103.37 502.88Z" fill="#449858"/>
<path d="M261.18 618.25C349.375 618.25 420.87 546.754 420.87 458.56C420.87 370.366 349.375 298.87 261.18 298.87C172.986 298.87 101.49 370.366 101.49 458.56C101.49 546.754 172.986 618.25 261.18 618.25Z" fill="#449858"/>
<path d="M404.43 394.54C433.939 394.54 457.86 370.618 457.86 341.11C457.86 311.601 433.939 287.68 404.43 287.68C374.921 287.68 351 311.601 351 341.11C351 370.618 374.921 394.54 404.43 394.54Z" fill="#449858"/>
<path d="M814.43 394.54C843.939 394.54 867.86 370.618 867.86 341.11C867.86 311.601 843.939 287.68 814.43 287.68C784.921 287.68 761 311.601 761 341.11C761 370.618 784.921 394.54 814.43 394.54Z" fill="#449858"/>
<path d="M1224.43 394.54C1253.94 394.54 1277.86 370.618 1277.86 341.11C1277.86 311.601 1253.94 287.68 1224.43 287.68C1194.92 287.68 1171 311.601 1171 341.11C1171 370.618 1194.92 394.54 1224.43 394.54Z" fill="#449858"/>
<path d="M1634.43 394.54C1663.94 394.54 1687.86 370.618 1687.86 341.11C1687.86 311.601 1663.94 287.68 1634.43 287.68C1604.92 287.68 1581 311.601 1581 341.11C1581 370.618 1604.92 394.54 1634.43 394.54Z" fill="#449858"/>
<path d="M513.37 502.88C575.469 502.88 625.81 452.539 625.81 390.44C625.81 328.341 575.469 278 513.37 278C451.271 278 400.93 328.341 400.93 390.44C400.93 452.539 451.271 502.88 513.37 502.88Z" fill="#449858"/>
<path d="M923.37 502.88C985.469 502.88 1035.81 452.539 1035.81 390.44C1035.81 328.341 985.469 278 923.37 278C861.271 278 810.93 328.341 810.93 390.44C810.93 452.539 861.271 502.88 923.37 502.88Z" fill="#449858"/>
<path d="M1333.37 502.88C1395.47 502.88 1445.81 452.539 1445.81 390.44C1445.81 328.341 1395.47 278 1333.37 278C1271.27 278 1220.93 328.341 1220.93 390.44C1220.93 452.539 1271.27 502.88 1333.37 502.88Z" fill="#449858"/>
<path d="M1743.37 502.88C1805.47 502.88 1855.81 452.539 1855.81 390.44C1855.81 328.341 1805.47 278 1743.37 278C1681.27 278 1630.93 328.341 1630.93 390.44C1630.93 452.539 1681.27 502.88 1743.37 502.88Z" fill="#449858"/>
<path d="M671.18 618.25C759.375 618.25 830.87 546.754 830.87 458.56C830.87 370.366 759.375 298.87 671.18 298.87C582.986 298.87 511.49 370.366 511.49 458.56C511.49 546.754 582.986 618.25 671.18 618.25Z" fill="#449858"/>
<path d="M1081.18 618.25C1169.37 618.25 1240.87 546.754 1240.87 458.56C1240.87 370.366 1169.37 298.87 1081.18 298.87C992.986 298.87 921.49 370.366 921.49 458.56C921.49 546.754 992.986 618.25 1081.18 618.25Z" fill="#449858"/>
<path d="M1491.18 618.25C1579.37 618.25 1650.87 546.754 1650.87 458.56C1650.87 370.366 1579.37 298.87 1491.18 298.87C1402.99 298.87 1331.49 370.366 1331.49 458.56C1331.49 546.754 1402.99 618.25 1491.18 618.25Z" fill="#449858"/>
<path d="M1901.18 618.25C1989.37 618.25 2060.87 546.754 2060.87 458.56C2060.87 370.366 1989.37 298.87 1901.18 298.87C1812.99 298.87 1741.49 370.366 1741.49 458.56C1741.49 546.754 1812.99 618.25 1901.18 618.25Z" fill="#449858"/>
<path d="M1920 355H0V442H1920V355Z" fill="#FF6248"/>
<path d="M1920 354.7H0" stroke="white" stroke-width="5" stroke-miterlimit="10"/>
<path d="M1920 408.35H0" stroke="white" stroke-width="10" stroke-miterlimit="10"/>
<path d="M1976.5 311L1813 474.5" stroke="white" stroke-width="10" stroke-miterlimit="10"/>
<g clip-path="url(#clip1_1923_12480)">
<path d="M961.214 348.31C966.406 340.568 976.933 338.478 984.712 343.645L1021.14 367.842C1028.92 373.009 1031.02 383.486 1025.83 391.228L1021.12 398.24C1018.53 402.111 1013.26 403.156 1009.37 400.572L965.901 371.695C958.122 366.528 956.023 356.051 961.214 348.31Z" fill="#E5DCB5"/>
<path d="M953.933 353.945C955.557 363.111 949.4 371.862 940.19 373.478L897.059 381.047C887.849 382.663 879.056 376.536 877.432 367.37L875.961 359.067C875.149 354.484 878.228 350.108 882.833 349.3L934.306 340.267C943.516 338.651 952.309 344.778 953.933 353.945Z" fill="#E5DCB5"/>
<path d="M1040.09 331.56C1027.85 356.136 997.908 366.169 973.232 353.97C960.381 347.613 951.486 336.476 947.657 323.796C949.724 325.313 951.935 326.687 954.273 327.893C978.653 340.48 1009.03 330.844 1021.59 306.521C1025.22 299.481 1027.01 291.986 1027.13 284.592C1027.21 279.449 1033.89 277.426 1036.78 281.692C1046.47 296.024 1048.35 314.985 1040.09 331.569V331.56Z" fill="black"/>
<path d="M955.392 314.842H989.48C1010.13 314.842 1026.89 331.527 1026.89 352.073C1026.89 372.627 1010.12 389.303 989.48 389.303H955.392V314.833V314.842Z" fill="#FFF9E1"/>
<path d="M955.392 294.667V389.303C929.19 389.303 906.962 372.382 899.143 348.919C898.118 345.859 897.339 342.681 896.83 339.418C896.415 336.796 896.178 334.123 896.136 331.392C896.136 331.13 896.136 330.86 896.136 330.591V294.667C896.136 278.378 909.402 265.176 925.768 265.176C942.134 265.176 955.4 278.378 955.4 294.667H955.392Z" fill="#FFF9E1"/>
<path d="M928.216 267.713L926.09 267.031C926.09 266.693 925.836 258.65 914.908 258.65C914.256 258.65 913.73 258.128 913.73 257.478C913.73 256.829 914.256 256.307 914.908 256.307C922.854 256.307 926.141 260.084 927.496 263.152C927.598 262.453 927.615 261.66 927.471 260.817C927.022 258.187 925.183 255.716 921.998 253.482C921.465 253.111 921.338 252.378 921.719 251.847C922.092 251.315 922.829 251.189 923.354 251.56C927.09 254.182 929.25 257.175 929.792 260.471C930.47 264.577 928.309 267.579 928.216 267.705V267.713Z" fill="#FFF9E1"/>
<path d="M921.608 297.904C921.608 301.333 920.448 303.047 918.127 303.047C915.806 303.047 914.645 301.333 914.645 297.904C914.645 295.063 916.204 292.761 918.127 292.761C920.05 292.761 921.608 295.063 921.608 297.904Z" fill="#0B0C10"/>
<path d="M912.214 297.904C912.214 301.333 911.053 303.047 908.732 303.047C906.411 303.047 905.25 301.333 905.25 297.904C905.25 295.063 906.809 292.761 908.732 292.761C910.655 292.761 912.214 295.063 912.214 297.904Z" fill="#0B0C10"/>
<path d="M921.617 290.831C921.235 290.831 920.854 290.646 920.634 290.3C920.6 290.241 919.558 288.749 917.525 288.749C915.492 288.749 914.459 290.241 914.416 290.308C914.196 290.629 913.832 290.831 913.434 290.823C913.044 290.823 912.671 290.62 912.459 290.291C912.425 290.232 911.383 288.74 909.35 288.74C907.317 288.74 906.284 290.232 906.241 290.3C905.877 290.831 905.157 290.974 904.615 290.62C904.081 290.266 903.929 289.549 904.276 289.018C904.344 288.909 906.021 286.405 909.35 286.405C911.248 286.405 912.612 287.223 913.442 287.939C914.272 287.223 915.636 286.405 917.534 286.405C920.863 286.405 922.54 288.909 922.608 289.018C922.964 289.558 922.803 290.283 922.26 290.637C922.066 290.764 921.845 290.823 921.625 290.823L921.617 290.831Z" fill="#0B0C10"/>
<path d="M935.713 305.383C935.713 320.727 923.218 333.162 907.818 333.162C903.972 333.162 900.304 332.387 896.974 330.979C893.781 329.638 890.901 327.724 888.452 325.364C884.225 321.308 881.277 315.921 880.295 309.885C880.168 309.151 880.269 308.435 880.532 307.794C880.845 307.027 881.404 306.377 882.116 305.947C882.709 305.585 883.404 305.383 884.158 305.383H935.713Z" fill="#FFF9E1"/>
<path d="M893.179 309.311C892.806 313.417 891.18 317.253 888.469 320.373C886.089 317.624 884.53 314.311 883.937 310.711C883.861 310.239 884.073 309.901 884.208 309.741C884.344 309.581 884.649 309.311 885.14 309.311H893.188H893.179Z" fill="#0B0C10"/>
<path d="M972.745 354.899C975.166 345.909 984.462 340.567 993.495 342.976L1035.8 354.258C1044.83 356.667 1050.2 365.918 1047.78 374.909L1045.59 383.052C1044.38 387.548 1039.73 390.218 1035.21 389.014L984.725 375.551C975.692 373.142 970.325 363.89 972.745 354.899Z" fill="#FFF9E1"/>
<path d="M951.224 332.134C942.659 332.134 935.713 325.22 935.713 316.697V266.685C948.081 266.685 966.743 297.373 966.743 314.429V316.697C966.743 325.22 959.796 332.134 951.232 332.134H951.224Z" fill="#0B0C10"/>
<path d="M950.165 271.322H901.142C899.186 271.322 897.601 272.9 897.601 274.846V280.36C897.601 282.306 899.186 283.884 901.142 283.884H950.165C952.12 283.884 953.706 282.306 953.706 280.36V274.846C953.706 272.9 952.12 271.322 950.165 271.322Z" fill="#1649DB"/>
<path d="M964.872 353.39C969.548 361.451 966.77 371.77 958.671 376.424L920.742 398.218C912.643 402.872 902.275 400.107 897.599 392.046L893.363 384.745C891.025 380.714 892.414 375.555 896.464 373.228L941.728 347.219C949.828 342.565 960.196 345.33 964.872 353.39Z" fill="#FFF9E1"/>
<path d="M949.013 253.229L951.241 251.012C952.469 249.79 954.468 249.79 955.696 251.012C956.925 252.235 956.925 254.224 955.696 255.447L953.469 257.664" stroke="#BBD7FF" stroke-width="2" stroke-miterlimit="10" stroke-linecap="round"/>
<path d="M958.975 263.144L961.203 260.927C962.431 259.704 964.43 259.704 965.658 260.927C966.887 262.149 966.887 264.139 965.658 265.361L963.43 267.579" stroke="#BBD7FF" stroke-width="2" stroke-miterlimit="10" stroke-linecap="round"/>
<path d="M968.928 273.05L971.156 270.833C972.384 269.61 974.384 269.61 975.612 270.833C976.84 272.055 976.84 274.045 975.612 275.267L973.384 277.485" stroke="#BBD7FF" stroke-width="2" stroke-miterlimit="10" stroke-linecap="round"/>
<path d="M966.734 247.1L968.962 244.883C970.191 243.66 972.19 243.66 973.418 244.883C974.646 246.105 974.646 248.095 973.418 249.318L971.19 251.535" stroke="#BBD7FF" stroke-width="2" stroke-miterlimit="10" stroke-linecap="round"/>
<path d="M976.696 257.015L978.924 254.797C980.153 253.575 982.152 253.575 983.38 254.797C984.608 256.02 984.608 258.01 983.38 259.232L981.152 261.449" stroke="#BBD7FF" stroke-width="2" stroke-miterlimit="10" stroke-linecap="round"/>
<path d="M984.464 240.979L986.692 238.762C987.921 237.54 989.92 237.54 991.148 238.762C992.376 239.985 992.376 241.974 991.148 243.197L988.92 245.414" stroke="#BBD7FF" stroke-width="2" stroke-miterlimit="10" stroke-linecap="round"/>
</g>
<ellipse cx="959.5" cy="408" rx="71.5" ry="6" fill="black" fill-opacity="0.1"/>
</g>
<defs>
<clipPath id="clip0_1923_12480">
<rect width="1920" height="440" fill="white"/>
</clipPath>
<clipPath id="clip1_1923_12480">
<rect width="211" height="165" fill="white" transform="translate(854 237)"/>
</clipPath>
</defs>
</svg>
