<svg width="1920" height="440" viewBox="0 0 1920 440" fill="none" xmlns="http://www.w3.org/2000/svg">
<g clip-path="url(#clip0_1923_12479)">
<rect width="1920" height="440" fill="#A5C6FF"/>
<path fill-rule="evenodd" clip-rule="evenodd" d="M210.405 224.54C205.738 227.235 201.354 230.232 197.264 233.492C172.124 223.142 142.629 224.153 117.264 238.797C90.8009 254.076 74.9419 280.669 72.2696 308.938C66.1859 309.47 60.1191 311.308 54.4815 314.563C33.8427 326.479 26.7713 352.869 38.6871 373.508C50.603 394.147 76.9939 401.219 97.6328 389.303C99.4923 388.229 101.242 387.038 102.877 385.744C129.011 408.605 166.773 414.958 199.527 400.348C232.372 425.14 278.169 429.396 316.051 407.525C348.149 388.993 366.843 356.161 368.733 321.722C380.648 320.618 392.521 316.984 403.563 310.609C444.485 286.983 458.506 234.656 434.88 193.734C411.253 152.812 358.927 138.791 318.005 162.417C298.455 173.705 285.044 191.543 278.945 211.558C256.1 208.106 231.97 212.09 210.405 224.54Z" fill="#EFF5FF"/>
<path fill-rule="evenodd" clip-rule="evenodd" d="M1496 164C1499.62 164 1503.18 163.729 1506.66 163.206C1517.81 177.677 1535.32 187 1555 187C1575.54 187 1593.7 176.852 1604.76 161.297C1608.48 163.031 1612.63 164 1617 164C1633.02 164 1646 151.016 1646 135C1646 118.984 1633.02 106 1617 106C1615.56 106 1614.14 106.105 1612.75 106.309C1605.22 84.2219 1585.38 67.8349 1561.41 65.3325C1550.62 39.8661 1525.4 22 1496 22C1471.09 22 1449.18 34.8269 1436.51 54.2358C1429.2 50.8745 1421.07 49 1412.5 49C1380.74 49 1355 74.7436 1355 106.5C1355 138.256 1380.74 164 1412.5 164C1427.67 164 1441.47 158.124 1451.75 148.524C1463.88 158.21 1479.27 164 1496 164Z" fill="#EFF5FF"/>
<path fill-rule="evenodd" clip-rule="evenodd" d="M1756.5 127C1765.65 127 1774.06 123.806 1780.67 118.471C1785.66 122.552 1792.05 125 1799 125C1815.02 125 1828 112.016 1828 96C1828 79.9837 1815.02 67 1799 67C1795.66 67 1792.45 67.5645 1789.47 68.6033C1782.72 57.4532 1770.48 50 1756.5 50C1738.63 50 1723.6 62.1746 1719.26 78.6817C1717.41 78.2361 1715.49 78 1713.5 78C1699.97 78 1689 88.969 1689 102.5C1689 116.031 1699.97 127 1713.5 127C1720.99 127 1727.69 123.642 1732.18 118.35C1738.81 123.757 1747.28 127 1756.5 127Z" fill="#EFF5FF"/>
<path fill-rule="evenodd" clip-rule="evenodd" d="M672.857 143C685.933 143 697.943 138.437 707.382 130.816C714.519 136.646 723.637 140.143 733.572 140.143C756.452 140.143 775 121.595 775 98.7143C775 75.8339 756.452 57.2857 733.572 57.2857C728.801 57.2857 724.218 58.0922 719.953 59.5762C710.319 43.6474 692.831 33 672.857 33C647.329 33 625.863 50.3922 619.662 73.9738C617.022 73.3373 614.265 73 611.429 73C592.099 73 576.429 88.67 576.429 108C576.429 127.33 592.099 143 611.429 143C622.124 143 631.699 138.203 638.119 130.643C647.59 138.368 659.682 143 672.857 143Z" fill="#EFF5FF"/>
<circle cx="1850" cy="145" r="12" fill="#EFF5FF"/>
<circle cx="1910.5" cy="114.5" r="23.5" fill="#EFF5FF"/>
<path d="M1145 272.644V364H757V271C766.237 271 766.237 272.644 775.473 272.644C784.71 272.644 784.71 271 793.946 271C803.183 271 803.183 272.644 812.419 272.644C821.656 272.644 821.656 271 830.892 271C840.129 271 840.129 272.644 849.366 272.644C858.602 272.644 858.602 271 867.849 271C877.097 271 877.086 272.644 886.323 272.644C895.559 272.644 895.559 271 904.796 271C914.032 271 914.032 272.644 923.269 272.644C932.505 272.644 932.505 271 941.742 271C950.978 271 950.978 272.644 960.215 272.644C969.452 272.644 969.452 271 978.688 271C987.925 271 987.925 272.644 997.161 272.644C1006.4 272.644 1006.4 271 1015.65 271C1024.89 271 1024.88 272.644 1034.12 272.644C1043.35 272.644 1043.35 271 1052.59 271C1061.83 271 1061.83 272.644 1071.06 272.644C1080.3 272.644 1080.31 271 1089.55 271C1098.78 271 1098.78 272.644 1108.03 272.644C1117.28 272.644 1117.27 271 1126.52 271C1135.76 271 1135.75 272.644 1145 272.644Z" fill="#2D62F6"/>
<path d="M370 272.644V364H757V271C747.787 271 747.787 272.644 738.574 272.644C729.362 272.644 729.362 271 720.149 271C710.936 271 710.936 272.644 701.723 272.644C692.511 272.644 692.511 271 683.298 271C674.085 271 674.085 272.644 664.872 272.644C655.66 272.644 655.66 271 646.436 271C637.213 271 637.223 272.644 628.011 272.644C618.798 272.644 618.798 271 609.585 271C600.372 271 600.372 272.644 591.16 272.644C581.947 272.644 581.947 271 572.734 271C563.521 271 563.521 272.644 554.309 272.644C545.096 272.644 545.096 271 535.883 271C526.67 271 526.671 272.644 517.458 272.644C508.245 272.644 508.245 271 499.022 271C489.798 271 489.809 272.644 480.596 272.644C471.383 272.644 471.383 271 462.171 271C452.958 271 452.958 272.644 443.745 272.644C434.532 272.644 434.521 271 425.309 271C416.096 271 416.096 272.644 406.872 272.644C397.649 272.644 397.66 271 388.436 271C379.213 271 379.223 272.644 370 272.644Z" fill="#2D62F6"/>
<path d="M370 272.644V364H-18V271C-8.76344 271 -8.76344 272.644 0.47311 272.644C9.70967 272.644 9.70967 271 18.9462 271C28.1828 271 28.1828 272.644 37.4193 272.644C46.6559 272.644 46.6559 271 55.8924 271C65.129 271 65.129 272.644 74.3656 272.644C83.6021 272.644 83.6021 271 92.8494 271C102.097 271 102.086 272.644 111.323 272.644C120.559 272.644 120.559 271 129.796 271C139.032 271 139.032 272.644 148.269 272.644C157.505 272.644 157.505 271 166.742 271C175.978 271 175.978 272.644 185.215 272.644C194.452 272.644 194.452 271 203.688 271C212.925 271 212.925 272.644 222.161 272.644C231.398 272.644 231.398 271 240.645 271C249.892 271 249.882 272.644 259.118 272.644C268.355 272.644 268.355 271 277.591 271C286.828 271 286.828 272.644 296.064 272.644C305.301 272.644 305.312 271 314.548 271C323.785 271 323.785 272.644 333.032 272.644C342.28 272.644 342.269 271 351.516 271C360.763 271 360.753 272.644 370 272.644Z" fill="#2D62F6"/>
<path d="M1920 272.644V364H1532V271C1541.24 271 1541.24 272.644 1550.47 272.644C1559.71 272.644 1559.71 271 1568.95 271C1578.18 271 1578.18 272.644 1587.42 272.644C1596.66 272.644 1596.66 271 1605.89 271C1615.13 271 1615.13 272.644 1624.37 272.644C1633.6 272.644 1633.6 271 1642.85 271C1652.1 271 1652.09 272.644 1661.32 272.644C1670.56 272.644 1670.56 271 1679.8 271C1689.03 271 1689.03 272.644 1698.27 272.644C1707.51 272.644 1707.51 271 1716.74 271C1725.98 271 1725.98 272.644 1735.21 272.644C1744.45 272.644 1744.45 271 1753.69 271C1762.92 271 1762.92 272.644 1772.16 272.644C1781.4 272.644 1781.4 271 1790.65 271C1799.89 271 1799.88 272.644 1809.12 272.644C1818.35 272.644 1818.35 271 1827.59 271C1836.83 271 1836.83 272.644 1846.06 272.644C1855.3 272.644 1855.31 271 1864.55 271C1873.78 271 1873.78 272.644 1883.03 272.644C1892.28 272.644 1892.27 271 1901.52 271C1910.76 271 1910.75 272.644 1920 272.644Z" fill="#2D62F6"/>
<path d="M1145 272.644V364H1532V271C1522.79 271 1522.79 272.644 1513.57 272.644C1504.36 272.644 1504.36 271 1495.15 271C1485.94 271 1485.94 272.644 1476.72 272.644C1467.51 272.644 1467.51 271 1458.3 271C1449.09 271 1449.09 272.644 1439.87 272.644C1430.66 272.644 1430.66 271 1421.44 271C1412.21 271 1412.22 272.644 1403.01 272.644C1393.8 272.644 1393.8 271 1384.59 271C1375.37 271 1375.37 272.644 1366.16 272.644C1356.95 272.644 1356.95 271 1347.73 271C1338.52 271 1338.52 272.644 1329.31 272.644C1320.1 272.644 1320.1 271 1310.88 271C1301.67 271 1301.67 272.644 1292.46 272.644C1283.25 272.644 1283.25 271 1274.02 271C1264.8 271 1264.81 272.644 1255.6 272.644C1246.38 272.644 1246.38 271 1237.17 271C1227.96 271 1227.96 272.644 1218.74 272.644C1209.53 272.644 1209.52 271 1200.31 271C1191.1 271 1191.1 272.644 1181.87 272.644C1172.65 272.644 1172.66 271 1163.44 271C1154.21 271 1154.22 272.644 1145 272.644Z" fill="#2D62F6"/>
<path d="M1024.44 353.6C1033.01 353.6 1033.01 355.25 1041.58 355.25C1050.15 355.25 1050.15 353.6 1058.72 353.6" stroke="#ABC6FA" stroke-width="3" stroke-miterlimit="10" stroke-linecap="round"/>
<path d="M817 315.33C825.57 315.33 825.57 316.98 834.14 316.98C842.71 316.98 842.71 315.33 851.28 315.33" stroke="#ABC6FA" stroke-width="3" stroke-miterlimit="10" stroke-linecap="round"/>
<path d="M933.68 298C942.25 298 942.25 299.65 950.82 299.65C959.39 299.65 959.39 298 967.96 298" stroke="#ABC6FA" stroke-width="3" stroke-miterlimit="10" stroke-linecap="round"/>
<path d="M1433.64 295.329C1425.07 295.605 1425.02 293.956 1416.45 294.233C1407.89 294.51 1407.94 296.159 1399.37 296.435" stroke="#ABC6FA" stroke-width="3" stroke-miterlimit="10" stroke-linecap="round"/>
<path d="M1050.68 315.33C1059.25 315.33 1059.25 316.98 1067.82 316.98C1076.39 316.98 1076.39 315.33 1084.96 315.33" stroke="#ABC6FA" stroke-width="3" stroke-miterlimit="10" stroke-linecap="round"/>
<path d="M1317.58 316.417C1309.01 316.693 1308.96 315.044 1300.39 315.321C1291.83 315.597 1291.88 317.247 1283.32 317.523" stroke="#ABC6FA" stroke-width="3" stroke-miterlimit="10" stroke-linecap="round"/>
<path d="M1200.08 302.873C1191.51 303.149 1191.46 301.5 1182.89 301.777C1174.33 302.054 1174.38 303.703 1165.82 303.98" stroke="#ABC6FA" stroke-width="3" stroke-miterlimit="10" stroke-linecap="round"/>
<path d="M1518 315.33C1526.57 315.33 1526.57 316.98 1535.14 316.98C1543.71 316.98 1543.71 315.33 1552.28 315.33" stroke="#ABC6FA" stroke-width="3" stroke-miterlimit="10" stroke-linecap="round"/>
<path d="M1634.68 298C1643.25 298 1643.25 299.65 1651.82 299.65C1660.39 299.65 1660.39 298 1668.96 298" stroke="#ABC6FA" stroke-width="3" stroke-miterlimit="10" stroke-linecap="round"/>
<path d="M1751.68 315.33C1760.25 315.33 1760.25 316.98 1768.82 316.98C1777.39 316.98 1777.39 315.33 1785.96 315.33" stroke="#ABC6FA" stroke-width="3" stroke-miterlimit="10" stroke-linecap="round"/>
<path d="M1901.08 302.873C1892.51 303.149 1892.46 301.5 1883.89 301.777C1875.33 302.054 1875.38 303.703 1866.82 303.98" stroke="#ABC6FA" stroke-width="3" stroke-miterlimit="10" stroke-linecap="round"/>
<path d="M140 315.33C148.57 315.33 148.57 316.98 157.14 316.98C165.71 316.98 165.71 315.33 174.28 315.33" stroke="#ABC6FA" stroke-width="3" stroke-miterlimit="10" stroke-linecap="round"/>
<path d="M256.68 298C265.25 298 265.25 299.65 273.82 299.65C282.39 299.65 282.39 298 290.96 298" stroke="#ABC6FA" stroke-width="3" stroke-miterlimit="10" stroke-linecap="round"/>
<path d="M756.637 295.329C748.071 295.605 748.018 293.956 739.452 294.233C730.887 294.51 730.94 296.159 722.375 296.435" stroke="#ABC6FA" stroke-width="3" stroke-miterlimit="10" stroke-linecap="round"/>
<path d="M373.68 315.33C382.25 315.33 382.25 316.98 390.82 316.98C399.39 316.98 399.39 315.33 407.96 315.33" stroke="#ABC6FA" stroke-width="3" stroke-miterlimit="10" stroke-linecap="round"/>
<path d="M640.577 316.417C632.012 316.693 631.958 315.044 623.393 315.321C614.827 315.597 614.881 317.247 606.315 317.523" stroke="#ABC6FA" stroke-width="3" stroke-miterlimit="10" stroke-linecap="round"/>
<path d="M523.079 302.873C514.514 303.149 514.46 301.5 505.895 301.777C497.329 302.054 497.383 303.703 488.817 303.98" stroke="#ABC6FA" stroke-width="3" stroke-miterlimit="10" stroke-linecap="round"/>
<path d="M1920 396H-18V440H1920V396Z" fill="#333333"/>
<path d="M1920 402H-18V414H1920V402Z" fill="#E4E4E4"/>
<path d="M1920 350H-18V402H1920V350Z" fill="#FF722C"/>
<path d="M-18 424H1920" stroke="#FFCE00" stroke-width="5" stroke-miterlimit="10"/>
<path d="M1920 344H-18V350H1920V344Z" fill="#E4E4E4"/>
<path d="M997.281 322.049C1006.2 324.424 1011.5 333.548 1009.11 342.413L997.918 383.931C995.528 392.797 986.349 398.065 977.429 395.689L969.349 393.537C964.889 392.349 962.24 387.788 963.435 383.355L976.792 333.806C979.182 324.941 988.361 319.673 997.281 322.049Z" fill="#E5DCB5"/>
<path d="M932.334 322.053C941.254 324.429 946.554 333.552 944.164 342.418L932.971 383.936C930.581 392.802 921.402 398.069 912.482 395.693L904.402 393.542C899.942 392.354 897.292 387.792 898.487 383.359L911.845 333.811C914.235 324.945 923.414 319.678 932.334 322.053Z" fill="#E5DCB5"/>
<path d="M1035.85 315.1C1023.76 339.334 994.197 349.228 969.831 337.198C957.141 330.929 948.358 319.946 944.578 307.442C946.619 308.939 948.802 310.294 951.11 311.483C975.184 323.896 1005.18 314.393 1017.58 290.407C1021.16 283.465 1022.93 276.074 1023.05 268.783C1023.13 263.712 1029.73 261.716 1032.58 265.923C1042.14 280.057 1044.01 298.754 1035.85 315.108V315.1Z" fill="black"/>
<path d="M952.215 298.613H985.874C1006.27 298.613 1022.81 315.066 1022.81 335.327C1022.81 355.596 1006.26 372.041 985.874 372.041H952.215V298.605V298.613Z" fill="#FFF9E1"/>
<path d="M952.215 278.726V372.049C926.343 372.049 904.394 355.363 896.674 332.226C895.661 329.208 894.892 326.074 894.39 322.856C893.98 320.271 893.746 317.635 893.704 314.942C893.704 314.684 893.704 314.418 893.704 314.152V278.726C893.704 262.664 906.803 249.645 922.964 249.645C939.124 249.645 952.223 262.664 952.223 278.726H952.215Z" fill="#FFF9E1"/>
<path d="M925.372 252.139L923.273 251.466C923.273 251.133 923.022 243.202 912.232 243.202C911.587 243.202 911.069 242.686 911.069 242.046C911.069 241.406 911.587 240.89 912.232 240.89C920.078 240.89 923.323 244.615 924.661 247.641C924.762 246.951 924.779 246.17 924.636 245.338C924.193 242.744 922.378 240.308 919.233 238.105C918.706 237.739 918.58 237.016 918.957 236.492C919.325 235.969 920.053 235.844 920.571 236.21C924.26 238.795 926.393 241.747 926.928 244.997C927.597 249.046 925.464 252.006 925.372 252.131V252.139Z" fill="#FFF9E1"/>
<path d="M918.857 281.911C918.857 285.292 917.711 286.982 915.419 286.982C913.127 286.982 911.981 285.292 911.981 281.911C911.981 279.109 913.52 276.839 915.419 276.839C917.318 276.839 918.857 279.109 918.857 281.911Z" fill="#0B0C10"/>
<path d="M909.58 281.911C909.58 285.292 908.434 286.982 906.142 286.982C903.851 286.982 902.705 285.292 902.705 281.911C902.705 279.109 904.244 276.839 906.142 276.839C908.041 276.839 909.58 279.109 909.58 281.911Z" fill="#0B0C10"/>
<path d="M918.856 274.936C918.48 274.936 918.103 274.753 917.886 274.412C917.853 274.354 916.824 272.882 914.816 272.882C912.809 272.882 911.788 274.354 911.746 274.42C911.529 274.736 911.169 274.936 910.776 274.927C910.391 274.927 910.023 274.728 909.814 274.403C909.781 274.345 908.752 272.874 906.744 272.874C904.737 272.874 903.716 274.345 903.674 274.412C903.315 274.936 902.604 275.077 902.068 274.728C901.541 274.379 901.391 273.672 901.734 273.148C901.801 273.04 903.457 270.571 906.744 270.571C908.618 270.571 909.965 271.377 910.784 272.084C911.604 271.377 912.951 270.571 914.824 270.571C918.112 270.571 919.768 273.04 919.835 273.148C920.186 273.68 920.027 274.395 919.492 274.744C919.3 274.869 919.082 274.927 918.865 274.927L918.856 274.936Z" fill="#0B0C10"/>
<path d="M932.775 289.285C932.775 304.416 920.438 316.679 905.231 316.679C901.433 316.679 897.811 315.914 894.524 314.526C891.37 313.204 888.526 311.317 886.109 308.989C881.935 304.99 879.024 299.677 878.054 293.725C877.928 293.001 878.029 292.295 878.288 291.663C878.598 290.906 879.15 290.266 879.852 289.842C880.438 289.485 881.124 289.285 881.868 289.285H932.775Z" fill="#FFF9E1"/>
<path d="M890.785 293.159C890.417 297.208 888.811 300.991 886.134 304.067C883.784 301.357 882.244 298.089 881.659 294.539C881.584 294.074 881.793 293.741 881.927 293.583C882.06 293.425 882.362 293.159 882.847 293.159H890.793H890.785Z" fill="#0B0C10"/>
<path d="M931.217 322.056C940.137 319.68 949.316 324.948 951.706 333.814L962.899 375.332C965.289 384.197 959.989 393.321 951.069 395.696L942.99 397.848C938.53 399.036 933.94 396.402 932.745 391.969L919.387 342.421C916.997 333.555 922.297 324.432 931.217 322.056Z" fill="#FFF9E1"/>
<path d="M996.155 322.052C1005.07 319.677 1014.25 324.944 1016.64 333.81L1027.84 375.328C1030.23 384.193 1024.93 393.317 1016.01 395.692L1007.93 397.844C1003.47 399.032 998.878 396.398 997.683 391.965L984.325 342.417C981.935 333.551 987.235 324.428 996.155 322.052Z" fill="#FFF9E1"/>
<path d="M962.319 301.689C958.94 304.757 955.561 307.426 952.215 309.745C935.561 321.318 919.727 324.228 908.016 324.228C902.403 324.228 897.736 323.563 894.39 322.856C893.98 320.271 893.746 317.635 893.704 314.942C893.704 314.684 893.704 314.418 893.704 314.152C901.032 316.139 925.749 320.528 952.223 299.353C953.712 298.164 955.201 296.901 956.69 295.545C958.396 293.999 961.04 294.115 962.596 295.811C964.16 297.507 964.034 300.143 962.328 301.689H962.319Z" fill="#1649DB"/>
<path d="M948.099 315.665C939.643 315.665 932.784 308.848 932.784 300.442V251.125C944.996 251.125 963.423 281.387 963.423 298.206V300.442C963.423 308.848 956.564 315.665 948.108 315.665H948.099Z" fill="#0B0C10"/>
</g>
<defs>
<clipPath id="clip0_1923_12479">
<rect width="1920" height="440" fill="white"/>
</clipPath>
</defs>
</svg>
