<svg width="360" height="280" viewBox="0 0 360 280" fill="none" xmlns="http://www.w3.org/2000/svg">
<g clip-path="url(#clip0_1372_15544)">
<rect width="360" height="280" fill="#454059"/>
<circle cx="129" cy="266" r="59" fill="#5A556F"/>
<path d="M228.878 245.799C252.269 245.799 271.225 226.843 271.225 203.452C271.225 180.06 252.269 161.104 228.878 161.104C205.486 161.104 186.53 180.06 186.53 203.452C186.53 226.843 205.486 245.799 228.878 245.799Z" fill="#5A556F"/>
<path d="M376.063 260.298C409.512 260.298 436.629 233.181 436.629 199.731C436.629 166.282 409.512 139.165 376.063 139.165C342.613 139.165 315.496 166.282 315.496 199.731C315.496 233.181 342.613 260.298 376.063 260.298Z" fill="#5A556F"/>
<path d="M312 383C360.61 383 400 343.61 400 295C400 246.39 360.61 207 312 207C263.39 207 224 246.39 224 295C224 343.61 263.39 383 312 383Z" fill="#5A556F"/>
<path d="M296.227 289.662C326.06 289.662 350.242 265.479 350.242 235.646C350.242 205.813 326.06 181.63 296.227 181.63C266.394 181.63 242.211 205.813 242.211 235.646C242.211 265.479 266.394 289.662 296.227 289.662Z" fill="#5A556F"/>
<path d="M239.454 268.618C252.051 268.618 262.273 258.396 262.273 245.8C262.273 233.203 252.064 222.981 239.454 222.981C226.844 222.981 216.636 233.203 216.636 245.8C216.636 258.396 226.858 268.618 239.454 268.618Z" fill="#5A556F"/>
<circle cx="82.5" cy="82.5" r="8.5" fill="#5A556F"/>
<circle cx="9.20833" cy="198.791" r="18.2083" fill="#5A556F"/>
<circle cx="25.875" cy="188.875" r="11.875" fill="#5A556F"/>
<path d="M339.15 41.8154C316.555 35.7612 293.339 49.1652 287.285 71.7595C281.231 94.3538 294.635 117.57 317.229 123.624C339.823 129.678 363.039 116.274 369.094 93.6801C375.148 71.0858 361.744 47.8695 339.15 41.8154Z" fill="#5A556F"/>
<path d="M200.732 -10.2831C168.423 -18.9405 135.211 0.234189 126.554 32.5438C117.896 64.8534 137.071 98.0649 169.381 106.722C201.69 115.38 234.902 96.2049 243.559 63.8953C252.216 31.5857 233.042 -1.62579 200.732 -10.2831Z" fill="#5A556F"/>
<path d="M294.37 -112.224C247.416 -124.805 199.173 -96.9521 186.592 -49.9985C174.011 -3.04488 201.864 45.1979 248.817 57.7791C295.771 70.3603 344.014 42.5073 356.595 -4.44631C369.176 -51.3999 341.323 -99.6427 294.37 -112.224Z" fill="#5A556F"/>
<path d="M285.447 -17.9835C256.631 -25.7049 227.013 -8.60496 219.292 20.2114C211.57 49.0277 228.67 78.6456 257.486 86.3669C286.303 94.0882 315.921 76.9883 323.642 48.172C331.363 19.3556 314.263 -10.2622 285.447 -17.9835Z" fill="#5A556F"/>
<path d="M143.89 0.00722798C128.823 -4.03003 113.345 4.90592 109.308 19.9732C105.271 35.0405 114.207 50.518 129.274 54.5552C144.341 58.5925 159.819 49.6565 163.856 34.5893C167.893 19.522 158.957 4.04449 143.89 0.00722798Z" fill="#5A556F"/>
<rect y="240" width="360" height="40" fill="#00763D"/>
<path fill-rule="evenodd" clip-rule="evenodd" d="M14 241V231L20 237L26 231L32 237L38 231V241H26H14Z" fill="#00763D"/>
<path fill-rule="evenodd" clip-rule="evenodd" d="M38 241V231L44 237L50 231L56 237L62 231V241H50H38Z" fill="#00763D"/>
<path fill-rule="evenodd" clip-rule="evenodd" d="M296 241V231L302 237L308 231L314 237L320 231V241H308H296Z" fill="#00763D"/>
<path fill-rule="evenodd" clip-rule="evenodd" d="M90 241V231L96 237L102 231L108 237L114 231V241H102H90Z" fill="#00763D"/>
<g style="mix-blend-mode:color-dodge">
<path d="M33.1974 10.458L17.7178 32.6679" stroke="#454059" stroke-opacity="0.3" stroke-width="4"/>
<path d="M-0.45395 58.916L-15.9336 81.1259" stroke="#454059" stroke-opacity="0.3" stroke-width="4"/>
<path d="M78.963 10.458L63.4834 32.6679" stroke="#454059" stroke-opacity="0.3" stroke-width="4"/>
<path d="M45.3117 58.916L29.832 81.1259" stroke="#454059" stroke-opacity="0.3" stroke-width="4"/>
<path d="M11.6603 107.374L-3.81934 129.584" stroke="#454059" stroke-opacity="0.3" stroke-width="4"/>
<path d="M124.729 10.458L109.25 32.6679" stroke="#454059" stroke-opacity="0.3" stroke-width="4"/>
<path d="M91.0778 58.916L75.5981 81.1259" stroke="#454059" stroke-opacity="0.3" stroke-width="4"/>
<path d="M57.4264 107.374L41.9468 129.584" stroke="#454059" stroke-opacity="0.3" stroke-width="4"/>
<path d="M23.7746 155.832L8.29492 178.042" stroke="#454059" stroke-opacity="0.3" stroke-width="4"/>
<path d="M170.495 10.458L155.015 32.6679" stroke="#454059" stroke-opacity="0.3" stroke-width="4"/>
<path d="M136.843 58.916L121.364 81.1259" stroke="#454059" stroke-opacity="0.3" stroke-width="4"/>
<path d="M103.192 107.374L87.7124 129.584" stroke="#454059" stroke-opacity="0.3" stroke-width="4"/>
<path d="M69.5407 155.832L54.061 178.042" stroke="#454059" stroke-opacity="0.3" stroke-width="4"/>
<path d="M35.8893 204.29L20.4097 226.5" stroke="#454059" stroke-opacity="0.3" stroke-width="4"/>
<path d="M216.261 10.458L200.781 32.6679" stroke="#454059" stroke-opacity="0.3" stroke-width="4"/>
<path d="M182.61 58.916L167.13 81.1259" stroke="#454059" stroke-opacity="0.3" stroke-width="4"/>
<path d="M148.958 107.374L133.479 129.584" stroke="#454059" stroke-opacity="0.3" stroke-width="4"/>
<path d="M115.307 155.832L99.8271 178.042" stroke="#454059" stroke-opacity="0.3" stroke-width="4"/>
<path d="M81.6554 204.29L66.1758 226.5" stroke="#454059" stroke-opacity="0.3" stroke-width="4"/>
<path d="M262.027 10.458L246.547 32.6679" stroke="#454059" stroke-opacity="0.3" stroke-width="4"/>
<path d="M228.375 58.916L212.896 81.1259" stroke="#454059" stroke-opacity="0.3" stroke-width="4"/>
<path d="M194.724 107.374L179.244 129.584" stroke="#454059" stroke-opacity="0.3" stroke-width="4"/>
<path d="M161.072 155.832L145.593 178.042" stroke="#454059" stroke-opacity="0.3" stroke-width="4"/>
<path d="M127.421 204.29L111.941 226.5" stroke="#454059" stroke-opacity="0.3" stroke-width="4"/>
<path d="M307.793 10.458L292.313 32.6679" stroke="#454059" stroke-opacity="0.3" stroke-width="4"/>
<path d="M274.141 58.916L258.662 81.1259" stroke="#454059" stroke-opacity="0.3" stroke-width="4"/>
<path d="M240.49 107.374L225.01 129.584" stroke="#454059" stroke-opacity="0.3" stroke-width="4"/>
<path d="M206.839 155.832L191.359 178.042" stroke="#454059" stroke-opacity="0.3" stroke-width="4"/>
<path d="M173.187 204.29L157.708 226.5" stroke="#454059" stroke-opacity="0.3" stroke-width="4"/>
<path d="M353.559 10.458L338.079 32.6679" stroke="#454059" stroke-opacity="0.3" stroke-width="4"/>
<path d="M319.907 58.916L304.428 81.1259" stroke="#454059" stroke-opacity="0.3" stroke-width="4"/>
<path d="M286.256 107.374L270.776 129.584" stroke="#454059" stroke-opacity="0.3" stroke-width="4"/>
<path d="M252.604 155.832L237.125 178.042" stroke="#454059" stroke-opacity="0.3" stroke-width="4"/>
<path d="M218.953 204.29L203.473 226.5" stroke="#454059" stroke-opacity="0.3" stroke-width="4"/>
<path d="M365.673 58.916L350.193 81.1259" stroke="#454059" stroke-opacity="0.3" stroke-width="4"/>
<path d="M332.022 107.374L316.542 129.584" stroke="#454059" stroke-opacity="0.3" stroke-width="4"/>
<path d="M298.37 155.832L282.891 178.042" stroke="#454059" stroke-opacity="0.3" stroke-width="4"/>
<path d="M264.719 204.29L249.239 226.5" stroke="#454059" stroke-opacity="0.3" stroke-width="4"/>
<path d="M344.136 155.832L328.656 178.042" stroke="#454059" stroke-opacity="0.3" stroke-width="4"/>
<path d="M310.485 204.29L295.005 226.5" stroke="#454059" stroke-opacity="0.3" stroke-width="4"/>
<path d="M356.251 204.29L340.771 226.5" stroke="#454059" stroke-opacity="0.3" stroke-width="4"/>
</g>
<path fill-rule="evenodd" clip-rule="evenodd" d="M348 241V231L354 237L360 231L366 237L372 231V241H360H348Z" fill="#00763D"/>
<path d="M271.539 214.143C260.122 237.162 232.213 246.562 209.21 235.134C197.227 229.182 188.94 218.75 185.365 206.867C187.289 208.289 189.348 209.573 191.535 210.708C214.265 222.496 242.581 213.472 254.287 190.687C257.676 184.092 259.342 177.075 259.447 170.145C259.524 165.326 265.759 163.43 268.449 167.427C277.472 180.853 279.24 198.616 271.539 214.143Z" fill="black"/>
<path d="M131.942 225.403H144.387V240H122.907V234.445C122.907 229.455 126.956 225.403 131.942 225.403Z" fill="#FFF9E1"/>
<path d="M131.599 123.052V228.124C131.599 234.678 136.909 239.996 143.462 239.996H226.487C246.032 239.996 257.195 217.663 245.464 202.012L195.809 135.749L175.357 108.452C173.393 105.833 171.122 103.776 168.666 102.244C153.596 92.7933 131.603 102.944 131.603 123.052H131.599Z" fill="#FFF9E1"/>
<path d="M160.725 101.325L158.746 100.683C158.742 100.366 158.509 92.8337 148.32 92.8337C147.715 92.8337 147.223 92.3413 147.223 91.7358C147.223 91.1303 147.715 90.6379 148.32 90.6379C155.732 90.6379 158.79 94.176 160.054 97.0501C160.149 96.3936 160.164 95.6568 160.029 94.8653C159.613 92.3997 157.897 90.0872 154.93 87.9936C154.435 87.6434 154.318 86.9613 154.664 86.4653C155.014 85.9692 155.696 85.8525 156.191 86.199C159.672 88.6537 161.691 91.4623 162.197 94.5443C162.828 98.3924 160.812 101.201 160.729 101.321L160.725 101.325Z" fill="#FFF9E1"/>
<path d="M154.569 129.603C154.569 132.813 153.487 134.418 151.322 134.418C149.158 134.418 148.075 132.813 148.075 129.603C148.075 126.944 149.529 124.789 151.322 124.789C153.115 124.789 154.569 126.944 154.569 129.603Z" fill="#0B0C10"/>
<path d="M145.812 129.603C145.812 132.813 144.73 134.418 142.565 134.418C140.4 134.418 139.318 132.813 139.318 129.603C139.318 126.944 140.772 124.789 142.565 124.789C144.358 124.789 145.812 126.944 145.812 129.603Z" fill="#0B0C10"/>
<path d="M207.168 116.169L157.589 213.654" stroke="#D6D6D6" stroke-width="6" stroke-miterlimit="10"/>
<path d="M160.856 207.232L148.796 230.947C147.689 233.124 145.761 234.774 143.44 235.532C138.602 237.11 133.397 234.47 131.826 229.636L130.817 226.55" stroke="#030000" stroke-width="9" stroke-miterlimit="10" stroke-linecap="round"/>
<path d="M154.573 122.98C154.216 122.98 153.866 122.805 153.655 122.48C153.618 122.429 152.653 121.028 150.758 121.028C148.863 121.028 147.897 122.429 147.857 122.491C147.653 122.794 147.314 122.983 146.938 122.976C146.57 122.976 146.228 122.79 146.027 122.484C145.991 122.433 145.025 121.032 143.13 121.032C141.235 121.032 140.269 122.433 140.229 122.495C139.894 122.991 139.216 123.129 138.717 122.797C138.217 122.465 138.075 121.798 138.4 121.295C138.465 121.196 140.025 118.847 143.13 118.847C144.901 118.847 146.169 119.609 146.942 120.284C147.718 119.609 148.987 118.847 150.754 118.847C153.859 118.847 155.419 121.196 155.484 121.295C155.812 121.802 155.67 122.48 155.164 122.808C154.981 122.929 154.774 122.983 154.57 122.983L154.573 122.98Z" fill="#0B0C10"/>
<path d="M168.877 102.243V157.155C168.877 164.651 174.956 170.735 182.445 170.735C189.935 170.735 196.021 164.651 196.021 157.155V135.745L175.568 108.448C173.604 105.829 171.334 103.772 168.877 102.24V102.243Z" fill="#0B0C10"/>
<path d="M131.599 136.606H119.649C118.95 136.606 118.301 136.803 117.747 137.139C117.087 137.544 116.566 138.153 116.271 138.868C116.023 139.466 115.936 140.137 116.049 140.83C116.971 146.484 119.715 151.524 123.654 155.329C128.33 159.848 134.697 162.627 141.712 162.627C156.067 162.627 167.711 150.981 167.711 136.606H131.599Z" fill="#FFF9E1"/>
<path opacity="0.13" fill-rule="evenodd" clip-rule="evenodd" d="M236.141 189.571C227.475 187.454 220.626 188.663 220.626 188.663C205.996 162.798 179.055 167.552 179.055 167.552C164.424 141.687 137.483 146.441 137.483 146.441C135.682 143.259 133.697 140.538 131.599 138.212V123.052H131.603C131.603 102.944 153.596 92.7933 168.666 102.244C171.122 103.776 173.393 105.833 175.357 108.452L195.809 135.749L236.141 189.571Z" fill="black"/>
<path d="M280.037 178.665C265.406 152.8 238.465 157.553 238.465 157.553C223.834 131.689 196.893 136.442 196.893 136.442C182.262 110.577 155.322 115.331 155.322 115.331C140.771 89.6179 114.142 93.9971 113.839 94.0506C131.192 59.8107 184.28 47.565 230.235 70.897C276.199 94.229 297.498 144.487 280.046 178.656L280.037 178.665Z" fill="#78A6FF"/>
<path d="M113.839 94.0506C131.192 59.8107 184.28 47.565 230.235 70.897" stroke="#578BFF" stroke-width="2" stroke-miterlimit="10"/>
<path d="M230.235 70.897C276.199 94.2289 297.498 144.487 280.046 178.656" stroke="#578BFF" stroke-width="2" stroke-miterlimit="10"/>
<path d="M155.321 115.34C155.321 115.34 161.9 104.682 172.157 93.4351C186.806 77.372 208.971 60.105 230.235 70.8969" stroke="#578BFF" stroke-width="2" stroke-miterlimit="10"/>
<path d="M238.465 157.553C238.465 157.553 266.379 89.2522 230.226 70.897" stroke="#578BFF" stroke-width="2" stroke-miterlimit="10"/>
<path d="M232.71 72.1621C233.174 71.2487 232.439 69.9438 231.068 69.2475C229.697 68.5512 228.209 68.7272 227.744 69.6406C227.279 70.554 228.014 71.8589 229.386 72.5552C230.757 73.2514 232.245 73.0754 232.71 72.1621Z" fill="#EFF5FF"/>
<path d="M230.654 70.0764L234.02 63.4585" stroke="#092593" stroke-width="3" stroke-miterlimit="10" stroke-linecap="round"/>
<path d="M197.652 134.471L229.19 72.4487" stroke="#578BFF" stroke-width="2" stroke-miterlimit="10"/>
<path d="M195.545 138.6L197.536 134.694" stroke="#EFF5FF" stroke-width="4" stroke-miterlimit="10" stroke-linecap="round"/>
<path d="M239.742 156.117L237.751 160.033" stroke="#EFF5FF" stroke-width="4" stroke-miterlimit="10" stroke-linecap="round"/>
<path d="M280.412 176.488L278.421 180.404" stroke="#EFF5FF" stroke-width="4" stroke-miterlimit="10" stroke-linecap="round"/>
<path d="M114.776 92.668L112.785 96.5834" stroke="#EFF5FF" stroke-width="4" stroke-miterlimit="10" stroke-linecap="round"/>
<path d="M155.331 113.262L153.34 117.177" stroke="#EFF5FF" stroke-width="4" stroke-miterlimit="10" stroke-linecap="round"/>
<path d="M128.068 140.291C127.721 144.139 126.202 147.728 123.676 150.649C121.453 148.074 119.999 144.974 119.449 141.596C119.38 141.151 119.58 140.838 119.704 140.692C119.831 140.542 120.116 140.291 120.568 140.291H128.068Z" fill="#0B0C10"/>
</g>
<defs>
<clipPath id="clip0_1372_15544">
<rect width="360" height="280" fill="white"/>
</clipPath>
</defs>
</svg>
