<svg width="16" height="16" viewBox="0 0 16 16" fill="none" xmlns="http://www.w3.org/2000/svg">
<mask id="mask0_1733_1398" style="mask-type:alpha" maskUnits="userSpaceOnUse" x="0" y="0" width="16" height="16">
<rect width="16" height="16" fill="#D9D9D9"/>
</mask>
<g mask="url(#mask0_1733_1398)">
<path fill-rule="evenodd" clip-rule="evenodd" d="M7.99967 2C8.36786 2 8.66634 2.29848 8.66634 2.66667V13.3333C8.66634 13.7015 8.36786 14 7.99967 14C7.63148 14 7.33301 13.7015 7.33301 13.3333V2.66667C7.33301 2.29848 7.63148 2 7.99967 2Z" fill="#1F5FFF"/>
<path fill-rule="evenodd" clip-rule="evenodd" d="M14 8.00016C14 8.36835 13.7015 8.66683 13.3333 8.66683L2.66667 8.66683C2.29848 8.66683 2 8.36835 2 8.00016C2 7.63197 2.29848 7.3335 2.66667 7.3335L13.3333 7.3335C13.7015 7.3335 14 7.63197 14 8.00016Z" fill="#1F5FFF"/>
</g>
</svg>
