<svg width="40" height="40" viewBox="0 0 40 40" fill="none" xmlns="http://www.w3.org/2000/svg">
<mask id="mask0_1375_10468" style="mask-type:luminance" maskUnits="userSpaceOnUse" x="0" y="0" width="40" height="40">
<path d="M40 0H0V40H40V0Z" fill="white"/>
</mask>
<g mask="url(#mask0_1375_10468)">
<path d="M34.3169 17.5173C34.3169 19.6006 33.6003 21.7006 32.2003 23.3839C32.0169 23.6006 31.8336 23.8006 31.6336 24.0006L21.6169 34.0173C20.3169 35.3173 18.2003 35.3173 16.9003 34.0173L6.88359 24.0006C6.68359 23.8006 6.50025 23.6006 6.31692 23.3839C3.31692 19.7839 3.50025 14.4173 6.88359 11.0339C8.68359 9.25059 11.0169 8.35059 13.3669 8.35059C15.4669 8.35059 17.5669 9.06725 19.2669 10.5006C22.8669 7.46725 28.2503 7.65059 31.6336 11.0339C33.4169 12.8173 34.3169 15.1673 34.3169 17.5173Z" fill="#E4E4E4"/>
<path d="M29.3171 20.0003C27.4837 20.0003 25.9837 18.5003 25.9837 16.667C24.1504 16.667 22.6504 15.167 22.6504 13.3337C22.6504 11.5003 24.1504 10.0003 25.9837 10.0003C25.9837 8.16699 27.4837 6.66699 29.3171 6.66699C31.1504 6.66699 32.6504 8.16699 32.6504 10.0003C34.4837 10.0003 35.9837 11.5003 35.9837 13.3337C35.9837 15.167 34.4837 16.667 32.6504 16.667C32.6504 18.5003 31.1504 20.0003 29.3171 20.0003Z" fill="white"/>
<path d="M29.3172 8.33333C30.2339 8.33333 30.9839 9.08333 30.9839 10V11.6667H32.6506C33.5672 11.6667 34.3172 12.4167 34.3172 13.3333C34.3172 14.25 33.5672 15 32.6506 15H30.9839V16.6667C30.9839 17.5833 30.2339 18.3333 29.3172 18.3333C28.4006 18.3333 27.6506 17.5833 27.6506 16.6667V15H25.9839C25.0672 15 24.3172 14.25 24.3172 13.3333C24.3172 12.4167 25.0672 11.6667 25.9839 11.6667H27.6506V10C27.6506 9.08333 28.4006 8.33333 29.3172 8.33333ZM29.3172 5C27.0672 5 25.1506 6.5 24.5339 8.55C22.4839 9.16667 20.9839 11.0833 20.9839 13.3333C20.9839 15.5833 22.4839 17.5 24.5339 18.1167C25.1506 20.1667 27.0672 21.6667 29.3172 21.6667C31.5672 21.6667 33.4839 20.1667 34.1006 18.1167C36.1506 17.5 37.6506 15.5833 37.6506 13.3333C37.6506 11.0833 36.1506 9.16667 34.1006 8.55C33.4839 6.5 31.5672 5 29.3172 5Z" fill="#E4E4E4"/>
</g>
</svg>
