<svg width="40" height="40" viewBox="0 0 40 40" fill="none" xmlns="http://www.w3.org/2000/svg">
<mask id="mask0_1375_10486" style="mask-type:luminance" maskUnits="userSpaceOnUse" x="0" y="0" width="40" height="40">
<path d="M40 0H0V40H40V0Z" fill="white"/>
</mask>
<g mask="url(#mask0_1375_10486)">
<path d="M34.9834 20C34.9834 24.7 32.8167 28.9 29.4167 31.65C26.8501 33.75 23.5501 35 19.9834 35C16.4167 35 13.1501 33.75 10.5834 31.6667C7.16673 28.9333 4.9834 24.7167 4.9834 20C4.9834 11.7167 11.7001 5 19.9834 5C28.2667 5 34.9834 11.7167 34.9834 20Z" fill="#E4E4E4"/>
<path d="M20 21.667C22.7614 21.667 25 19.4284 25 16.667C25 13.9056 22.7614 11.667 20 11.667C17.2386 11.667 15 13.9056 15 16.667C15 19.4284 17.2386 21.667 20 21.667Z" fill="white"/>
<path d="M29.4168 31.65C26.8502 33.75 23.5502 35 19.9835 35C16.4168 35 13.1502 33.75 10.5835 31.6667C11.9335 27.7833 15.6502 25 20.0002 25C24.3502 25 28.0502 27.7833 29.4168 31.65Z" fill="white"/>
</g>
</svg>
