<svg width="40" height="40" viewBox="0 0 40 40" fill="none" xmlns="http://www.w3.org/2000/svg">
<mask id="mask0_1375_10476" style="mask-type:luminance" maskUnits="userSpaceOnUse" x="0" y="0" width="40" height="40">
<path d="M40 0H0V40H40V0Z" fill="white"/>
</mask>
<g mask="url(#mask0_1375_10476)">
<path d="M34.9834 8.33333V25L24.9834 35H8.31673C6.4834 35 4.9834 33.5 4.9834 31.6667V8.33333C4.9834 6.5 6.4834 5 8.31673 5H31.6501C33.4834 5 34.9834 6.5 34.9834 8.33333Z" fill="#E4E4E4"/>
<path d="M28.3167 13.3333H11.6501C10.7334 13.3333 9.9834 12.5833 9.9834 11.6667C9.9834 10.75 10.7334 10 11.6501 10H28.3167C29.2334 10 29.9834 10.75 29.9834 11.6667C29.9834 12.5833 29.2334 13.3333 28.3167 13.3333Z" fill="white"/>
<path d="M28.3167 19.9993H11.6501C10.7334 19.9993 9.9834 19.2493 9.9834 18.3327C9.9834 17.416 10.7334 16.666 11.6501 16.666H28.3167C29.2334 16.666 29.9834 17.416 29.9834 18.3327C29.9834 19.2493 29.2334 19.9993 28.3167 19.9993Z" fill="white"/>
<path d="M18.3167 26.6673H11.6501C10.7334 26.6673 9.9834 25.9173 9.9834 25.0007C9.9834 24.084 10.7334 23.334 11.6501 23.334H18.3167C19.2334 23.334 19.9834 24.084 19.9834 25.0007C19.9834 25.9173 19.2334 26.6673 18.3167 26.6673Z" fill="white"/>
<path d="M34.9831 23.334V25.0007L33.3164 26.6673H26.6497V33.334L24.9831 35.0007H23.3164V26.6673C23.3164 24.834 24.8164 23.334 26.6497 23.334H34.9831Z" fill="white"/>
</g>
</svg>
