<svg width="24" height="24" viewBox="0 0 24 24" fill="none" xmlns="http://www.w3.org/2000/svg">
<mask id="mask0_1605_80" style="mask-type:alpha" maskUnits="userSpaceOnUse" x="0" y="0" width="24" height="24">
<rect width="24" height="24" fill="#D9D9D9"/>
</mask>
<g mask="url(#mask0_1605_80)">
<path fill-rule="evenodd" clip-rule="evenodd" d="M4 4C2.89543 4 2 4.89543 2 6V8.06055L10.9747 11.5635C11.637 11.8043 12.3629 11.8043 13.0252 11.5635L22 8.06055V6C22 4.89543 21.1046 4 20 4H4ZM22 9.94013L13.7087 13.4431C12.6049 13.8444 11.395 13.8444 10.2912 13.4431L2 9.94013V18C2 19.1046 2.89543 20 4 20H20C21.1046 20 22 19.1046 22 18V9.94013Z" fill="#B3B3B3"/>
</g>
</svg>
