<svg width="82" height="18" viewBox="0 0 82 18" fill="none" xmlns="http://www.w3.org/2000/svg">
<g clip-path="url(#clip0_1417_11147)">
<path d="M7.17656 17.5731C6.37156 17.8175 4.63841 17.8911 3.56438 17.8911C1.46495 17.89 -0.0240055 17.2789 -0.000207045 15.3491C0.0246261 12.4414 0.268818 2.71583 0.121889 0.736313C0.757203 0.320936 2.19649 0.00292969 3.32019 0.00292969C5.93181 0.00292969 6.95721 1.05328 7.12793 3.49686C7.15277 3.81486 7.05447 5.18323 6.95721 5.76952C6.83511 6.45422 7.05447 6.62513 7.68978 6.62513H9.08147C9.08147 4.05933 9.08147 1.59089 9.00801 0.736313C9.64229 0.320936 11.0816 0.00292969 12.2053 0.00292969C14.8169 0.00292969 15.8423 1.05328 16.013 3.49686C16.0616 4.57207 15.6467 11.2916 15.6467 13.3447C15.6467 15.2507 15.8909 16.6677 15.9882 17.572C15.1821 17.8165 13.6932 17.89 12.4484 17.89C10.349 17.89 8.86004 17.2789 8.86004 15.3491C8.86004 14.4448 8.93351 12.343 9.0556 11.3175C9.12907 10.7551 8.95834 10.5355 8.44512 10.5355H6.95617C6.88271 11.6842 6.83407 12.6859 6.83407 13.3457C6.83407 15.2517 7.07827 16.6688 7.17553 17.5731H7.17656Z" fill="#1F5FFF"/>
<path d="M29.8661 2.72737C29.8661 4.16927 29.4025 5.04871 27.8649 5.04871L24.7898 5.02385L24.6925 6.92982C26.377 6.92982 28.403 6.92982 29.3787 6.85627C29.5495 7.36902 29.6229 8.37172 29.6229 9.08025C29.6229 10.4486 29.1594 11.2794 27.6218 11.2794L24.4732 11.2545L24.4483 12.1826C24.4235 12.9647 24.6677 13.3314 25.571 13.3314C27.0113 13.3314 29.2566 13.1605 30.1113 13.0382C30.282 13.5758 30.3555 14.6997 30.3555 15.4331C30.3555 17.1195 29.4036 17.9989 27.3776 17.9989H22.3737C19.5417 17.9989 17.9803 17.1433 17.9803 14.4801L18.029 5.02385L17.6389 5.04871C17.2974 4.63333 17.0532 3.65549 17.0532 2.89828C17.0532 1.11455 17.8593 0.307617 19.7869 0.307617C20.7875 0.307617 27.2565 0.429848 29.624 0.381163C29.7947 0.91877 29.8681 1.99398 29.8681 2.72737H29.8661Z" fill="#1F5FFF"/>
<path d="M31.39 14.309C31.39 9.20229 31.3413 2.35945 31.2192 1.01595C31.9032 0.575718 33.2452 0.233887 34.6855 0.233887C36.0276 0.233887 37.4441 0.380978 38.0049 1.40647C38.8099 0.697948 40.0795 0.233887 41.8375 0.233887C45.9142 0.233887 47.7684 3.19021 47.7684 7.95616V9.03138C47.7684 14.9689 44.0342 17.9998 39.4452 17.9998H35.027C32.5126 17.9998 31.39 16.8997 31.39 14.3101V14.309ZM40.6651 10.5707C40.7386 9.49544 40.7872 8.39536 40.7872 7.41856C40.7872 5.92796 40.4944 5.29299 39.5911 5.29299C39.0293 5.29299 38.6143 5.4639 38.395 5.65968C38.3215 7.76142 38.3215 11.3776 38.1994 13.3571H38.8585C40.0795 13.3571 40.5668 11.9152 40.6651 10.5717V10.5707Z" fill="#1F5FFF"/>
<path d="M49.0618 14.309C49.0618 9.20229 49.0132 2.35945 48.8911 1.01595C49.5751 0.575718 50.9171 0.233887 52.3574 0.233887C53.6994 0.233887 55.116 0.380978 55.6768 1.40647C56.4818 0.697948 57.7514 0.233887 59.5093 0.233887C63.5861 0.233887 65.4403 3.19021 65.4403 7.95616V9.03138C65.4403 14.9689 61.706 17.9998 57.1171 17.9998H52.6989C50.1845 17.9998 49.0618 16.8997 49.0618 14.3101V14.309ZM58.337 10.5707C58.4105 9.49544 58.4591 8.39536 58.4591 7.41856C58.4591 5.92796 58.1663 5.29299 57.263 5.29299C56.7011 5.29299 56.2862 5.4639 56.0668 5.65968C55.9934 7.76142 55.9934 11.3776 55.8713 13.3571H56.5304C57.7514 13.3571 58.2387 11.9152 58.337 10.5717V10.5707Z" fill="#1F5FFF"/>
<path d="M79.9874 0.00313789C81.9161 0.00313789 82.2327 0.711661 81.8675 2.29962C81.3305 4.66965 78.9382 9.65521 77.3272 12.0739L76.9857 12.1962L76.9371 13.3449C76.9371 14.762 77.1813 16.6192 77.2785 17.5235C76.4735 17.7431 74.9846 17.8902 73.9105 17.8902C71.8111 17.8902 70.4929 17.2791 70.4929 15.3493L70.5177 12.1485C69.81 11.7331 69.3702 11.122 69.0039 10.3648C68.0034 8.28788 66.6603 4.10925 65.6846 0.29732C66.6851 0.101544 67.9547 -0.0206867 69.1747 0.00417374C71.4934 0.0528588 72.4454 0.566642 72.7382 2.03237C73.1293 4.01189 73.6167 6.04008 73.8371 7.28621C73.9105 7.67673 74.3741 7.67673 74.4476 7.28621C74.6917 6.06391 75.3995 2.98536 75.9613 0.248635C77.3282 0.0777192 78.6216 0.00417374 79.9884 0.00417374L79.9874 0.00313789Z" fill="#1F5FFF"/>
</g>
<defs>
<clipPath id="clip0_1417_11147">
<rect width="82" height="18" fill="white"/>
</clipPath>
</defs>
</svg>
