<svg width="312" height="231" viewBox="0 0 312 231" fill="none" xmlns="http://www.w3.org/2000/svg">
<path d="M312 155.544C312 241.448 242.156 230.554 156 230.554C69.8436 230.554 0 241.448 0 155.544C0 69.6392 69.8436 0 156 0C242.156 0 312 69.6392 312 155.544Z" fill="#737373"/>
<mask id="mask0_1622_9590" style="mask-type:alpha" maskUnits="userSpaceOnUse" x="0" y="0" width="312" height="231">
<path d="M312 155.544C312 241.448 242.156 230.554 156 230.554C69.8436 230.554 0 241.448 0 155.544C0 69.6392 69.8436 0 156 0C242.156 0 312 69.6392 312 155.544Z" fill="#C7C7C7"/>
</mask>
<g mask="url(#mask0_1622_9590)">
<path d="M357.642 246.507C337.975 286.127 289.876 302.298 250.242 282.622C229.59 272.375 215.315 254.418 209.155 233.974C212.477 236.427 216.017 238.63 219.79 240.583C258.957 260.86 307.74 245.339 327.925 206.12C333.768 194.771 336.623 182.689 336.823 170.773C336.957 162.478 347.709 159.224 352.333 166.1C367.876 189.197 370.932 219.771 357.659 246.49L357.642 246.507Z" fill="#040000"/>
<path d="M116.529 89.7476V270.572C116.529 281.854 125.678 291 136.964 291H280.025C313.7 291 332.933 252.565 312.731 225.629L227.168 111.593L191.925 64.614C188.535 60.108 184.629 56.57 180.405 53.9331C154.444 37.6781 116.546 55.1347 116.546 89.7476H116.529Z" fill="#FDF6DD"/>
<path d="M166.715 52.3477L163.309 51.2462C163.309 50.6955 162.908 37.7449 145.345 37.7449C144.31 37.7449 143.458 36.8937 143.458 35.859C143.458 34.8243 144.31 33.9732 145.345 33.9732C158.117 33.9732 163.393 40.0646 165.563 45.0046C165.73 43.8697 165.747 42.6014 165.513 41.2496C164.795 37.0106 161.84 33.0219 156.731 29.4338C155.88 28.833 155.679 27.6481 156.28 26.7969C156.881 25.9458 158.067 25.7455 158.918 26.3463C164.912 30.5686 168.401 35.4084 169.269 40.6988C170.355 47.3243 166.882 52.1641 166.732 52.3644L166.715 52.3477Z" fill="#FDF6DD"/>
<path d="M180.756 53.9336V148.443C180.756 161.344 191.224 171.808 204.129 171.808C217.035 171.808 227.519 161.344 227.519 148.443V111.594L192.276 64.6145C188.886 60.1085 184.98 56.5704 180.756 53.9336Z" fill="#0A0B0F"/>
<path d="M116.528 113.062H95.943C94.7409 113.062 93.6223 113.396 92.6707 113.98C91.5354 114.681 90.6339 115.716 90.133 116.951C89.7157 117.986 89.5487 119.137 89.7491 120.322C91.3351 130.052 96.0598 138.73 102.855 145.272C110.919 153.049 121.887 157.839 133.975 157.839C158.717 157.839 178.768 137.796 178.768 113.062H116.545H116.528Z" fill="#FDF6DD"/>
<path d="M110.435 119.404C109.834 126.029 107.213 132.204 102.872 137.228C99.0489 132.788 96.5446 127.465 95.593 121.64C95.4761 120.872 95.81 120.338 96.0271 120.088C96.2441 119.838 96.7283 119.404 97.5129 119.404H110.435Z" fill="#0A0B0F"/>
<path d="M157.065 101.731C157.065 107.46 155.129 110.325 151.255 110.325C147.382 110.325 145.445 107.46 145.445 101.731C145.445 96.9742 148.05 93.1357 151.255 93.1357C154.461 93.1357 157.065 96.9909 157.065 101.731Z" fill="#0A0B0F"/>
<path d="M141.404 101.731C141.404 107.46 139.467 110.325 135.594 110.325C131.72 110.325 129.784 107.46 129.784 101.731C129.784 96.9742 132.388 93.1357 135.594 93.1357C138.799 93.1357 141.404 96.9909 141.404 101.731Z" fill="#0A0B0F"/>
<path d="M129.802 82.4883C130.436 82.4883 131.071 82.8054 131.438 83.3728C131.505 83.4729 133.224 85.9763 136.613 85.9763C140.003 85.9763 141.722 83.4729 141.806 83.3728C142.173 82.8221 142.774 82.4883 143.442 82.505C144.093 82.505 144.711 82.8387 145.061 83.3895C145.128 83.4896 146.848 85.993 150.237 85.993C153.626 85.993 155.345 83.4896 155.429 83.3895C156.03 82.505 157.232 82.2546 158.134 82.8554C159.035 83.4562 159.286 84.6411 158.701 85.5423C158.584 85.7259 155.796 89.9149 150.253 89.9149C147.098 89.9149 144.827 88.5464 143.442 87.3448C142.056 88.5464 139.786 89.9149 136.63 89.9149C131.087 89.9149 128.299 85.7259 128.182 85.5423C127.598 84.6411 127.848 83.4229 128.75 82.8387C129.084 82.6218 129.451 82.5217 129.818 82.5217L129.802 82.4883Z" fill="#0A0B0F"/>
<path d="M157.532 107.188H150.32C149.149 107.188 148.199 108.137 148.199 109.307C148.199 110.478 149.149 111.427 150.32 111.427H157.532C158.703 111.427 159.652 110.478 159.652 109.307C159.652 108.137 158.703 107.188 157.532 107.188Z" fill="#3985FF"/>
<path d="M156.097 127.081C155.061 127.081 154.21 126.23 154.21 125.195V110.125C154.21 109.09 155.061 108.239 156.097 108.239C157.132 108.239 157.983 109.09 157.983 110.125V125.195C157.983 126.23 157.132 127.081 156.097 127.081Z" fill="#3985FF"/>
<path d="M68.9646 128.601C60.3499 124.729 50.2493 128.484 46.2424 136.995C40.0819 134.225 32.8528 136.962 30.0814 143.12C27.31 149.278 30.048 156.504 36.2086 159.275C32.4855 167.92 36.3755 177.966 44.9903 181.855C53.605 185.743 63.9227 181.888 67.846 173.193C68.5806 171.558 69.0314 169.889 69.2484 168.203C77.5627 166.968 85.376 163.497 91.019 157.155C85.5764 157.973 80.2673 157.089 75.5258 154.936C76.3439 153.884 77.0618 152.716 77.6461 151.448C81.5695 142.753 77.6795 132.522 68.9813 128.601H68.9646Z" fill="white"/>
</g>
</svg>
