<svg width="312" height="231" viewBox="0 0 312 231" fill="none" xmlns="http://www.w3.org/2000/svg">
<g clip-path="url(#clip0_1637_7158)">
<path d="M312 155.544C312 241.448 242.156 230.554 156 230.554C69.8436 230.554 0 241.448 0 155.544C0 69.6392 69.8436 0 156 0C242.156 0 312 69.6392 312 155.544Z" fill="#E5E5E5"/>
</g>
<mask id="mask0_1637_7158" style="mask-type:alpha" maskUnits="userSpaceOnUse" x="0" y="0" width="312" height="231">
<path d="M312 155.543C312 241.448 242.156 230.554 156 230.554C69.8436 230.554 0 241.448 0 155.543C0 69.6392 69.8436 0 156 0C242.156 0 312 69.6392 312 155.543Z" fill="#A5C9FF"/>
</mask>
<g mask="url(#mask0_1637_7158)">
<path d="M122.953 196.082L118.995 200.041C109.522 209.514 94.1762 209.514 84.7038 200.041L73.9501 189.288C40.0768 155.414 85.438 119.727 85.438 119.727C88.1876 114.818 94.3777 113.062 99.2867 115.783C100.136 116.258 100.885 116.833 101.532 117.481C104.268 120.217 105.247 124.334 103.937 128.033L121.816 110.154C125.401 106.569 131.188 106.569 134.772 110.154C138.357 113.738 138.299 119.065 135.132 122.664C136.975 122.952 138.76 123.787 140.185 125.212C142.632 127.659 143.352 131.114 142.474 134.209C144.835 134.209 147.196 135.102 148.995 136.901C151.846 139.752 152.378 143.998 150.694 147.41C152.753 147.597 154.768 148.432 156.352 150.016C159.936 153.6 159.936 159.387 156.352 162.972L124.551 194.772C124.047 195.276 123.5 195.679 122.939 196.039L122.953 196.082Z" fill="#FFB899"/>
<path fill-rule="evenodd" clip-rule="evenodd" d="M114.891 143.336C115.288 143.734 115.933 143.734 116.33 143.336L133.951 125.716C134.348 125.319 134.348 124.674 133.951 124.276C133.553 123.879 132.909 123.879 132.511 124.276L114.891 141.897C114.493 142.294 114.493 142.939 114.891 143.336Z" fill="#0B0C10"/>
<path fill-rule="evenodd" clip-rule="evenodd" d="M125.185 153.629C125.582 154.026 126.227 154.026 126.624 153.629L139.681 140.572C140.079 140.174 140.079 139.53 139.681 139.132C139.284 138.735 138.639 138.735 138.242 139.132L125.185 152.189C124.787 152.587 124.787 153.231 125.185 153.629Z" fill="#0B0C10"/>
<path fill-rule="evenodd" clip-rule="evenodd" d="M135.577 164.023C135.975 164.421 136.619 164.421 137.017 164.023L147.785 153.255C148.182 152.857 148.182 152.213 147.785 151.815C147.387 151.418 146.743 151.418 146.345 151.815L135.577 162.583C135.18 162.981 135.18 163.625 135.577 164.023Z" fill="#0B0C10"/>
<path fill-rule="evenodd" clip-rule="evenodd" d="M85.3799 146.503C85.7775 146.901 86.422 146.901 86.8195 146.503L104.44 128.883C104.838 128.485 104.838 127.84 104.44 127.443C104.042 127.045 103.398 127.045 103 127.443L85.3799 145.063C84.9824 145.461 84.9824 146.105 85.3799 146.503Z" fill="#0B0C10"/>
<path fill-rule="evenodd" clip-rule="evenodd" d="M-40 268.89L74.0089 154.881L107.119 187.991L-6.88965 302L-40 268.89Z" fill="#FFB899"/>
<path d="M338.042 233.844C318.513 273.156 270.773 289.214 231.425 269.692C210.927 259.523 196.75 241.711 190.64 221.417C193.933 223.841 197.458 226.035 201.199 227.977C240.084 248.105 288.511 232.697 308.539 193.782C314.338 182.524 317.184 170.536 317.365 158.7C317.495 150.472 328.162 147.232 332.763 154.059C348.197 176.988 351.223 207.322 338.05 233.844H338.042Z" fill="black"/>
<path d="M260.978 277.999H118.97C107.761 277.999 98.6826 268.92 98.6826 257.726V78.2798C98.6826 43.9408 136.304 26.6053 162.081 42.7428C166.277 45.3626 170.163 48.8773 173.522 53.3447L205.076 95.3916L208.507 99.9672L210.161 102.176L293.443 213.124C313.507 239.856 294.418 277.999 260.978 277.999Z" fill="#FFF8DD"/>
<path d="M148.496 41.1764L145.109 40.0794C145.102 39.5381 144.704 26.6773 127.269 26.6773C126.237 26.6773 125.392 25.8401 125.392 24.8008C125.392 23.7615 126.229 22.9244 127.269 22.9244C139.945 22.9244 145.181 28.9651 147.341 33.8727C147.499 32.7541 147.528 31.4911 147.297 30.1415C146.582 25.9267 143.65 21.9789 138.573 18.4064C137.728 17.8074 137.525 16.6383 138.118 15.7939C138.717 14.9494 139.88 14.7474 140.732 15.3392C146.683 19.5323 150.143 24.3245 151.002 29.5857C152.079 36.1605 148.633 40.9599 148.489 41.1548L148.496 41.1764Z" fill="#FFF8DD"/>
<path d="M137.974 89.4659C137.974 94.9461 136.123 97.6862 132.42 97.6862C128.718 97.6862 126.866 94.9461 126.866 89.4659C126.866 84.9263 129.351 81.2456 132.42 81.2456C135.49 81.2456 137.974 84.9263 137.974 89.4659Z" fill="#0B0C10"/>
<path d="M122.994 89.4659C122.994 94.9461 121.142 97.6862 117.44 97.6862C113.737 97.6862 111.886 94.9461 111.886 89.4659C111.886 84.9263 114.37 81.2456 117.44 81.2456C120.509 81.2456 122.994 84.9263 122.994 89.4659Z" fill="#0B0C10"/>
<path d="M137.973 78.1577C137.359 78.1577 136.76 77.8546 136.406 77.3061C136.348 77.2195 134.687 74.8234 131.451 74.8234C128.216 74.8234 126.555 77.2195 126.49 77.3205C126.136 77.8402 125.565 78.1577 124.915 78.1505C124.287 78.1505 123.702 77.833 123.362 77.3061C123.304 77.2195 121.643 74.8234 118.408 74.8234C115.172 74.8234 113.511 77.2195 113.446 77.3205C112.868 78.1722 111.712 78.4031 110.86 77.8402C110.008 77.27 109.762 76.1297 110.319 75.2709C110.427 75.0977 113.099 71.085 118.408 71.085C121.434 71.085 123.601 72.3913 124.93 73.5388C126.258 72.384 128.425 71.085 131.451 71.085C136.76 71.085 139.432 75.0977 139.541 75.2709C140.104 76.1369 139.858 77.2917 138.992 77.8546C138.674 78.0567 138.327 78.1577 137.973 78.1577Z" fill="#0B0C10"/>
<path d="M98.6829 101.425H78.2434C77.0445 101.425 75.9322 101.757 74.9933 102.335C73.8594 103.027 72.971 104.067 72.4655 105.286C72.0466 106.304 71.8877 107.452 72.0827 108.635C73.6572 118.292 78.3517 126.902 85.0903 133.397C93.0855 141.112 103.977 145.861 115.981 145.861C140.537 145.861 160.449 125.971 160.449 101.425H98.6829Z" fill="#FFF8DD"/>
<path d="M92.6378 107.718C92.0455 114.293 89.4454 120.42 85.1264 125.415C81.3274 121.019 78.8357 115.722 77.8967 109.956C77.774 109.198 78.1206 108.664 78.3301 108.411C78.5468 108.158 79.0307 107.725 79.8107 107.725H92.6378V107.718Z" fill="#0B0C10"/>
<path d="M210.161 102.175C209.742 123.624 184.175 146.394 148.676 155.394C130.526 159.991 112.947 160.194 98.6826 156.801V142.735C112.225 145.261 128.331 144.727 144.906 140.527C175.963 132.653 199.414 114.235 205.076 95.3911L208.507 99.9668L210.161 102.175Z" fill="#52545B"/>
<path d="M162.443 42.7427V136.522C162.443 149.325 172.844 159.71 185.649 159.71C198.454 159.71 208.869 149.318 208.869 136.522V99.9599L173.884 53.3446C170.525 48.8772 166.64 45.3553 162.443 42.7427Z" fill="#0B0C10"/>
<path d="M120.553 162.749C115.382 162.749 111.179 158.549 111.179 153.381C111.179 148.214 115.382 144.014 120.553 144.014C125.725 144.014 129.928 148.214 129.928 153.381C129.928 158.549 125.725 162.749 120.553 162.749Z" fill="#D8D8D8"/>
<path d="M120.552 147.615C123.73 147.615 126.316 150.199 126.316 153.374C126.316 156.55 123.73 159.134 120.552 159.134C117.374 159.134 114.789 156.55 114.789 153.374C114.789 150.199 117.374 147.615 120.552 147.615ZM120.552 140.398C113.38 140.398 107.566 146.208 107.566 153.374C107.566 160.541 113.38 166.351 120.552 166.351C127.724 166.351 133.538 160.541 133.538 153.374C133.538 146.208 127.724 140.398 120.552 140.398Z" fill="#52545B"/>
<path d="M196.953 210.082L192.995 214.041C183.522 223.514 168.176 223.514 158.704 214.041L147.95 203.288C114.077 169.414 159.438 133.727 159.438 133.727C162.188 128.818 168.378 127.062 173.287 129.783C174.136 130.258 174.885 130.833 175.532 131.481C178.268 134.217 179.247 138.334 177.937 142.033L195.816 124.154C199.401 120.569 205.188 120.569 208.772 124.154C212.357 127.738 212.299 133.065 209.132 136.664C210.975 136.952 212.76 137.787 214.185 139.212C216.632 141.659 217.352 145.114 216.474 148.209C218.835 148.209 221.196 149.102 222.995 150.901C225.846 153.752 226.378 157.998 224.694 161.41C226.753 161.597 228.768 162.432 230.352 164.016C233.936 167.6 233.936 173.387 230.352 176.972L198.551 208.772C198.047 209.276 197.5 209.679 196.939 210.039L196.953 210.082Z" fill="#FFB899"/>
<path fill-rule="evenodd" clip-rule="evenodd" d="M188.891 157.336C189.288 157.734 189.933 157.734 190.33 157.336L207.951 139.716C208.348 139.319 208.348 138.674 207.951 138.276C207.553 137.879 206.909 137.879 206.511 138.276L188.891 155.897C188.493 156.294 188.493 156.939 188.891 157.336Z" fill="#0B0C10"/>
<path fill-rule="evenodd" clip-rule="evenodd" d="M199.185 167.629C199.582 168.026 200.227 168.026 200.624 167.629L213.681 154.572C214.079 154.174 214.079 153.53 213.681 153.132C213.284 152.735 212.639 152.735 212.242 153.132L199.185 166.189C198.787 166.587 198.787 167.231 199.185 167.629Z" fill="#0B0C10"/>
<path fill-rule="evenodd" clip-rule="evenodd" d="M209.577 178.023C209.975 178.421 210.619 178.421 211.017 178.023L221.785 167.255C222.182 166.857 222.182 166.213 221.785 165.815C221.387 165.418 220.743 165.418 220.345 165.815L209.577 176.583C209.18 176.981 209.18 177.625 209.577 178.023Z" fill="#0B0C10"/>
<path fill-rule="evenodd" clip-rule="evenodd" d="M159.38 160.503C159.777 160.901 160.422 160.901 160.82 160.503L178.44 142.883C178.838 142.485 178.838 141.84 178.44 141.443C178.042 141.045 177.398 141.045 177 141.443L159.38 159.063C158.982 159.461 158.982 160.105 159.38 160.503Z" fill="#0B0C10"/>
<path fill-rule="evenodd" clip-rule="evenodd" d="M34 282.89L148.009 168.881L181.119 201.991L67.1104 316L34 282.89Z" fill="#FFB899"/>
</g>
<defs>
<clipPath id="clip0_1637_7158">
<rect width="312" height="231" fill="white"/>
</clipPath>
</defs>
</svg>
