<svg width="312" height="260" viewBox="0 0 312 260" fill="none" xmlns="http://www.w3.org/2000/svg">
<g clip-path="url(#clip0_1639_7159)">
<path d="M312 184.544C312 270.448 242.156 259.554 156 259.554C69.8436 259.554 0 270.448 0 184.544C0 98.6392 69.8436 29 156 29C242.156 29 312 98.6392 312 184.544Z" fill="#F4F4F4"/>
</g>
<g clip-path="url(#clip1_1639_7159)">
<path d="M224.528 115C219.293 115 214.184 112.279 211.284 107.358C206.878 99.8851 209.23 90.1772 216.535 85.6714L236.639 73.2717C243.945 68.7659 253.436 71.171 257.841 78.6436C262.247 86.1161 259.895 95.8241 252.59 100.33L232.486 112.73C229.991 114.269 227.24 115 224.522 115H224.528Z" fill="#FFB899"/>
<path d="M224.528 81C219.293 81 214.184 78.3408 211.284 73.5314C206.878 66.2286 209.23 56.7414 216.535 52.338L236.639 40.2201C243.945 35.8167 253.436 38.1671 257.841 45.4698C262.247 52.7726 259.895 62.2599 252.59 66.6633L232.486 78.7812C229.991 80.2852 227.24 81 224.522 81H224.528Z" fill="#FFB899"/>
<path d="M224.528 147C219.293 147 214.184 144.279 211.284 139.358C206.878 131.885 209.23 122.177 216.535 117.671L236.639 105.272C243.945 100.766 253.436 103.171 257.841 110.644C262.247 118.116 259.895 127.824 252.59 132.33L232.486 144.73C229.991 146.269 227.24 147 224.522 147H224.528Z" fill="#FFB899"/>
<path d="M224.528 178C219.293 178 214.184 175.341 211.284 170.531C206.878 163.229 209.23 153.741 216.535 149.338L236.639 137.22C243.945 132.817 253.436 135.167 257.841 142.47C262.247 149.773 259.895 159.26 252.59 163.663L232.486 175.781C229.991 177.285 227.24 178 224.522 178H224.528Z" fill="#FFB899"/>
<path d="M100.106 167.468L69.6782 311.004L161.352 345.516L191.78 201.981L100.106 167.468Z" fill="#FFB899"/>
<path d="M150.062 238C189.827 238 222.062 205.988 222.062 166.5C222.062 127.012 189.827 95 150.062 95C110.298 95 78.0625 127.012 78.0625 166.5C78.0625 205.988 110.298 238 150.062 238Z" fill="#FFB899"/>
<path d="M95.6474 195C88.8303 195 82.6007 190.376 80.7695 183.38L69.5826 140.636C67.3976 132.297 72.298 123.738 80.5185 121.528C88.7447 119.311 97.1763 124.282 99.3555 132.621L110.542 175.365C112.727 183.704 107.827 192.263 99.6065 194.473C98.283 194.832 96.9538 195 95.6474 195Z" fill="#FFB899"/>
<path d="M244.062 106L232.904 112.793C230.448 114.289 227.738 115 225.062 115" stroke="#FFA383" stroke-width="5" stroke-miterlimit="10" stroke-linecap="round"/>
<path d="M245.063 71L232.807 78.7402C230.381 80.272 227.705 81 225.062 81" stroke="#FFA383" stroke-width="5" stroke-miterlimit="10" stroke-linecap="round"/>
<path d="M245.062 137L233.06 144.646C230.555 146.242 227.792 147 225.062 147" stroke="#FFA383" stroke-width="5" stroke-miterlimit="10" stroke-linecap="round"/>
<path d="M124.94 3H201.185C213.261 3 223.062 12.8665 223.062 25.0222V211.978C223.062 224.134 213.261 234 201.185 234H124.94C112.864 234 103.062 224.134 103.062 211.978V25.0222C103.062 12.8665 112.864 3 124.94 3Z" fill="#A5C6FF"/>
<path d="M201.524 6.92213C211.799 6.92213 220.127 15.2344 220.127 25.4907V212.509C220.127 222.766 211.799 231.078 201.524 231.078H124.601C114.326 231.078 105.998 222.766 105.998 212.509V25.4907C105.998 15.2344 114.326 6.92213 124.601 6.92213H201.524ZM201.524 0H124.601C110.517 0 99.0625 11.433 99.0625 25.4907V212.509C99.0625 226.567 110.517 238 124.601 238H201.524C215.608 238 227.062 226.567 227.062 212.509V25.4907C227.062 11.433 215.608 0 201.524 0Z" fill="#282828"/>
<mask id="mask0_1639_7159" style="mask-type:luminance" maskUnits="userSpaceOnUse" x="106" y="6" width="114" height="225">
<path d="M201.272 6.91406H124.579C114.335 6.91406 106.031 15.2183 106.031 25.4621V212.274C106.031 222.518 114.335 230.822 124.579 230.822H201.272C211.516 230.822 219.82 222.518 219.82 212.274V25.4621C219.82 15.2183 211.516 6.91406 201.272 6.91406Z" fill="white"/>
</mask>
<g mask="url(#mask0_1639_7159)">
<path d="M290.423 204.328C278.979 227.405 251.005 236.826 227.939 225.371C215.925 219.401 207.622 208.943 204.038 197.033C205.968 198.456 208.031 199.747 210.227 200.882C233.015 212.7 261.394 203.654 273.131 180.813C276.531 174.204 278.196 167.168 278.305 160.219C278.38 155.391 284.632 153.489 287.329 157.494C296.375 170.948 298.144 188.759 290.423 204.322V204.328Z" fill="black"/>
<path d="M149.431 215.616H162.966V230.246H141.434V223.613C141.434 219.2 145.018 215.616 149.431 215.616Z" fill="#FFF8DD"/>
<path d="M150.146 113.016V218.346C150.146 224.921 155.47 230.245 162.033 230.245H245.26C264.851 230.245 276.041 207.854 264.281 192.164L214.508 125.739L194.007 98.3745C192.042 95.7528 189.76 93.6842 187.3 92.1515C172.192 82.6787 150.146 92.8545 150.146 113.01V113.016Z" fill="#FFF8DD"/>
<path d="M179.342 91.2355L177.354 90.5902C177.354 90.2733 177.118 82.725 166.902 82.725C166.297 82.725 165.801 82.2352 165.801 81.6244C165.801 81.0137 166.291 80.5239 166.902 80.5239C174.329 80.5239 177.4 84.0733 178.662 86.9543C178.754 86.2975 178.772 85.5542 178.639 84.7648C178.219 82.2928 176.501 79.9765 173.528 77.8791C173.033 77.5276 172.912 76.8419 173.263 76.3464C173.615 75.8509 174.3 75.7299 174.796 76.0813C178.282 78.5417 180.31 81.3536 180.817 84.4478C181.451 88.3084 179.429 91.1203 179.342 91.2413V91.2355Z" fill="#FFF8DD"/>
<path d="M173.178 119.585C173.178 122.804 172.092 124.414 169.922 124.414C167.752 124.414 166.667 122.804 166.667 119.585C166.667 116.917 168.124 114.756 169.922 114.756C171.72 114.756 173.178 116.917 173.178 119.585Z" fill="#0B0C10"/>
<path d="M164.395 119.585C164.395 122.804 163.31 124.414 161.14 124.414C158.969 124.414 157.884 122.804 157.884 119.585C157.884 116.917 159.342 114.756 161.14 114.756C162.938 114.756 164.395 116.917 164.395 119.585Z" fill="#0B0C10"/>
<path d="M173.177 112.942C172.82 112.942 172.468 112.763 172.255 112.441C172.22 112.389 171.247 110.983 169.351 110.983C167.455 110.983 166.481 112.389 166.441 112.446C166.234 112.752 165.899 112.936 165.519 112.93C165.15 112.93 164.805 112.746 164.609 112.435C164.574 112.383 163.6 110.977 161.705 110.977C159.809 110.977 158.835 112.383 158.795 112.441C158.461 112.942 157.781 113.074 157.279 112.746C156.778 112.412 156.634 111.743 156.963 111.236C157.026 111.138 158.593 108.782 161.705 108.782C163.479 108.782 164.747 109.548 165.525 110.222C166.303 109.548 167.57 108.782 169.345 108.782C172.457 108.782 174.024 111.138 174.087 111.236C174.416 111.743 174.272 112.423 173.765 112.752C173.58 112.873 173.373 112.93 173.171 112.93L173.177 112.942Z" fill="#0B0C10"/>
<path d="M187.519 92.1582V147.209C187.519 154.723 193.61 160.825 201.123 160.825C208.637 160.825 214.733 154.728 214.733 147.209V125.745L194.232 98.3812C192.267 95.7595 189.985 93.6909 187.525 92.1582H187.519Z" fill="#0B0C10"/>
<path d="M150.146 126.604H138.167C137.464 126.604 136.813 126.799 136.26 127.139C135.597 127.543 135.078 128.154 134.779 128.874C134.531 129.473 134.439 130.147 134.554 130.839C135.476 136.508 138.23 141.562 142.177 145.371C146.862 149.9 153.246 152.688 160.282 152.688C174.67 152.688 186.343 141.014 186.343 126.604H150.146Z" fill="#FFF8DD"/>
<path d="M146.608 130.296C146.263 134.157 144.736 137.752 142.206 140.68C139.976 138.098 138.524 134.992 137.971 131.604C137.902 131.161 138.104 130.844 138.225 130.694C138.351 130.544 138.634 130.291 139.095 130.291H146.614L146.608 130.296Z" fill="#0B0C10"/>
</g>
<path d="M151.062 19H174.062" stroke="#282828" stroke-width="18" stroke-miterlimit="10" stroke-linecap="round"/>
<path d="M226.062 68V96" stroke="#282828" stroke-width="12" stroke-miterlimit="10"/>
<path d="M100.062 60L100.063 80" stroke="#282828" stroke-width="12" stroke-miterlimit="10"/>
<path d="M100.062 89V117" stroke="#282828" stroke-width="12" stroke-miterlimit="10"/>
<path d="M84.4541 152C83.1667 152 81.8622 151.833 80.5634 151.492C72.3435 149.324 67.4217 140.815 69.5636 132.492L78.7975 96.6478C80.9394 88.3243 89.3416 83.3347 97.5616 85.5093C105.782 87.6782 110.703 96.1864 108.561 104.51L99.3275 140.348C97.5217 147.351 91.2841 151.994 84.4541 151.994V152Z" fill="#FFB899"/>
<path d="M170.062 56.2845C170.062 58.3946 169.322 60.522 167.883 62.2275C167.695 62.4472 167.507 62.6495 167.302 62.8518L156.999 73.0093C155.66 74.3274 153.486 74.3331 152.147 73.0093L141.827 62.8518C141.621 62.6495 141.433 62.4472 141.245 62.2275C138.155 58.5796 138.343 53.1453 141.827 49.7171C143.677 47.9076 146.079 47 148.499 47C150.661 47 152.823 47.7284 154.573 49.1795C158.279 46.1039 163.819 46.2947 167.302 49.7171C169.14 51.5266 170.062 53.9027 170.062 56.2845Z" fill="#FF5252"/>
<path d="M143.408 78.4289C144.029 79.7015 144.232 81.2023 143.913 82.6632C143.869 82.8515 143.82 83.0284 143.765 83.2167L140.874 92.427C140.5 93.6253 139.258 94.2759 138.104 93.8878L129.227 90.8748C129.051 90.812 128.881 90.7493 128.71 90.6751C125.874 89.4082 124.384 86.0756 125.363 82.9656C125.89 81.3221 126.99 80.0496 128.369 79.3249C129.601 78.6743 131.052 78.4632 132.475 78.8113C133.684 75.8496 136.905 74.2917 139.901 75.3132C141.478 75.8496 142.71 77.0023 143.408 78.4346V78.4289Z" fill="#FF5252"/>
</g>
<defs>
<clipPath id="clip0_1639_7159">
<rect width="312" height="231" fill="white" transform="translate(0 29)"/>
</clipPath>
<clipPath id="clip1_1639_7159">
<rect width="198" height="260" fill="white" transform="translate(62)"/>
</clipPath>
</defs>
</svg>
