<svg width="312" height="264" viewBox="0 0 312 264" fill="none" xmlns="http://www.w3.org/2000/svg">
<g clip-path="url(#clip0_1637_7153)">
<path d="M312 188.544C312 274.448 242.156 263.554 156 263.554C69.8436 263.554 0 274.448 0 188.544C0 102.639 69.8436 33 156 33C242.156 33 312 102.639 312 188.544Z" fill="#F4F4F4"/>
</g>
<path d="M138.959 104.852H182.706C208.791 104.852 229.974 125.97 229.974 151.976V263.993H91.6904V151.976C91.6904 125.97 112.873 104.852 138.959 104.852Z" fill="#1F5FFF"/>
<path d="M220.873 136.145L216.567 212.829L166.774 195.801" stroke="#1F5FFF" stroke-width="85.58" stroke-linecap="round" stroke-linejoin="round"/>
<path d="M107.163 137.341L92.127 210.247L135.591 182.856" stroke="#0039C6" stroke-width="85.58" stroke-linecap="round" stroke-linejoin="round"/>
<path d="M147.207 66.8721H167.553V105.04C167.553 109.58 163.851 113.271 159.297 113.271H155.463C150.91 113.271 147.207 109.58 147.207 105.04V66.8721Z" fill="#FFB899"/>
<path d="M182.924 67.8948C191.899 67.8948 199.174 60.6412 199.174 51.6935C199.174 42.7458 191.899 35.4922 182.924 35.4922C173.949 35.4922 166.673 42.7458 166.673 51.6935C166.673 60.6412 173.949 67.8948 182.924 67.8948Z" fill="#FFB899"/>
<path d="M116.692 92.5593C125.667 92.5593 132.943 85.3058 132.943 76.358C132.943 67.4103 125.667 60.1567 116.692 60.1567C107.717 60.1567 100.441 67.4103 100.441 76.358C100.441 85.3058 107.717 92.5593 116.692 92.5593Z" fill="#FFB899"/>
<path d="M162.599 98.1613C144.323 104.967 123.938 95.6961 117.112 77.4752L103.745 41.7943L169.982 17.131L183.349 52.8119C190.175 71.0328 180.876 91.356 162.599 98.1613Z" fill="#FFB899"/>
<path d="M159.326 60.4469C160.824 64.4404 160.221 66.9424 157.515 67.9529C154.808 68.9633 152.709 67.4694 151.215 63.471C149.978 60.1641 150.786 56.7991 153.026 55.9651C155.267 55.1311 158.089 57.1399 159.326 60.4469Z" fill="#0B0C10"/>
<path d="M148.379 64.5226C149.877 68.5161 149.273 71.0181 146.567 72.0285C143.861 73.039 141.761 71.5451 140.268 67.5467C139.031 64.2397 139.839 60.8747 142.079 60.0407C144.32 59.2067 147.142 61.2156 148.379 64.5226Z" fill="#0B0C10"/>
<path d="M156.416 52.6726C156.016 52.8249 155.551 52.7741 155.18 52.4985C155.107 52.4478 153.186 51.1061 150.742 52.0199C148.298 52.9337 147.709 55.2616 147.709 55.2834C147.614 55.7112 147.302 56.0666 146.887 56.2189C146.472 56.3712 146.007 56.3059 145.65 56.0448C145.578 55.9941 143.657 54.6524 141.213 55.5662C138.769 56.48 138.202 58.7426 138.172 58.8369C138.005 59.5331 137.307 59.9682 136.608 59.8087C135.91 59.6491 135.466 58.9602 135.626 58.264C135.663 58.1117 136.499 54.5364 140.304 53.1222C142.544 52.2882 144.501 52.6943 145.752 53.1802C146.378 51.9909 147.585 50.4027 149.826 49.5687C153.63 48.1545 156.613 50.3011 156.736 50.3954C157.318 50.8233 157.442 51.6428 157.013 52.2229C156.86 52.4333 156.649 52.5856 156.424 52.6653L156.416 52.6726Z" fill="#0B0C10"/>
<path d="M151.506 72.971C153.948 72.971 155.928 70.9968 155.928 68.5617C155.928 66.1265 153.948 64.1523 151.506 64.1523C149.063 64.1523 147.083 66.1265 147.083 68.5617C147.083 70.9968 149.063 72.971 151.506 72.971Z" fill="#FFB899"/>
<path d="M156.271 81.2677C153.078 82.4571 149.695 81.3257 148.728 78.7512C148.473 78.0768 148.815 77.3226 149.499 77.076C150.183 76.8294 150.932 77.163 151.179 77.8447C151.63 79.0558 153.543 79.5055 155.355 78.831C157.166 78.1566 158.315 76.5611 157.857 75.35C157.602 74.6755 157.944 73.9213 158.628 73.6747C159.312 73.4282 160.061 73.7618 160.308 74.4435C161.276 77.0252 159.465 80.0856 156.271 81.275V81.2677Z" fill="#0B0C10"/>
<path d="M119.347 82.312L111.934 59.4678L98.1934 64.5878L119.347 82.312Z" fill="#0B0D0F"/>
<path d="M184.837 57.923L175.409 35.8329L189.15 30.7129L184.837 57.923Z" fill="#0B0D0F"/>
<path d="M104.085 80.9848L89.9365 59.047L100.63 52.1865L97.0144 30.343L108.144 15.302L130.41 12.2561L149.222 0L167.524 4.08296L179.155 22.9458L191.74 21.1328L195.486 46.9504L174.383 49.9891L161.37 43.9118L152.277 29.1681L142.26 35.6951L136.877 37.7039L125.02 39.3212L127.85 56.3927L122.016 69.4901L104.085 80.9848Z" fill="#0B0C10"/>
<path d="M107.163 137.341L92.127 210.247L135.591 182.856" stroke="#1F5FFF" stroke-width="85.58" stroke-linecap="round" stroke-linejoin="round"/>
<path d="M104.9 88.0266C105.838 87.5552 106.799 87.1491 107.766 86.8083C108.661 86.4964 109.577 86.2353 110.494 86.025C114.604 85.1113 118.845 85.3143 122.787 86.5109C128.243 88.1717 133.124 91.7615 136.31 96.9975L148.815 117.514L107.664 142.44L96.0908 123.453C108.304 116.056 112.225 100.225 104.9 88.0194V88.0266Z" fill="#FFF9E1"/>
<path d="M114.145 222.627L173.86 186.46C180.705 182.312 182.88 173.421 178.726 166.604L137.292 98.6147L96.1342 123.54L92.1406 210.972C92.6716 221.923 104.754 228.319 114.153 222.627H114.145Z" fill="#FFF9E1"/>
<path d="M131.721 98.2881L136.798 106.621L142.203 103.35C142.625 103.096 142.596 102.465 142.145 102.255L139.642 101.095L140.348 99.347C140.501 98.9626 140.246 98.5347 139.831 98.4985L137.947 98.3172L138.071 95.5686C138.093 95.0754 137.555 94.7563 137.125 95.0102L131.721 98.2809V98.2881Z" fill="#FFF9E1"/>
<path d="M109.228 79.6867L99.3135 110.436L101.198 113.525L126.039 98.477L124.155 95.3876L114.226 79.0993C112.996 77.0832 109.956 77.4385 109.228 79.6867Z" fill="#FFF9E1"/>
<path d="M193.598 174.498L169.035 189.375L162.682 178.95L177.41 170.03C182.837 166.743 189.923 168.467 193.22 173.878L193.598 174.498Z" fill="#FFF9E1"/>
<path d="M118.423 102.081C119.65 104.093 120.942 104.685 122.3 103.858C123.658 103.032 123.726 101.615 122.503 99.6085C121.485 97.9405 119.754 97.1428 118.626 97.8317C117.499 98.5134 117.404 100.421 118.423 102.081Z" fill="#0B0C10"/>
<path d="M123.929 98.7451C125.156 100.756 126.449 101.349 127.807 100.522C129.164 99.6951 129.232 98.2785 128.01 96.2721C126.992 94.6041 125.261 93.8063 124.133 94.4953C123.006 95.1842 122.911 97.0843 123.929 98.7451Z" fill="#0B0C10"/>
<path d="M129.567 104.061C129.509 104.061 129.458 104.061 129.4 104.061L126.447 103.807C125.588 103.735 124.905 103.147 124.708 102.306C124.512 101.465 124.861 100.638 125.596 100.188L128.709 98.3029C129.015 98.1143 129.371 98.02 129.728 98.02C130.273 98.02 130.797 98.2521 131.168 98.651C131.539 99.0498 131.721 99.572 131.677 100.123L131.517 102.263C131.437 103.278 130.579 104.068 129.567 104.068V104.061Z" fill="#0B0C10"/>
<path d="M129.727 99.0573C130.229 99.0573 130.687 99.4779 130.644 100.044L130.484 102.183C130.447 102.669 130.04 103.031 129.567 103.031C129.538 103.031 129.516 103.031 129.487 103.031L126.534 102.785C125.646 102.712 125.37 101.545 126.134 101.088L129.247 99.2023C129.4 99.1081 129.567 99.0646 129.72 99.0646M129.727 96.9832C129.182 96.9832 128.643 97.1355 128.171 97.4183L125.057 99.3039C123.944 99.9783 123.399 101.276 123.697 102.538C123.995 103.8 125.064 104.721 126.359 104.83L129.313 105.077C129.4 105.077 129.48 105.084 129.567 105.084C131.124 105.084 132.433 103.873 132.55 102.321L132.71 100.181C132.775 99.3546 132.484 98.5351 131.924 97.926C131.357 97.3168 130.556 96.9614 129.72 96.9614L129.727 96.9832Z" fill="#FFF9E1"/>
<path d="M83.7102 95.2495L94.4252 98.3099C94.6288 97.9256 94.8325 97.5412 95.058 97.1641C97.0075 93.9079 99.7572 91.065 103.234 88.9546C103.634 88.7081 104.042 88.4833 104.449 88.2657C104.602 88.1859 104.755 88.1061 104.907 88.0264C112.233 100.232 108.312 116.063 96.0982 123.46L81.1788 98.9771C80.0731 97.1641 81.6225 94.8942 83.7175 95.2495H83.7102Z" fill="#0B0C10"/>
<path d="M133.307 156.329L142.215 161.851L135.724 172.259L120.348 162.729L122.818 158.769C125.038 155.209 129.736 154.116 133.307 156.329Z" fill="#FFF9E1"/>
<path d="M178.574 83.1965L131.844 158.126C128.927 162.803 130.368 168.946 135.052 171.854L194.49 208.695C208.486 217.368 226.402 206.396 224.969 190.028L218.895 120.741L216.393 92.1964C216.153 89.4623 215.44 86.9821 214.363 84.7992C207.78 71.3755 187.521 68.8517 178.574 83.1892V83.1965Z" fill="#FFF9E1"/>
<path d="M209.082 80.6221L207.947 79.2877C208.085 79.0629 211.271 73.5875 203.975 69.0622C203.539 68.7939 203.408 68.2282 203.677 67.7931C203.946 67.3579 204.513 67.2274 204.95 67.4957C210.253 70.7882 210.871 74.6681 210.5 77.2789C210.856 76.851 211.198 76.3361 211.453 75.7124C212.253 73.7688 212.049 71.3611 210.856 68.5473C210.66 68.0759 210.878 67.5392 211.344 67.3434C211.817 67.1476 212.355 67.3652 212.551 67.8293C213.948 71.1218 214.152 74.0227 213.141 76.4449C211.882 79.469 209.191 80.5786 209.074 80.6221H209.082Z" fill="#FFF9E1"/>
<path d="M192.103 98.0565C190.678 100.343 189.189 101.008 187.637 100.051C186.085 99.0936 186.025 97.4691 187.455 95.1774C188.641 93.2846 190.634 92.3926 191.922 93.1831C193.209 93.9736 193.289 96.1637 192.103 98.0565Z" fill="#0B0C10"/>
<path d="M185.834 94.1693C184.408 96.4562 182.919 97.121 181.367 96.1637C179.816 95.2064 179.755 93.5819 181.186 91.2902C182.371 89.3974 184.364 88.5054 185.652 89.2959C186.94 90.0864 187.02 92.2765 185.834 94.1693Z" fill="#0B0C10"/>
<path d="M195.05 93.3351C194.796 93.1755 194.621 92.8927 194.614 92.5736C194.614 92.5228 194.541 91.0942 193.188 90.2529C191.835 89.4117 190.518 89.9846 190.46 90.0063C190.177 90.1296 189.856 90.1151 189.587 89.9483C189.325 89.7815 189.158 89.4987 189.158 89.1941C189.158 89.1433 189.085 87.7147 187.732 86.8734C186.379 86.0322 185.063 86.6051 185.005 86.6268C184.546 86.8299 183.993 86.6268 183.79 86.1699C183.579 85.7131 183.775 85.1692 184.233 84.9588C184.321 84.9153 186.488 83.9363 188.707 85.3142C189.973 86.0974 190.54 87.207 190.795 88.0338C191.653 87.896 192.897 87.9177 194.163 88.7009C196.389 90.0789 196.454 92.4431 196.461 92.5446C196.469 93.0522 196.069 93.4729 195.559 93.4801C195.378 93.4801 195.203 93.4294 195.058 93.3423L195.05 93.3351Z" fill="#0B0C10"/>
<path d="M214.515 84.9009L190.096 124.062C186.764 129.407 188.408 136.442 193.769 139.771C199.138 143.099 206.194 141.453 209.525 136.108L219.047 120.843L216.545 92.2981C216.305 89.564 215.592 87.0838 214.515 84.9009Z" fill="#0B0C10"/>
<path d="M172.543 92.8563L163.989 87.555C163.487 87.2431 162.934 87.0981 162.388 87.0908C161.734 87.0908 161.093 87.2866 160.562 87.671C160.119 87.9901 159.755 88.4252 159.529 88.9691C157.675 93.4074 157.398 98.2229 158.526 102.683C159.864 107.977 163.181 112.785 168.208 115.904C178.486 122.271 192.002 119.138 198.389 108.884L172.536 92.8563H172.543Z" fill="#FFF9E1"/>
<path d="M168.375 93.9154C166.418 96.5044 163.734 98.3899 160.621 99.3545C160.177 96.5334 160.511 93.6761 161.617 91.0218C161.763 90.6737 162.046 90.5359 162.199 90.4924C162.359 90.4416 162.672 90.3908 162.999 90.5866L168.368 93.9154H168.375Z" fill="#0B0C10"/>
<path d="M92.127 210.247L135.591 182.855" stroke="#1F5FFF" stroke-width="85.58" stroke-linecap="round" stroke-linejoin="round"/>
<path d="M175.475 172.478L173.569 173.856C169.008 177.156 162.621 176.147 159.311 171.6L155.551 166.437C143.708 150.17 164.92 138.371 164.92 138.371C166.382 136.514 169.073 136.195 170.936 137.653C171.256 137.907 171.532 138.19 171.758 138.502C172.718 139.814 172.849 141.591 172.056 143.041L180.669 136.812C182.393 135.564 184.8 135.949 186.052 137.668C187.303 139.386 186.932 141.598 185.375 142.875C186.124 143.114 186.815 143.578 187.31 144.267C188.161 145.442 188.241 146.921 187.666 148.147C188.648 148.299 189.572 148.821 190.198 149.684C191.194 151.055 191.136 152.846 190.212 154.159C191.056 154.369 191.842 154.855 192.395 155.609C193.646 157.328 193.26 159.729 191.536 160.976L176.217 172.064C175.977 172.239 175.722 172.369 175.46 172.485L175.475 172.478Z" fill="#FFB899"/>
<path d="M184.444 143.694L175.955 149.837" stroke="#0B0C10" stroke-width="1.18" stroke-linecap="round" stroke-linejoin="round"/>
<path d="M185.848 150.229L179.556 154.783" stroke="#0B0C10" stroke-width="1.18" stroke-linecap="round" stroke-linejoin="round"/>
<path d="M188.379 156.016L183.192 159.772" stroke="#0B0C10" stroke-width="1.18" stroke-linecap="round" stroke-linejoin="round"/>
<path d="M171.969 143.063L163.479 149.206" stroke="#0B0C10" stroke-width="1.18" stroke-linecap="round" stroke-linejoin="round"/>
<path d="M163.639 160.135L151.506 168.91" stroke="#FFB899" stroke-width="27.1" stroke-miterlimit="10" stroke-linecap="round"/>
<path d="M214.276 211.067L162.745 200.37" stroke="#1F5FFF" stroke-width="85.58" stroke-linecap="round" stroke-linejoin="round"/>
<path d="M120.358 205.062L122.62 205.722C128.032 207.303 133.699 204.213 135.285 198.825L137.089 192.704C142.763 173.421 118.801 169.403 118.801 169.403C116.801 168.148 114.153 168.743 112.895 170.745C112.676 171.085 112.516 171.448 112.407 171.818C111.949 173.377 112.422 175.089 113.651 176.191L103.438 173.203C101.394 172.608 99.2481 173.776 98.6516 175.814C98.0551 177.852 99.1463 179.81 101.045 180.491C100.419 180.97 99.9246 181.637 99.6846 182.45C99.2772 183.842 99.7064 185.263 100.659 186.228C99.7864 186.699 99.0954 187.504 98.7898 188.527C98.3097 190.151 98.9717 191.819 100.281 192.74C99.5536 193.226 98.979 193.937 98.7171 194.836C98.1206 196.874 99.2918 199.013 101.336 199.608L119.507 204.924C119.791 205.004 120.074 205.047 120.358 205.069V205.062Z" fill="#FFB899"/>
<path d="M102.216 180.948L112.276 183.893" stroke="#0B0C10" stroke-width="1.18" stroke-linecap="round" stroke-linejoin="round"/>
<path d="M103.096 187.577L110.552 189.76" stroke="#0B0C10" stroke-width="1.18" stroke-linecap="round" stroke-linejoin="round"/>
<path d="M102.659 193.879L108.806 195.677" stroke="#0B0C10" stroke-width="1.18" stroke-linecap="round" stroke-linejoin="round"/>
<path d="M113.753 176.176L123.82 179.121" stroke="#0B0C10" stroke-width="1.18" stroke-linecap="round" stroke-linejoin="round"/>
<path d="M127.349 189.47L141.73 193.676" stroke="#FFB899" stroke-width="27.1" stroke-miterlimit="10" stroke-linecap="round"/>
<defs>
<clipPath id="clip0_1637_7153">
<rect width="312" height="231" fill="white" transform="translate(0 33)"/>
</clipPath>
</defs>
</svg>
